<svg height="30" viewBox="0 0 64 64" width="30" xmlns="http://www.w3.org/2000/svg"><g id="flat"><path d="m11 25h42v28h-42z" fill="#cfdfe8"/><path d="m3 57h58v4h-58z" fill="#5a6470"/><path d="m5 53h54v4h-54z" fill="#7d8d9c"/><path d="m7 29h4v24h-4z" fill="#aabece"/><path d="m5 25h8v4h-8z" fill="#7d8d9c"/><path d="m19 29h4v24h-4z" fill="#aabece"/><path d="m17 25h8v4h-8z" fill="#7d8d9c"/><path d="m41 29h4v24h-4z" fill="#aabece"/><path d="m39 25h8v4h-8z" fill="#7d8d9c"/><path d="m53 29h4v24h-4z" fill="#aabece"/><path d="m51 25h8v4h-8z" fill="#7d8d9c"/><path d="m27 37h10v16h-10z" fill="#d3843d"/><path d="m31 37h2v16h-2z" fill="#66342e"/><path d="m3 21h58v4h-58z" fill="#5a6470"/><path d="m59 21h-54l27-18z" fill="#55b56a"/><g fill="#5a6470"><path d="m14 34h2v2h-2z"/><path d="m14 40h2v2h-2z"/><path d="m14 46h2v2h-2z"/><path d="m48 34h2v2h-2z"/><path d="m48 40h2v2h-2z"/><path d="m48 46h2v2h-2z"/></g><path d="m30 29h4v4h-4z" fill="#f9bb4b"/><path d="m35 11a3 3 0 0 0 -3-3h-3v10h3a2.987 2.987 0 0 0 2.22-5 2.981 2.981 0 0 0 .78-2zm-4-1h1a1 1 0 0 1 0 2h-1zm1 6h-1v-2h1a1 1 0 0 1 0 2z" fill="#ffd782"/><path d="m26 18h-8a1 1 0 0 1 -.555-1.832l9-6 1.11 1.664-6.255 4.168h4.7z" fill="#c8d952"/><path d="m46 18h-8v-2h4.7l-6.252-4.168 1.11-1.664 9 6a1 1 0 0 1 -.558 1.832z" fill="#c8d952"/></g></svg>