<svg enable-background="new 0 0 140 140" height="50" viewBox="0 0 140 140" width="50" xmlns="http://www.w3.org/2000/svg"><circle cx="70" cy="70" fill="#48fcff" r="64"/><path d="m41.2972336 104.3616867c.0299683.0299683.0499878.0599976.0799561.0799561l29.5623169 29.5346146c32.4838257-.4695435 59.1010818-25.1270828 62.646553-56.7757645l-39.8088455-39.8088379-.0100098.0100098c-.8900146-1.0300293-2.1900024-1.6900024-3.6499634-1.6900024h-7.6700439l-1.8200073-1.8200073c-.2799683-.3400269-.6999512-.5700073-1.1799927-.5700073h-1.2000122l-5.3299561-5.4899883s0-.0100098-.0100098-.0100098c-.2800293-.2700195-.6500244-.4400024-1.0599976-.4400024h-8.8099976c-.8400269 0-1.5100098.6799927-1.5100098 1.5200195v2.8999632c0 .8400249-.6799927 1.5200176-1.5200195 1.5200176h-4.5799561c-.8300171 0-1.5100098.6799927-1.5100098 1.5100098v.8800049h-9.1500244c-2.6799927 0-4.8599854 2.1799927-4.8599854 4.8599854v60.4000244c0 1.2600098.4899902 2.3999634 1.2799683 3.2600098l-.0099487.0099487z" opacity=".1"/><path d="m90.115303 35.7143211h-45.3491172c-2.6812744 0-4.8548584 2.173645-4.8548584 4.8549194v60.403614c0 2.6812134 2.173584 4.8548584 4.8548584 4.8548584h45.3491172c2.6811523 0 4.8548584-2.173645 4.8548584-4.8548584v-60.403614c0-2.6812743-2.173706-4.8549194-4.8548584-4.8549194z" fill="#e69871"/><path d="m45.292877 41.506336h44.295731v58.529362h-44.295731z" fill="#ebf0f3"/><path d="m79.4495316 33.3191185h-4.578125c-.8361816 0-1.513916-.6778564-1.513916-1.5139771v-2.904541c0-.8361206-.6777344-1.513916-1.513916-1.513916h-8.8056602c-.8361816 0-1.513916.6777954-1.513916 1.513916v2.904541c0 .8361206-.6777344 1.5139771-1.513916 1.5139771h-4.578125c-.8361816 0-1.513916.6777954-1.513916 1.513916v8.7776489c0 .8361206.6777344 1.5139771 1.513916 1.5139771h24.0175743c.8361816 0 1.513916-.6778564 1.513916-1.5139771v-8.7776489c-.0000001-.8361206-.6777345-1.513916-1.5139161-1.513916z" fill="#fcd462"/><path d="m77.2857132 59.3102684c0 2.8500366-1.2199707 5.4299965-3.1699219 7.2300453-1.75 1.6199951-4.1000977 2.6099854-6.6800537 2.6099854s-4.9200401-.9899902-6.6700401-2.6000366c-1.9499512-1.7999878-3.1699219-4.3800087-3.1699219-7.239994 0-5.4400024 4.4099121-9.8399658 9.839962-9.8399658 5.4400635-.0000001 9.8499756 4.3999633 9.8499756 9.8399657z" fill="#e56353"/><path d="m69.7726135 60.8112831-.6045837-.3791542h-3.4577179l-.6055679.3835068-.3595886.5355644.7833023.9399605s.8355179.6475296.9190674.6475296c.0835571 0 .8041916.1044388.8668518.1044388.0626678 0 .6266403.062664.8146362-.0417747.1879883-.1044426.5744171-.3759842.6684113-.4073181.0940018-.0313301.7415237-.6475258.7728577-.6893005.0313339-.0417786.430954-.8146324.430954-.8146324z" fill="#f7be56"/><path d="m65.710312 57.077362h3.457714v4.7041h-3.457714z" fill="#f7be56"/><path d="m74.1157913 65.3002625v1.2400513c-1.75 1.6199951-4.1000977 2.6099854-6.6800537 2.6099854s-4.9200401-.9899902-6.6700401-2.6000366v-1.25c0-.8800049.3300781-1.7299843.9300537-2.3899574.2600098-.2900391.5699463-.5400391.9200439-.7300415l1.9199181-1.0499878.1000977-.0499878c.0400391.0700073.0899658.1499634.1398926.2199707.1000977.1700439.2199707.3300171.3400879.4900513.1999512.2599487.4299316.5.6799316.7099609.0200195.0100098.0400391.0200195.0600586.0400391.0600586.039978.1099854.0799561.1699219.1199951.2199707.1399536.460083.25.7199707.3099976.0200195.0099487.0300293.0099487.0500488.0099487.1400146.0400391.2900391.0600586.4400635.0600586h.0599365.0200195c.6400146-.0100098 1.25-.2700195 1.7600098-.6700439.1600342-.1300049.3100586-.2699585.4499512-.4299927.0200195-.0200195.0400391-.0499878.0700684-.0800171 0 0 .0100098-.0099487.0200195-.0299683.1999512-.2299805.3599854-.4799805.4799805-.7399902.0100098-.0300293.0200195-.0499878.0300293-.0800171l.2099609.1199951 1.9299316 1.0499878c.3400879.1900024.6601562.4400024.9200439.7300415.5999756.659973.9300537 1.5099524.9300537 2.3899573z" fill="#27a2db"/><g fill="#fcd462"><ellipse cx="70.035" cy="56.275" rx=".683" ry=".328" transform="matrix(.072 -.997 .997 .072 8.893 122.105)"/><ellipse cx="64.83" cy="56.275" rx=".328" ry=".683" transform="matrix(.997 -.072 .072 .997 -3.86 4.782)"/><path d="m69.9753418 56.9936485-.1018982-3.0078697-.3566513-.9698257-2.0842819-.5622215-2.0842819.5622215-.3566513.9698257-.1018982 3.0078697s-.1188812.7308846.1528473 1.2649918c.2717361.5341072.5264816.7780037.8831329 1.1339417s.8228531.4663048 1.5068512.4884262c.6839981-.0221214 1.1501999-.1324883 1.5068512-.4884262s.6113968-.5998344.8831329-1.1339417.1528473-1.2649918.1528473-1.2649918z"/></g><path d="m70.1258011 61.0102806-.0900879-.0499878-.2600098-.1500244c-.1699219 1.1400146-1.1499023 2.0100098-2.3399658 2.0100098-1.1800537 0-2.1600342-.8699951-2.3299561-2l-.2600098.1400146-.2099609.1199951-.1000977.0499878c.3100586 1.3200073 1.4899902 2.2999878 2.9000244 2.2999878 1.4200439 0 2.5999756-.9799805 2.9000244-2.2999878z" fill="#ebf0f3"/><path d="m69.4527359 52.567955s-.1014404-1.1347618-1.6835785-1.1170311c-1.5821381.0177269-2.9614105.567379-3.2453842 1.4007301-.2839661.8333321-.2028351 1.7376022.1014023 2.6241455.3042679.8865242.2637024 1.4007149.2637024 1.4007149h.2839661s-.2636642-.8687935 0-1.9149055c0 0-.3448029-1.0815735.3854065-1.3475418.6958847-.2534561.8589783.3126564 1.6100464.1824074-.1432953.2411499-.3980255.4232559-.3980255.4232559.6659775.0574112 1.4582825-.5741348 1.4582825-.5741348-.172226.5052299-.8841553.8382339-.8841553.8382339 1.2576675-.176857 1.6566772-.9152298 1.7459564-1.1251831.071022.0127487.1324539.0367279.1798096.0781174.3042374.2659531.5274048.8333359.3448334 1.1524925-.1825638.3191605.5273743.9397316.2028351 2.2872581h.2231369s-.1419983-.5141907.2839355-1.5957642c.4259643-1.0815734.2231292-2.8191756-.8721696-2.7127952z" fill="#2f4859"/><path d="m52.952736 75.10199h28.976021v1.614781h-28.976021z" fill="#3ea69b"/><g fill="#d5d6db"><path d="m52.952736 80.737183h28.976021v1.614781h-28.976021z"/><path d="m52.952736 86.372368h28.976021v1.614781h-28.976021z"/><path d="m52.952736 92.007561h28.976021v1.614781h-28.976021z"/></g><ellipse cx="97.634" cy="91.554" fill="#27a2db" rx="14.837" ry="14.837" transform="matrix(.982 -.189 .189 .982 -15.552 20.115)"/><ellipse cx="97.634" cy="91.554" fill="#ebf0f3" rx="11.198" ry="11.198" transform="matrix(.982 -.189 .189 .982 -15.552 20.115)"/><path d="m96.2378998 96.1280975-4.234375-4.234375 2.1210937-2.1210937 2.1132813 2.1132812 4.90625-4.90625 2.1210937 2.1210938z" fill="#3a556a"/></svg>