<svg enable-background="new 0 0 140 140" height="30" viewBox="0 0 140 140" width="30" xmlns="http://www.w3.org/2000/svg"><circle cx="70.418" cy="70" fill="#45b39c" r="64"/><path d="m62.4057693 60.5783348-2.0800781 1.9500122-8.7199707 4.7799721c-1.3499756.7399902-2.5799561 1.710022-3.6099854 2.8499756-.5499268.6000366-1.0299072 1.25-1.4599609 1.9300537h-4.7600098c-.9801025 0-1.6900635.7999878-1.5699463 1.7699585l4.0499268 32.6600342.0499268.4099731c.0900879.7299805.8500977 1.3200073 1.7000732 1.3200073h-2.0599365c-.8601074 0-1.5600586.7000122-1.5600586 1.5700073 0 .3699951.1400146.710022.3499756.9799805l.0100098.0100098c.0699463.0800171.1400146.1500244.2200928.210022l23.0018311 22.8104248c1.4720459.1011963 2.9525146.1712036 4.4503174.1712036 30.5556641 0 56.0935059-21.4195557 62.4589767-50.0584106l-53.131218-54.1732178c-2.1800537-2.4500122-8.0799561-6.4800415-12.8900146-4.960022-5.2299805 1.6500244-3.3599854 4.7299805-3.3599854 4.7299805s-1.789917-.8899536-3.2799072.0400391c-1.5.9400024-1.960083 4.5999737-1.3000488 7.6199932.2600098 1.2000122.6099854 2.8599854.9299316 4.4400024-.5799561.2600098-.9499512 1.3599854-.869873 2.6599731.0998535 1.4700317.75 2.6400146 1.4599609 2.6000366.0200195 0 .0400391-.0100098.0599365-.0200195l-.0100098.1599731s-.4599609 2.8600464.5999756 4.9400024c.8300781 1.6400146 1.630127 2.5800171 2.6101074 3.5800171v2.7600098z" opacity=".1"/><path d="m63.69437 47.367653h13.503925v18.37162h-13.503925z" fill="#f7be56"/><path d="m81.3312531 98.5232544v-35.5697136l-2.1691437-1.1879425-8.7157669 1.7242355-8.7157708-1.7242355-.3730163.2042694v36.5533867z" fill="#d5d6db"/><path d="m92.8969803 70.156868c-1.0381546-1.1424179-2.2597809-2.105545-3.6148529-2.8477173l-8.6973953-4.7656288-1.4217987-.7797127-.8297348.1626358c-.5711823 4.5738525-2.7684631 20.1466064-7.8801956 35.2940979-5.1116791-15.1433182-7.3131332-30.711937-7.8843193-35.2899208l-.8380814-.1668129-1.4009171.7671814-8.7224045 4.7781601c-1.355072.7421722-2.5766983 1.7052994-3.6107292 2.8477173-2.3223763 2.5558167-3.6065483 5.8830414-3.6065483 9.3353043v16.4071503c0 2.7307281 2.2136917 4.9444275 4.9444275 4.9444275h42.2246742c2.7307281 0 4.9444275-2.2136993 4.9444275-4.9444275v-16.4071504c0-3.4522628-1.284172-6.7794876-3.6065521-9.3353042z" fill="#2f4859"/><path d="m74.0708084 66.6729584-1.809906-3.1349106-1.8145599-.048214-1.8053055.048214-1.8099594 3.1349106 1.7740402 3.0727081-1.7740402 22.1475906 3.6198654 6.8157578 3.6198654-6.5654144-1.7744827-22.3971024z" fill="#e56353"/><path d="m77.1982956 58.3171501-6.7519608 5.1726837 5.6121521 7.2417641 3.1036148-8.965992z" fill="#ebf0f3"/><path d="m63.6943703 58.3171501 6.7519645 5.1726837-5.6121597 7.2417641-3.103611-8.965992z" fill="#ebf0f3"/><path d="m81.0516815 73.4840622-.4669724-10.9405441-2.0930557-1.9554558s-.0500336.4711456-.1584396 1.3383675c-.5712051 4.5738602-2.7685013 20.1466141-7.8802032 35.2941132-5.1116867-15.1433182-7.3131485-30.7119293-7.8843575-35.2899399-.1084099-.8672447-.1630173-1.3504295-.1630173-1.3504295l-2.0759544 1.9508247-.0125237.0125198-.4669724 10.9405441 1.8887596 1.8929062-.6962852 3.1896133c1.5468369 7.0129547 9.4084892 20.1424408 9.4084892 20.1424408s7.8612213-13.1294861 9.4080582-20.1424408l-.6962814-3.1896133z" fill="#3a556a"/><g fill="#fcd462"><ellipse cx="80.582" cy="44.235" rx="2.668" ry="1.279" transform="matrix(.072 -.997 .997 .072 30.696 121.447)"/><ellipse cx="60.258" cy="44.235" rx="1.279" ry="2.668" transform="matrix(.997 -.072 .072 .997 -3.01 4.424)"/><path d="m80.3512344 47.0407143-.3979644-11.7470856-1.3928833-3.7876053-8.1400604-2.1957169-8.1400642 2.1957169-1.3928795 3.7876053-.3979683 11.7470856s-.464283 2.8544273.5969543 4.9403572 2.0561447 3.0384598 3.4490242 4.4285545c1.3928757 1.3900948 3.2136154 1.8211327 5.8849335 1.9075241 2.6713181-.0863914 4.4920502-.5174294 5.8849335-1.9075241 1.3928757-1.3900948 2.3877869-2.3426247 3.4490204-4.4285545 1.061241-2.0859299.5969542-4.9403572.5969542-4.9403572z"/></g><path d="m79.892334 46.7063789s.4124069-5.4117241 1.8525467-9.2820053.0801086-4.739399-1.5221252-7.054142-8.1360168-7.2106514-13.3689957-5.5610752c-5.2329826 1.6495743-3.3593979 4.7247238-3.3593979 4.7247238s-1.7844353-.8871708-3.2819328.0476189-1.9569702 4.5971622-1.2959709 7.6207333 1.8617401 9.0655594 1.8617401 9.0655594l.9700699.0412598s-1.7231827-3.7552109-.4145851-8.8167877 3.704937-5.7085114 7.4636421-4.1133118c0 0 2.7498245-1.8176022 5.1432037-.966938 2.3933792.8506699 5.1329956 3.5571556 5.1329956 3.5571556s.4877625 5.668293.4347763 6.9141464c-.0529938 1.2458534-.1775284 4.1736069-.1775284 4.1736069z" fill="#3a556a"/><path d="m100.6291656 73.9627228-4.0944977 33.069191c-.0921021.7269287-.8557587 1.3158188-1.6931076 1.3158188h-48.8400382c-.8465538 0-1.6011162-.5888901-1.6929932-1.3158188l-.0552635-.4140091-4.0485573-32.6551819c-.1196213-.9753342.5888901-1.7758331 1.5734825-1.7758331h57.2776031c.9936906-.0000001 1.7020951.8004989 1.5733719 1.7758331z" fill="#e6e9ef"/><path d="m87.4990082 72.1868896c-1.9782867 5.0514603-5.8979034 10.7102356-11.6027298 16.2769623-9.4956055 9.256424-21.5492973 15.9181061-31.643013 18.1540527l-4.0485573-32.6551819c-.1196213-.9753342.5888901-1.7758331 1.5734825-1.7758331z" fill="#ebf0f3"/><path d="m96.8731995 108.1477356h-52.9227448c-.8650856 0-1.5662994.7012634-1.5662994 1.5662994 0 .8650818.7012138 1.5663528 1.5662994 1.5663528h52.9227448c.8650894 0 1.5664062-.7012711 1.5664062-1.5663528 0-.865036-.7013168-1.5662994-1.5664062-1.5662994z" fill="#d5d6db"/></svg>