<svg enable-background="new 0 0 140 140" height="512" viewBox="0 0 140 140" width="512" xmlns="http://www.w3.org/2000/svg"><circle cx="70" cy="70" fill="#45b39c" r="64"/><path d="m44.9112473 94.7616501.25.1600342c.0800171.0499878.1600342.0799561.2399902.1199951l37.6279297 37.6278763c28.2008057-5.8330154 49.6055984-30.2205276 50.8990555-59.8309402l-29.3769608-29.3769531-14.8400269 10.5899657 1.3100586 1.8300171-3.2300415 2.2999878 1.0499878 1.460022-2.4799805 1.6199951s-10.8900146-1.0999756-15.75-.9199829c-4.8599854.1900024-10.5100098 1.1900024-11.6099854 2.1900024-.0599976.0599976-.1400146.1499634-.2200317.25-.9299927-.1600342-1.8800049-.3200073-2.8099976-.4800415l-5.6799927-5.6799927-14.8399657-10.5999755-16.2800274 22.789978 24.6099834 24.6100464c.2200318.539978.6000367 1.0099487 1.130005 1.3399658z" opacity=".1"/><path d="m49.2310829 61.2413139c.9626846 0 16.7851601 2.8123512 16.7851601 2.8123512l25.2833786 21.9693146s.7370453 5.5477905-5.3272781 3.9377975c0 0 .8586655 4.6153183-4.6153183 3.6493225 0 0-.107338 4.9909897-5.0446548 2.8443298 0 0-.3756638 4.3469849-3.7566605 3.1663208-3.3809891-1.1806641-22.056942-5.7959824-25.4916-8.3719788-3.4346581-2.5759888-9.2092705-13.237587-9.2092705-13.237587z" fill="#f7be56"/><g fill="#fcd462"><path d="m94.0239487 56.2419281-7.6607361 5.0159531s-10.8884277-1.0943909-15.7497177-.9119911-10.5156441 1.1855888-11.6100311 2.1887817c-1.0943909 1.0031891-5.83675 9.4847145-5.83675 9.4847145s4.012764 2.9183731 8.3903275 0 4.3775597-3.6479721 4.3775597-3.6479721l5.1071548.5471954 20.2578659 17.1043701s7.3754807-1.5093079 9.8378601-8.8964386l6.6575394-3.3743744z"/><path d="m50.8412018 85.8154068-.2427483-.1515503c-1.357357-.8474197-3.1447067-.4340515-3.9921455.9233322l-2.6141777 4.1872559c-.8474045 1.3573227-.4339943 3.1446686.9233589 3.9920883l.2427483.1515579c1.357357.8474197 3.1446838.4340363 3.9920883-.9232941l2.6141777-4.1872559c.8474388-1.3573836.4340515-3.1447066-.9233017-3.992134z"/><path d="m56.4260025 88.4031219-.2427483-.1515503c-1.357357-.8474197-3.1447105-.4340515-3.9921455.9233322l-2.6141777 4.1872482c-.8474045 1.3573303-.4339981 3.1446762.9233589 3.9920959l.2427483.1515579c1.3573532.8474197 3.1446838.4340363 3.9920883-.9232941l2.6141777-4.1872559c.847435-1.3573835.4340515-3.1447141-.9233017-3.9921339z"/><path d="m62.3299255 90.6413193-.2427444-.1515503c-1.357357-.8474197-3.1447105-.4340515-3.9921455.9233246l-2.6141777 4.1872559c-.8474083 1.3573303-.4339981 3.1446762.9233589 3.9920959l.2427483.1515503c1.3573532.8474197 3.1446838.4340363 3.9920883-.9232941l2.6141777-4.1872559c.8474388-1.3573761.4340515-3.1447067-.9233056-3.9921264z"/><path d="m66.8125 93.5789032-.1951904-.1218567c-1.0914154-.6813965-2.5285797-.3490143-3.20998.742424l-2.1019936 3.3668671c-.6813774 1.0913925-.3489685 2.5285492.7424469 3.209938l.1951904.1218643c1.0914154.6813889 2.5285568.348999 3.209938-.7424011l2.1019974-3.3668671c.6813965-1.0914306.3490067-2.5285796-.7424087-3.2099685z"/></g><path d="m93.582832 51.926849h13.729362v24.316212h-13.729362z" fill="#ebf0f3" transform="matrix(.814 -.581 .581 .814 -18.539 70.307)"/><path d="m96.15229 46.148724h18.236162v28.004158h-18.236162z" fill="#474c5b" transform="matrix(.814 -.581 .581 .814 -15.355 72.377)"/><path d="m32.687805 54.490933h13.729362v24.316212h-13.729362z" fill="#ebf0f3" transform="matrix(-.814 -.581 .581 -.814 33.008 143.874)"/><path d="m25.611548 48.712807h18.236162v28.004158h-18.236162z" fill="#474c5b" transform="matrix(-.814 -.581 .581 -.814 26.547 133.935)"/></svg>