<svg id="Capa_1" enable-background="new 0 0 510 510" height="30" viewBox="0 0 510 510" width="30" xmlns="http://www.w3.org/2000/svg" xmlns:xlink="http://www.w3.org/1999/xlink"><linearGradient id="lg1"><stop offset="0" stop-color="#d4f7ff"/><stop offset="1" stop-color="#a2e3e9"/></linearGradient><linearGradient id="SVGID_1_" gradientUnits="userSpaceOnUse" x1="167.034" x2="335.429" xlink:href="#lg1" y1="116.751" y2="469.005"/><linearGradient id="SVGID_2_" gradientUnits="userSpaceOnUse" x1="469.621" x2="451.33" xlink:href="#lg1" y1="214.428" y2="69.931"/><linearGradient id="lg2"><stop offset="0" stop-color="#a2e3e9" stop-opacity="0"/><stop offset="1" stop-color="#518cd2"/></linearGradient><linearGradient id="SVGID_3_" gradientTransform="matrix(-1 0 0 1 -554 0)" gradientUnits="userSpaceOnUse" x1="-758.448" x2="-758.448" xlink:href="#lg2" y1="388.469" y2="486.235"/><linearGradient id="lg3"><stop offset="0" stop-color="#a34a9e"/><stop offset="1" stop-color="#343168"/></linearGradient><linearGradient id="SVGID_4_" gradientTransform="matrix(1 0 0 -1 -97.218 -4705.766)" gradientUnits="userSpaceOnUse" x1="236.134" x2="236.134" xlink:href="#lg3" y1="-5098.837" y2="-4749.287"/><linearGradient id="SVGID_5_" gradientTransform="matrix(1 0 0 -1 -97.218 -4705.766)" gradientUnits="userSpaceOnUse" x1="236.134" x2="236.134" xlink:href="#lg3" y1="-5033.927" y2="-4684.376"/><linearGradient id="SVGID_6_" gradientTransform="matrix(1 0 0 -1 -97.218 -4705.766)" gradientUnits="userSpaceOnUse" x1="279.173" x2="279.173" xlink:href="#lg3" y1="-4969.017" y2="-4619.466"/><linearGradient id="SVGID_7_" gradientUnits="userSpaceOnUse" x1="498.943" x2="339.549" xlink:href="#lg2" y1="435.057" y2="275.663"/><linearGradient id="SVGID_8_" gradientUnits="userSpaceOnUse" x1="358.238" x2="436.905" y1="156.088" y2="351.422"><stop offset="0" stop-color="#ff4974"/><stop offset=".4497" stop-color="#fe4773"/><stop offset=".6292" stop-color="#fc406d"/><stop offset=".7605" stop-color="#f73464"/><stop offset=".8683" stop-color="#f12257"/><stop offset=".9606" stop-color="#e80c46"/><stop offset="1" stop-color="#e4003d"/></linearGradient><path d="m390.487 457.904h-372.079c-10.166 0-18.408-8.241-18.408-18.408v-336.848c0-27.919 22.633-50.552 50.552-50.552h408.895c-27.919 0-50.552 22.633-50.552 50.552v336.849c0 10.166-8.241 18.407-18.408 18.407z" fill="url(#SVGID_1_)"/><path d="m408.895 168.706h82.696c10.167 0 18.408-8.242 18.408-18.408v-47.65c0-27.919-22.633-50.552-50.552-50.552-27.919 0-50.552 22.633-50.552 50.552z" fill="url(#SVGID_2_)"/><path d="m408.895 353.413v86.083c0 10.167-8.242 18.408-18.408 18.408h-372.079c-10.166.001-18.408-8.241-18.408-18.408v-86.083z" fill="url(#SVGID_3_)"/><path d="m213.295 296.354h-148.759c-2.962 0-5.363 2.401-5.363 5.363v11.619c0 2.962 2.401 5.363 5.363 5.363h148.76c2.962 0 5.363-2.401 5.363-5.363v-11.619c-.001-2.962-2.402-5.363-5.364-5.363z" fill="url(#SVGID_4_)"/><path d="m213.295 231.444h-148.759c-2.962 0-5.363 2.401-5.363 5.363v11.619c0 2.962 2.401 5.363 5.363 5.363h148.76c2.962 0 5.363-2.401 5.363-5.363v-11.619c-.001-2.962-2.402-5.363-5.364-5.363z" fill="url(#SVGID_5_)"/><path d="m299.374 166.534h-234.838c-2.962 0-5.363 2.401-5.363 5.363v11.619c0 2.962 2.401 5.363 5.363 5.363h234.838c2.962 0 5.363-2.401 5.363-5.363v-11.619c0-2.962-2.401-5.363-5.363-5.363z" fill="url(#SVGID_6_)"/><path d="m408.896 223.565-3.337 3.337-48.081-48.081c-6.44-6.44-14.9-9.67-23.34-9.67-3.69 0-7.38.61-10.9 1.84-4.55 1.59-8.81 4.2-12.45 7.83-12.89 12.9-12.89 33.8 0 46.69l48.08 48.083-48.068 48.066c-6.45 6.45-9.68 14.9-9.68 23.35 0 3.69.62 7.39 1.85 10.91v.01c1.59 4.54 4.2 8.8 7.83 12.43l87.738 87.671c6.126-2.989 10.357-9.26 10.357-16.535v-215.931z" fill="url(#SVGID_7_)"/><path d="m452.25 273.593 48.08-48.083c12.89-12.89 12.89-33.79 0-46.69-3.64-3.63-7.9-6.24-12.45-7.83-3.52-1.23-7.21-1.84-10.9-1.84-8.44 0-16.9 3.23-23.34 9.67l-48.081 48.081-48.081-48.081c-6.44-6.44-14.9-9.67-23.34-9.67-3.69 0-7.38.61-10.9 1.84-4.55 1.59-8.81 4.2-12.45 7.83-12.89 12.9-12.89 33.8 0 46.69l48.08 48.083-48.068 48.067c-6.45 6.45-9.68 14.9-9.68 23.35 0 3.69.62 7.39 1.85 10.91v.01c1.59 4.54 4.2 8.8 7.83 12.43 12.89 12.89 33.8 12.89 46.69 0l48.069-48.072 48.069 48.072c12.89 12.89 33.8 12.89 46.69 0 3.63-3.63 6.24-7.89 7.83-12.43 0 0 0 0 0-.01 1.23-3.52 1.85-7.22 1.85-10.91 0-8.45-3.23-16.9-9.68-23.35z" fill="url(#SVGID_8_)"/></svg>