<?xml version="1.0" encoding="UTF-8"?>

<svg xmlns="http://www.w3.org/2000/svg" xmlns:xlink="http://www.w3.org/1999/xlink" width="330" height="300" viewBox="0 0 805 360">
  <defs>
    <clipPath id="clip-path">
      <circle id="Ellipse_2" data-name="Ellipse 2" cx="9.64" cy="9.64" r="9.64" transform="translate(0 18.76) rotate(-76.654)" fill="none"></circle>
    </clipPath>
    <clipPath id="clip-path-2">
      <circle id="Ellipse_4" data-name="Ellipse 4" cx="14.67" cy="14.67" r="14.67" fill="none"></circle>
    </clipPath>
    <clipPath id="clip-path-3">
      <circle id="Ellipse_6" data-name="Ellipse 6" cx="10.898" cy="10.898" r="10.898" transform="translate(0 21.511) rotate(-80.747)" fill="none"></circle>
    </clipPath>
    <clipPath id="clip-path-4">
      <circle id="Ellipse_8" data-name="Ellipse 8" cx="7.125" cy="7.125" r="7.125" fill="none"></circle>
    </clipPath>
    <clipPath id="clip-path-5">
      <path id="Path_26" data-name="Path 26" d="M348.817,266.792c-7.213-17.621-15.422-20.92-15.422-20.92s.256-.345.67-.961a18.013,18.013,0,0,1,8.057,7.146.221.221,0,0,0,.381-.222,18.5,18.5,0,0,0-8.188-7.3c.176-.269.372-.574.582-.912a30.42,30.42,0,0,1,7.33,2.629c.254.125.477-.256.223-.381a31.2,31.2,0,0,0-7.309-2.644c4.465-7.34,14.061-27.56-14.037-29.874a16.123,16.123,0,0,1,6.594-3.969c.265-.094.151-.521-.117-.425a16.829,16.829,0,0,0-6.608,3.892,22.637,22.637,0,0,1,1.152-3.623c.106-.263-.32-.377-.425-.117a22.15,22.15,0,0,0-1.227,3.972c-.438-.412-1.439-1.324-2.872-2.463a22.821,22.821,0,0,0-2.565-3.158c-4.789-4.938-11.512-6.591-18.223-5.939a.224.224,0,0,0-.2.163,17.912,17.912,0,0,0-11.955,4.321c-4.7,3.93-5.374,9.956-4.174,15.75.072.92.239,1.812.335,2.4a33.591,33.591,0,0,0,4.911,12.146c-2.873.485-8.056,2.217-6.978,8.387,1.476,8.445,8.424,19.089.191,20.2s-12.2,19.962,16.954,37.566,56.874.936,45.373-13.01C341.275,289.444,356.031,284.413,348.817,266.792Zm-67.249-41.164a31.361,31.361,0,0,0,5.972,10.488,12.176,12.176,0,0,0-1.331.116A35.424,35.424,0,0,1,281.568,225.628ZM314.9,207.95c.508.537,1,1.113,1.473,1.718-4.06-3.045-10.512-7.012-17.406-7.832C304.912,201.706,310.682,203.5,314.9,207.95Z" transform="translate(-272.961 -201.386)" fill="#4375f1"></path>
    </clipPath>
    <clipPath id="clip-path-6">
      <path id="Path_29" data-name="Path 29" d="M294.028,268.985l-2.644-4.7s-7.669.758-10.456,4.009-20.465,35.6-20.465,35.6-7.657,3.636-13.959,6.735a10.431,10.431,0,0,1,4.4,6.264c5.531-2,12.768-5.047,15.383-6.922,0,0,17.068-13.067,18.926-21.892S294.028,268.985,294.028,268.985Z" transform="translate(-246.503 -264.285)" fill="#e2b187"></path>
    </clipPath>
    <clipPath id="clip-path-7">
      <path id="Path_33" data-name="Path 33" d="M304.3,249.721s1.394,5.109-4.645,11.148l-3.251,6.038,6.968,7.9,6.968,2.323L325.2,259.94l-6.5-4.18-1.858-19.045Z" transform="translate(-296.4 -236.714)" fill="#edba8f"></path>
    </clipPath>
    <clipPath id="clip-path-8">
      <path id="Path_36" data-name="Path 36" d="M300.214,260.424s2.759,7.9,16.694-2.316c0,0,8.685,4.634,11.064,6.086,5.287,3.231,6.41,2.691,7.8,7.8L323.411,312.92l4.18,16.258-44.609.075,3.959-18.074a14.789,14.789,0,0,0-4.584-12.032c-6.376-6.166,2.176-16.372,8.9-34.952C291.811,262.659,300.214,260.424,300.214,260.424Z" transform="translate(-280.112 -258.108)" fill="#dc466f"></path>
    </clipPath>
    <clipPath id="clip-path-9">
      <path id="Path_42" data-name="Path 42" d="M306.735,211.823s-12.924,9.694-11.222,24.605c.778,6.815,2.318,8.947,5.054,10.935,3.231,2.35,14,.887,16.81-4.537l1.485-4.4s2.635,2.36,5.292-1.156,2.09-9.1-1.739-6.47l2.377-7.042-2.328-6.178Z" transform="translate(-295.358 -211.823)" fill="#edba8f"></path>
    </clipPath>
    <clipPath id="clip-path-10">
      <path id="Path_55" data-name="Path 55" d="M156.921,260.259l1.723,50.308a5.794,5.794,0,0,0,5.791,5.6h72.347a5.794,5.794,0,0,0,5.79-5.992l-1.723-50.309a5.794,5.794,0,0,0-5.791-5.595H162.71A5.794,5.794,0,0,0,156.921,260.259Z" transform="translate(-156.917 -254.267)" fill="#838bc0"></path>
    </clipPath>
    <clipPath id="clip-path-11">
      <circle id="Ellipse_14" data-name="Ellipse 14" cx="61.122" cy="61.122" r="61.122" transform="translate(0 122.186) rotate(-88.237)" fill="#819fde"></circle>
    </clipPath>
    <clipPath id="clip-path-12">
      <path id="Path_61" data-name="Path 61" d="M130.574,154.538l-.6,14.153,13.084,8.677a.854.854,0,0,0,1.3-.559l2.157-11.507-12.757-15.548Z" transform="translate(-129.976 -149.753)" fill="#e7b59d"></path>
    </clipPath>
    <clipPath id="clip-path-13">
      <path id="Path_75" data-name="Path 75" d="M293.445,96.471H402.791a3.459,3.459,0,0,1,3.459,3.458v27.587a3.46,3.46,0,0,1-1.522,2.866L387.241,142.2a1.164,1.164,0,0,1-1.765-1.3l3.5-11.542H293.445a3.459,3.459,0,0,1-3.458-3.458V99.929A3.459,3.459,0,0,1,293.445,96.471Z" transform="translate(-289.987 -96.471)" fill="#9f71ac"></path>
    </clipPath>
    <clipPath id="clip-path-14">
      <path id="Path_82" data-name="Path 82" d="M363.58,139.74H244.614a3.762,3.762,0,0,0-3.763,3.763v30.013a3.763,3.763,0,0,0,1.656,3.118l19.026,12.856a1.267,1.267,0,0,0,1.921-1.417l-3.8-12.557H363.58a3.762,3.762,0,0,0,3.763-3.763V143.5A3.762,3.762,0,0,0,363.58,139.74Z" transform="translate(-240.851 -139.74)" fill="#e6b851"></path>
    </clipPath>
    <clipPath id="clip-path-15">
      <circle id="Ellipse_16" data-name="Ellipse 16" cx="50.716" cy="50.716" r="50.716" transform="translate(0 71.723) rotate(-45)" fill="none"></circle>
    </clipPath>
    <clipPath id="clip-path-16">
      <path id="Path_87" data-name="Path 87" d="M380.414,380.731c-3.848,8.83-10.641,16.075-15.848,9.056-3.881-5.232-.844-12.352.954-15.638a68.5,68.5,0,0,1,10.95-2.475h5.165s3.061,0,6.882.244A18.477,18.477,0,0,0,380.414,380.731Z" transform="translate(-362.683 -371.674)" fill="#e7b59d"></path>
    </clipPath>
    <clipPath id="clip-path-17">
      <path id="Path_92" data-name="Path 92" d="M378.491,329.123s-3.622-5.207-12.452-1.131-19.924,24-6.113,41.659c0,0,2.943-4.3,13.585-5.434S378.491,329.123,378.491,329.123Z" transform="translate(-353.407 -326.434)" fill="#a072ae"></path>
    </clipPath>
    <clipPath id="clip-path-18">
      <path id="Path_95" data-name="Path 95" d="M383.348,356.42l.554,13.1-12.109,8.031a.791.791,0,0,1-1.206-.518l-2-10.648L380.4,351.993Z" transform="translate(-368.591 -351.993)" fill="#e7b59d"></path>
    </clipPath>
    <clipPath id="clip-path-19">
      <path id="Path_98" data-name="Path 98" d="M357.417,353.672a61.149,61.149,0,0,1,2.572-11.273c.1-.486,1.2-5.546,3.312-6.6,2.214-1.107,11.437,1.845,11.437,2.952,0,.88.469,7.115,3.624,9.823a5.006,5.006,0,0,0,3.017,1.244,6.369,6.369,0,0,1,4.8,2.72,63.616,63.616,0,0,1-6.648.232c-2.872,16.3-13.561,14.478-16.683,14.032C359.681,366.35,356.961,360.059,357.417,353.672Z" transform="translate(-357.367 -335.556)" fill="#e7b59d"></path>
    </clipPath>
    <clipPath id="clip-contactus">
      <rect width="805" height="360"></rect>
    </clipPath>
  </defs>
  <g id="contactus" clip-path="url(#clip-contactus)">
    <g id="OBJECTS" transform="translate(216.681 -38.135)">
      <g id="Group_32" data-name="Group 32" transform="translate(36.94 25.028)">
        <g id="Group_1" data-name="Group 1" transform="translate(56.034 56.033)">
          <path id="Path_1" data-name="Path 1" d="M236.608,361.419a136.723,136.723,0,1,1,96.679-40.045A135.829,135.829,0,0,1,236.608,361.419Zm0-273.065a136.341,136.341,0,1,0,96.408,39.934A135.445,135.445,0,0,0,236.608,88.354Z" transform="translate(-99.885 -87.972)" fill="#becbfc"></path>
        </g>
        <g id="Group_2" data-name="Group 2" transform="translate(39.758 39.757)">
          <path id="Path_2" data-name="Path 2" d="M234.6,375.688a152.512,152.512,0,1,1,59.555-12.023A152.044,152.044,0,0,1,234.6,375.688Zm0-305.573a152.1,152.1,0,1,0,59.389,11.99A151.62,151.62,0,0,0,234.6,70.115Z" transform="translate(-81.601 -69.688)" fill="#becbfc"></path>
        </g>
        <g id="Group_3" data-name="Group 3" transform="translate(84.655 84.654)">
          <path id="Path_3" data-name="Path 3" d="M240.138,336.327a107.769,107.769,0,1,1,42.078-8.5A107.431,107.431,0,0,1,240.138,336.327Zm0-215.9A107.458,107.458,0,1,0,282.1,128.9,107.129,107.129,0,0,0,240.138,120.425Z" transform="translate(-132.035 -120.122)" fill="#becbfc"></path>
        </g>
        <g id="Group_4" data-name="Group 4" transform="translate(20.525 20.524)" opacity="0.38">
          <path id="Path_4" data-name="Path 4" d="M232.229,392.548a171.693,171.693,0,1,1,67.041-13.535A171.156,171.156,0,0,1,232.229,392.548Zm0-343.983a171.21,171.21,0,1,0,66.853,13.5A170.683,170.683,0,0,0,232.229,48.565Z" transform="translate(-59.996 -48.083)" fill="#becbfc"></path>
        </g>
        <g id="Group_5" data-name="Group 5" opacity="0.18">
          <path id="Path_5" data-name="Path 5" d="M229.7,410.542a192.808,192.808,0,0,1-75.03-370.366,192.807,192.807,0,0,1,150.06,355.218A191.558,191.558,0,0,1,229.7,410.542Zm0-384.975A192.268,192.268,0,0,0,154.878,394.9,192.268,192.268,0,0,0,304.518,40.672,191.024,191.024,0,0,0,229.7,25.567Z" transform="translate(-36.94 -25.028)" fill="#becbfc"></path>
        </g>
        <g id="Group_6" data-name="Group 6" transform="translate(14.794 14.794)">
          <path id="Path_6" data-name="Path 6" d="M231.522,397.573A178.01,178.01,0,0,1,162.251,55.631,178.009,178.009,0,0,1,300.794,383.586,176.841,176.841,0,0,1,231.522,397.573Zm0-355.429a177.512,177.512,0,0,0-69.078,340.984A177.511,177.511,0,0,0,300.6,56.09,176.356,176.356,0,0,0,231.522,42.144Z" transform="translate(-53.559 -41.646)" fill="#becbfc"></path>
        </g>
        <g id="Group_12" data-name="Group 12" transform="translate(169.836 44.513)">
          <g id="Group_11" data-name="Group 11" transform="translate(0 0)" clip-path="url(#clip-path)">
            <g id="Group_7" data-name="Group 7" transform="translate(-4.018 -4.018)" opacity="0.8">
              <circle id="Ellipse_1" data-name="Ellipse 1" cx="13.026" cy="13.026" r="13.026" transform="matrix(0.225, -0.974, 0.974, 0.225, 0, 25.383)" fill="#becbfc"></circle>
            </g>
            <g id="Group_10" data-name="Group 10" transform="translate(3.914 4.318)">
              <g id="Group_8" data-name="Group 8" transform="translate(7.576 20.187)">
                <path id="Path_7" data-name="Path 7" d="M240.744,102.569l-.058-.011-.057.011Z" transform="translate(-240.629 -102.558)" fill="#4375fa"></path>
              </g>
              <g id="Group_9" data-name="Group 9">
                <path id="Path_8" data-name="Path 8" d="M247.383,96.177c-.115-2.468-1.606-4.074-2.639-3.96a20.611,20.611,0,0,1-3.442-.23,2.834,2.834,0,0,1-.153-1.39,5.746,5.746,0,0,0,2.144-4.258,1.045,1.045,0,0,0,.64-.764c.153-.507.039-.99-.255-1.078a.405.405,0,0,0-.334.061c.016-2.652-.073-4.678-3.531-4.678-3.267,0-3.509,2-3.524,4.624a.4.4,0,0,0-.3-.1c-.3.037-.5.492-.438,1.018s.362.921.668.885a.339.339,0,0,0,.11-.033,5.92,5.92,0,0,0,2.02,4.237,2.933,2.933,0,0,1-.143,1.479,20.617,20.617,0,0,1-3.443.23c-1.033-.115-2.525,1.492-2.639,3.96-.109,2.344,6.928,3.756,7.632,3.891C240.456,99.933,247.493,98.521,247.383,96.177Z" transform="translate(-232.119 -79.881)" fill="#819fde"></path>
              </g>
            </g>
          </g>
        </g>
        <g id="Group_18" data-name="Group 18" transform="translate(92.165 305.085)">
          <g id="Group_17" data-name="Group 17" clip-path="url(#clip-path-2)">
            <g id="Group_13" data-name="Group 13" transform="translate(-5.152 -5.152)" opacity="0.8">
              <circle id="Ellipse_3" data-name="Ellipse 3" cx="19.822" cy="19.822" r="19.822" fill="#becbfc"></circle>
            </g>
            <g id="Group_16" data-name="Group 16" transform="translate(2.967 3.58)">
              <g id="Group_14" data-name="Group 14" transform="translate(11.528 30.72)">
                <path id="Path_9" data-name="Path 9" d="M156.928,406.287l-.087-.017-.087.017Z" transform="translate(-156.754 -406.27)" fill="#4375fa"></path>
              </g>
              <g id="Group_15" data-name="Group 15">
                <path id="Path_10" data-name="Path 10" d="M167.033,396.56c-.174-3.755-2.445-6.2-4.017-6.025a31.4,31.4,0,0,1-5.24-.35,4.322,4.322,0,0,1-.232-2.114c1.7-1.1,2.962-3.536,3.263-6.481a1.589,1.589,0,0,0,.974-1.162c.233-.771.059-1.505-.389-1.641a.618.618,0,0,0-.508.092c.024-4.035-.11-7.119-5.372-7.119-4.973,0-5.341,3.042-5.364,7.036a.61.61,0,0,0-.457-.156c-.465.056-.763.75-.667,1.55s.55,1.4,1.015,1.347a.526.526,0,0,0,.167-.05c.271,2.874,1.455,5.276,3.073,6.447a4.464,4.464,0,0,1-.217,2.25,31.4,31.4,0,0,1-5.24.35c-1.571-.175-3.842,2.27-4.017,6.025-.166,3.567,10.543,5.715,11.614,5.921C156.491,402.276,167.2,400.128,167.033,396.56Z" transform="translate(-143.804 -371.761)" fill="#819fde"></path>
              </g>
            </g>
          </g>
        </g>
        <g id="Group_24" data-name="Group 24" transform="translate(329.043 144.622)">
          <g id="Group_23" data-name="Group 23" transform="translate(0 0)" clip-path="url(#clip-path-3)">
            <g id="Group_19" data-name="Group 19" transform="translate(-4.6 -4.6)" opacity="0.8">
              <circle id="Ellipse_5" data-name="Ellipse 5" cx="14.725" cy="14.725" r="14.725" transform="matrix(0.178, -0.984, 0.984, 0.178, 0, 28.98)" fill="#becbfc"></circle>
            </g>
            <g id="Group_22" data-name="Group 22" transform="translate(3.815 4.27)">
              <g id="Group_20" data-name="Group 20" transform="translate(8.563 22.821)">
                <path id="Path_11" data-name="Path 11" d="M420.6,217.93l-.065-.012-.065.012Z" transform="translate(-420.469 -217.918)" fill="#4375fa"></path>
              </g>
              <g id="Group_21" data-name="Group 21">
                <path id="Path_12" data-name="Path 12" d="M428.1,210.705c-.13-2.79-1.816-4.606-2.984-4.476a23.314,23.314,0,0,1-3.892-.259,3.214,3.214,0,0,1-.173-1.571,6.5,6.5,0,0,0,2.423-4.814,1.178,1.178,0,0,0,.724-.863c.174-.573.044-1.119-.288-1.22a.466.466,0,0,0-.378.069c.018-3-.082-5.288-3.99-5.288-3.694,0-3.968,2.259-3.984,5.226a.456.456,0,0,0-.34-.116c-.344.042-.566.557-.495,1.151s.409,1.042.754,1a.374.374,0,0,0,.124-.037,6.693,6.693,0,0,0,2.283,4.789,3.318,3.318,0,0,1-.162,1.672,23.305,23.305,0,0,1-3.892.259c-1.167-.13-2.854,1.686-2.983,4.476-.124,2.649,7.831,4.245,8.627,4.4C420.274,214.95,428.228,213.354,428.1,210.705Z" transform="translate(-410.849 -192.283)" fill="#819fde"></path>
              </g>
            </g>
          </g>
        </g>
        <g id="Group_25" data-name="Group 25" transform="translate(45.64 243.472)">
          <path id="Path_13" data-name="Path 13" d="M97.43,303.138a4.61,4.61,0,1,1-4.61-4.61A4.61,4.61,0,0,1,97.43,303.138Z" transform="translate(-88.209 -298.528)" fill="#819fde"></path>
        </g>
        <g id="Group_26" data-name="Group 26" transform="translate(341.132 199.463)">
          <path id="Path_14" data-name="Path 14" d="M429.365,253.7a4.61,4.61,0,1,1-4.61-4.61A4.611,4.611,0,0,1,429.365,253.7Z" transform="translate(-420.144 -249.091)" fill="#819fde"></path>
        </g>
        <g id="Group_27" data-name="Group 27" transform="translate(232.212 43.18)">
          <path id="Path_15" data-name="Path 15" d="M302.918,78.208a2.878,2.878,0,1,1-.452-4.045A2.878,2.878,0,0,1,302.918,78.208Z" transform="translate(-297.791 -73.534)" fill="#819fde"></path>
        </g>
        <g id="Group_28" data-name="Group 28" transform="translate(216.704 323.582)">
          <path id="Path_16" data-name="Path 16" d="M286.085,390.909a2.878,2.878,0,1,1-3.324-2.349A2.878,2.878,0,0,1,286.085,390.909Z" transform="translate(-280.37 -388.518)" fill="#819fde"></path>
        </g>
        <g id="Group_29" data-name="Group 29" transform="translate(165.569 365.915)">
          <path id="Path_17" data-name="Path 17" d="M228.644,438.463a2.878,2.878,0,1,1-3.324-2.349A2.879,2.879,0,0,1,228.644,438.463Z" transform="translate(-222.929 -436.072)" fill="#819fde"></path>
        </g>
        <g id="Group_30" data-name="Group 30" transform="translate(364.659 222.99)">
          <path id="Path_18" data-name="Path 18" d="M452.288,277.91a2.878,2.878,0,1,1-3.324-2.349A2.879,2.879,0,0,1,452.288,277.91Z" transform="translate(-446.573 -275.519)" fill="#819fde"></path>
        </g>
        <g id="Group_31" data-name="Group 31" transform="translate(74.197 53.239)">
          <path id="Path_19" data-name="Path 19" d="M126,87.225a2.878,2.878,0,1,1-3.324-2.35A2.878,2.878,0,0,1,126,87.225Z" transform="translate(-120.288 -84.833)" fill="#819fde"></path>
        </g>
      </g>
      <g id="Group_38" data-name="Group 38" transform="translate(45.696 184.254)">
        <g id="Group_37" data-name="Group 37" transform="translate(0)" clip-path="url(#clip-path-4)">
          <g id="Group_33" data-name="Group 33" transform="translate(-2.502 -2.502)" opacity="0.8">
            <circle id="Ellipse_7" data-name="Ellipse 7" cx="9.628" cy="9.628" r="9.628" fill="#becbfc"></circle>
          </g>
          <g id="Group_36" data-name="Group 36" transform="translate(1.441 1.739)">
            <g id="Group_34" data-name="Group 34" transform="translate(5.599 14.922)">
              <path id="Path_20" data-name="Path 20" d="M54.77,222.614l-.042-.008-.043.008Z" transform="translate(-54.685 -222.606)" fill="#4375fa"></path>
            </g>
            <g id="Group_35" data-name="Group 35">
              <path id="Path_21" data-name="Path 21" d="M59.678,217.889c-.085-1.824-1.188-3.012-1.95-2.926a15.267,15.267,0,0,1-2.545-.17,2.09,2.09,0,0,1-.113-1.027,4.247,4.247,0,0,0,1.585-3.147.771.771,0,0,0,.473-.564c.114-.375.029-.732-.189-.8a.3.3,0,0,0-.247.045c.012-1.959-.054-3.458-2.609-3.458-2.415,0-2.594,1.478-2.606,3.418a.292.292,0,0,0-.222-.075c-.226.027-.371.363-.324.752s.268.681.493.654a.238.238,0,0,0,.081-.025A4.374,4.374,0,0,0,53,213.7a2.168,2.168,0,0,1-.106,1.093,15.263,15.263,0,0,1-2.544.17c-.764-.085-1.867,1.1-1.951,2.926-.08,1.732,5.12,2.776,5.641,2.876C54.557,220.665,59.759,219.622,59.678,217.889Z" transform="translate(-48.395 -205.844)" fill="#819fde"></path>
            </g>
          </g>
        </g>
      </g>
      <path id="Path_22" data-name="Path 22" d="M364.85,230.4a124.6,124.6,0,1,0-220.862,79.11H336.515A124.084,124.084,0,0,0,364.85,230.4Z" transform="translate(-8.642 -8.868)" fill="#becbfc" opacity="0.8"></path>
      <g id="Group_53" data-name="Group 53" transform="translate(127.976 182.023)">
        <g id="Group_40" data-name="Group 40" transform="translate(119.073)">
          <path id="Path_23" data-name="Path 23" d="M348.817,266.792c-7.213-17.621-15.422-20.92-15.422-20.92s.256-.345.67-.961a18.013,18.013,0,0,1,8.057,7.146.221.221,0,0,0,.381-.222,18.5,18.5,0,0,0-8.188-7.3c.176-.269.372-.574.582-.912a30.42,30.42,0,0,1,7.33,2.629c.254.125.477-.256.223-.381a31.2,31.2,0,0,0-7.309-2.644c4.465-7.34,14.061-27.56-14.037-29.874a16.123,16.123,0,0,1,6.594-3.969c.265-.094.151-.521-.117-.425a16.829,16.829,0,0,0-6.608,3.892,22.637,22.637,0,0,1,1.152-3.623c.106-.263-.32-.377-.425-.117a22.15,22.15,0,0,0-1.227,3.972c-.438-.412-1.439-1.324-2.872-2.463a22.821,22.821,0,0,0-2.565-3.158c-4.789-4.938-11.512-6.591-18.223-5.939a.224.224,0,0,0-.2.163,17.912,17.912,0,0,0-11.955,4.321c-4.7,3.93-5.374,9.956-4.174,15.75.072.92.239,1.812.335,2.4a33.591,33.591,0,0,0,4.911,12.146c-2.873.485-8.056,2.217-6.978,8.387,1.476,8.445,8.424,19.089.191,20.2s-12.2,19.962,16.954,37.566,56.874.936,45.373-13.01C341.275,289.444,356.031,284.413,348.817,266.792Zm-67.249-41.164a31.361,31.361,0,0,0,5.972,10.488,12.176,12.176,0,0,0-1.331.116A35.424,35.424,0,0,1,281.568,225.628ZM314.9,207.95c.508.537,1,1.113,1.473,1.718-4.06-3.045-10.512-7.012-17.406-7.832C304.912,201.706,310.682,203.5,314.9,207.95Z" transform="translate(-272.961 -201.386)" fill="#4375f1"></path>
          <g id="Group_39" data-name="Group 39" clip-path="url(#clip-path-5)">
            <path id="Path_24" data-name="Path 24" d="M320.69,238.309s-3.18,1.618-3.892,3.073.758,10.561.758,10.561l18.5,14.686s4.993,38.185-7.343,48.465-57.864-36.128-57.864-36.128l12.924-16.448L295.82,258.7l2.056-8.811s-12.92-6.117-2.5-27.144h0l25.309,15.566" transform="translate(-272.73 -202.705)" fill="#507cc7" opacity="0.4"></path>
            <path id="Path_25" data-name="Path 25" d="M299.752,219.919l-6.462-1.167s2.349,3.525,8.811,2.056-2.349-.889-2.349-.889" transform="translate(-275.193 -203.292)" fill="#4375f1" opacity="0.5"></path>
          </g>
        </g>
        <g id="Group_42" data-name="Group 42" transform="translate(95.52 55.994)">
          <path id="Path_27" data-name="Path 27" d="M294.028,268.985l-2.644-4.7s-7.669.758-10.456,4.009-20.465,35.6-20.465,35.6-7.657,3.636-13.959,6.735a10.431,10.431,0,0,1,4.4,6.264c5.531-2,12.768-5.047,15.383-6.922,0,0,17.068-13.067,18.926-21.892S294.028,268.985,294.028,268.985Z" transform="translate(-246.503 -264.285)" fill="#e2b187"></path>
          <g id="Group_41" data-name="Group 41" clip-path="url(#clip-path-6)">
            <path id="Path_28" data-name="Path 28" d="M280.8,303.118s-7.05-5.581,3.818-19.973c9.906-13.12,8.225,4.112,8.225,4.112l-7.235,15.758Z" transform="translate(-250.022 -265.815)" fill="#e2b187" opacity="0.31"></path>
          </g>
        </g>
        <path id="Path_30" data-name="Path 30" d="M242.2,316.342c-7.874,3.873-16.845,8.287-17.361,8.545-.929.465-8.362-1.858-9.29-1.393s-6.038,3.252-7.9,3.716,4.645,1.394,7.432,0,3.716,1.394,6.038,1.859,3.717.928,5.11,0c0,0,10.718-2.973,20.372-6.462A10.431,10.431,0,0,0,242.2,316.342Z" transform="translate(-146.682 -214.007)" fill="#e2b187"></path>
        <g id="Group_44" data-name="Group 44" transform="translate(139.938 31.45)">
          <path id="Path_31" data-name="Path 31" d="M304.3,249.721s1.394,5.109-4.645,11.148l-3.251,6.038,6.968,7.9,6.968,2.323L325.2,259.94l-6.5-4.18-1.858-19.045Z" transform="translate(-296.4 -236.714)" fill="#edba8f"></path>
          <g id="Group_43" data-name="Group 43" clip-path="url(#clip-path-7)">
            <path id="Path_32" data-name="Path 32" d="M304.165,253.689s12.924-.588,13.218-8.518S302.7,250.457,304.165,253.689Z" transform="translate(-297.241 -237.368)" fill="#af703f" opacity="0.28"></path>
          </g>
        </g>
        <g id="Group_46" data-name="Group 46" transform="translate(125.439 50.495)">
          <path id="Path_34" data-name="Path 34" d="M300.214,260.424s2.759,7.9,16.694-2.316c0,0,8.685,4.634,11.064,6.086,5.287,3.231,6.41,2.691,7.8,7.8L323.411,312.92l4.18,16.258-44.609.075,3.959-18.074a14.789,14.789,0,0,0-4.584-12.032c-6.376-6.166,2.176-16.372,8.9-34.952C291.811,262.659,300.214,260.424,300.214,260.424Z" transform="translate(-280.112 -258.108)" fill="#dc466f"></path>
          <g id="Group_45" data-name="Group 45" clip-path="url(#clip-path-8)">
            <path id="Path_35" data-name="Path 35" d="M322.568,282.1s-7.93,10.28-7.049,29.96c0,0-24.463,8.421-34.848,7.882s1.363,7.1,1.363,7.1,29.372,2.234,42.884-7.107-2.35-37.832-2.35-37.832" transform="translate(-279.703 -260.742)" fill="#a172ae" opacity="0.31"></path>
          </g>
        </g>
        <path id="Path_37" data-name="Path 37" d="M280.427,324.612l-11.5-4.892-4.8-3.6a1.526,1.526,0,0,0-1.058-.3l-5.535.5a1.211,1.211,0,0,0-.617.239c-.969.735-4.11,3.161-3.322,3.161a8.819,8.819,0,0,0,4.181-1.394s4.18,0,4.645-.465a17.655,17.655,0,0,0,2.786,2.323c.929.465.465,0,.465,0l-6.219,1.891a1.47,1.47,0,0,0-.788.576c-.783,1.136-2.923,4.213-3.677,4.966,0,0,2.323.929,4.18-1.858s6.968-2.787,7.432-2.323c0,0-6.5,3.716-8.362,7.432,0,0,.879,2.283,2.323.464a15.887,15.887,0,0,1,7.9-5.109l-2.647,3.024a.911.911,0,0,0,.093,1.29l2.554,2.189s.465-1.858-.465-2.787l2.323-2.323s2.564,5.108,10.107,2.089Z" transform="translate(-151.748 -213.949)" fill="#edba8f"></path>
        <path id="Path_38" data-name="Path 38" d="M303.919,321.593c-9.915,2.07-21.053,3.776-21.053,3.776l.2,4.959a147.556,147.556,0,0,0,24.787-1.359A9.355,9.355,0,0,0,303.919,321.593Z" transform="translate(-154.976 -214.583)" fill="#edba8f"></path>
        <path id="Path_39" data-name="Path 39" d="M336.745,268.866c-6-2.6-11.077,11.708-11.077,11.708-6.5,13.471-4.933,31.17-4.933,31.17-2.16,1.26-7.945,2.715-14.219,4.025a9.355,9.355,0,0,1,3.934,7.376c13.383-1.983,19.112-5.363,19.112-5.363C335.135,309.421,342.748,271.469,336.745,268.866Z" transform="translate(-157.572 -208.76)" fill="#edba8f"></path>
        <g id="Group_48" data-name="Group 48" transform="translate(139.011 9.291)">
          <path id="Path_40" data-name="Path 40" d="M306.735,211.823s-12.924,9.694-11.222,24.605c.778,6.815,2.318,8.947,5.054,10.935,3.231,2.35,14,.887,16.81-4.537l1.485-4.4s2.635,2.36,5.292-1.156,2.09-9.1-1.739-6.47l2.377-7.042-2.328-6.178Z" transform="translate(-295.358 -211.823)" fill="#edba8f"></path>
          <g id="Group_47" data-name="Group 47" clip-path="url(#clip-path-9)">
            <path id="Path_41" data-name="Path 41" d="M297.642,219.425s4.855,1.987,9.262-6.531c0,0,1.174,13.805,10.28,13.512l-2.644-2.35s1.047,9.693,7.132,6.168-12.419-22.029-12.419-22.029L296.9,212.6l.742,6.825" transform="translate(-295.528 -211.425)" fill="#af703f" opacity="0.28"></path>
          </g>
        </g>
        <path id="Path_43" data-name="Path 43" d="M324.152,218.1l-9.4-4.7-13.218-3.231s-16.155,5.581-8.811,8.811c6.443,2.835,11.981-3.6,13.242-5.221a12.5,12.5,0,0,0,1.894,7.827,11.869,11.869,0,0,0,7.445,4.639c-.161,4.562,5.323,5.386,5.323,5.386l2.35-1.763,4.7-1.468ZM308.1,221.426a10.951,10.951,0,0,1-1.776-4.919c1.431,5.442,9.013,9.234,9.013,9.234-.008.066-.01.128-.015.193A11.56,11.56,0,0,1,308.1,221.426Z" transform="translate(-155.848 -202.351)" fill="#4375f1"></path>
        <path id="Path_44" data-name="Path 44" d="M318.366,208.323s3.524-1.6,7.05,5.449c0,0,4.406,10.28,0,19.68h-.881S326.3,216.093,318.366,208.323Z" transform="translate(-158.873 -202.13)" fill="#43464a"></path>
        <circle id="Ellipse_9" data-name="Ellipse 9" cx="4.112" cy="4.112" r="4.112" transform="translate(162.43 28.09)" fill="#c22373"></circle>
        <path id="Path_45" data-name="Path 45" d="M309.61,233.531c-.236.945-.682,1.646-1,1.568s-.379-.908-.143-1.853.682-1.646,1-1.568S309.845,232.586,309.61,233.531Z" transform="translate(-157.771 -204.711)" fill="#43464a"></path>
        <path id="Path_46" data-name="Path 46" d="M300.729,231.781c-.079.97-.406,1.735-.729,1.708s-.521-.834-.442-1.8.406-1.734.729-1.708S300.81,230.811,300.729,231.781Z" transform="translate(-156.807 -204.525)" fill="#43464a"></path>
        <path id="Path_47" data-name="Path 47" d="M299.889,245.091a10.411,10.411,0,0,0,9.693-2.714s0,5.04-6.978,5.816C302.6,248.193,301.44,248.193,299.889,245.091Z" transform="translate(-156.845 -205.886)" fill="#fff"></path>
        <path id="Path_48" data-name="Path 48" d="M299.011,226.689a1.9,1.9,0,0,1,.386-.742,1.82,1.82,0,0,1,.712-.515,1.5,1.5,0,0,1,.883-.142,1.617,1.617,0,0,1,.415.155,1.409,1.409,0,0,1,.344.288l-.02.056a1.856,1.856,0,0,1-.419.062c-.13.022-.253.02-.37.03a2.777,2.777,0,0,1-.345,0,1.247,1.247,0,0,0-.345.007,1.716,1.716,0,0,0-.652.28,1.962,1.962,0,0,0-.531.545Z" transform="translate(-156.748 -204.008)" fill="#4375f1"></path>
        <path id="Path_49" data-name="Path 49" d="M311.977,226.689a1.9,1.9,0,0,0-.385-.742,1.826,1.826,0,0,0-.712-.515,1.5,1.5,0,0,0-.883-.142,1.618,1.618,0,0,0-.415.155,1.409,1.409,0,0,0-.344.288l.02.056a1.842,1.842,0,0,0,.419.062c.13.022.253.02.37.03a2.76,2.76,0,0,0,.344,0,1.253,1.253,0,0,1,.346.007,1.713,1.713,0,0,1,.651.28,1.952,1.952,0,0,1,.532.545Z" transform="translate(-157.871 -204.008)" fill="#4375f1"></path>
        <path id="Path_50" data-name="Path 50" d="M302.206,240.527s-4.017-1.545-3.09-2.163a16.515,16.515,0,0,0,3.116-4.644.2.2,0,0,1,.378.062A19.8,19.8,0,0,1,302.206,240.527Z" transform="translate(-156.745 -204.923)" fill="#e79d90"></path>
        <g id="Group_50" data-name="Group 50" transform="translate(147.156 30.44)">
          <circle id="Ellipse_10" data-name="Ellipse 10" cx="1.762" cy="1.762" r="1.762" transform="translate(17.623)" fill="#43464a"></circle>
          <g id="Group_49" data-name="Group 49" transform="translate(2.35 2.643)">
            <path id="Path_51" data-name="Path 51" d="M320.429,246.186H307.148v-.68h12.929c.532-1.025,3.291-6.354,3.561-6.957l.546.3c-.305.682-3.53,6.9-3.667,7.163Z" transform="translate(-307.148 -238.549)" fill="#43464a"></path>
          </g>
          <ellipse id="Ellipse_11" data-name="Ellipse 11" cx="1.762" cy="0.734" rx="1.762" ry="0.734" transform="translate(0 9.105)" fill="#43464a"></ellipse>
        </g>
        <path id="Path_52" data-name="Path 52" d="M344.223,338.532H141.847a2.643,2.643,0,0,1-2.644-2.643h0a2.644,2.644,0,0,1,2.644-2.644H344.223a2.644,2.644,0,0,1,2.644,2.644h0A2.643,2.643,0,0,1,344.223,338.532Z" transform="translate(-139.203 -215.863)" fill="#cbcfd6"></path>
        <g id="Group_52" data-name="Group 52" transform="translate(15.769 47.075)">
          <path id="Path_53" data-name="Path 53" d="M156.921,260.259l1.723,50.308a5.794,5.794,0,0,0,5.791,5.6h72.347a5.794,5.794,0,0,0,5.79-5.992l-1.723-50.309a5.794,5.794,0,0,0-5.791-5.595H162.71A5.794,5.794,0,0,0,156.921,260.259Z" transform="translate(-156.917 -254.267)" fill="#838bc0"></path>
          <g id="Group_51" data-name="Group 51" clip-path="url(#clip-path-10)">
            <path id="Path_54" data-name="Path 54" d="M207.328,297.521s-5.581,21.736,0,27.9-30.841-2.35-30.841-2.35,4.994-17.917,18.8-25.554h0l6.462,4.113,5.581-4.113" transform="translate(-159.066 -258.643)" fill="#838bc0" opacity="0.61"></path>
          </g>
        </g>
        <path id="Path_56" data-name="Path 56" d="M195.688,297.94h12.043s-18.211,29.372-1.909,31.429H180.709S175.715,317.62,195.688,297.94Z" transform="translate(-143.699 -211.986)" fill="#838bc0"></path>
        <path id="Path_57" data-name="Path 57" d="M201.454,274.764a5.293,5.293,0,0,1,.247-1.6c-.082,0-.165-.006-.247-.006a6.2,6.2,0,1,0,6.172,6.816,5.281,5.281,0,0,1-6.172-5.208Z" transform="translate(-145.357 -209.265)" fill="#fff"></path>
      </g>
      <g id="Group_60" data-name="Group 60" transform="translate(65.16 86.841)">
        <circle id="Ellipse_12" data-name="Ellipse 12" cx="61.122" cy="61.122" r="61.122" transform="translate(0 122.186) rotate(-88.237)" fill="#819fde"></circle>
        <g id="Group_59" data-name="Group 59" transform="translate(0 0)" clip-path="url(#clip-path-11)">
          <circle id="Ellipse_13" data-name="Ellipse 13" cx="74.464" cy="74.464" r="74.464" transform="translate(-42.334 62.973) rotate(-45)" fill="#cdbdf9"></circle>
          <g id="Group_58" data-name="Group 58" transform="translate(26.314 15.661)">
            <path id="Path_58" data-name="Path 58" d="M128.48,171.026s-15.946,0-21.528,2.791-8.372,9.966-7.176,14.751-5.183,16.744,1.6,23.122c6.085,5.729,10.886,5.026,12.957,4.246a6.338,6.338,0,0,0,.6-.259c1.594-.8,0,21.129,0,21.129s40.265,2.392,42.657,0,3.19-52.625-2.392-58.206-21.129-7.575-21.129-7.575Z" transform="translate(-98.2 -118.53)" fill="#6daaa3"></path>
            <g id="Group_55" data-name="Group 55" transform="translate(28.288 33.558)">
              <path id="Path_59" data-name="Path 59" d="M130.574,154.538l-.6,14.153,13.084,8.677a.854.854,0,0,0,1.3-.559l2.157-11.507-12.757-15.548Z" transform="translate(-129.976 -149.753)" fill="#e7b59d"></path>
              <g id="Group_54" data-name="Group 54" clip-path="url(#clip-path-12)">
                <path id="Path_60" data-name="Path 60" d="M129.43,164.081s1.994,1.594,3.588,0c0,0,9.169,15.548,17.143,12.758s-8.372-15.548-8.372-15.548l-8.351-6.313-4.8,3.523Z" transform="translate(-129.829 -150.327)" fill="#e7b59d" opacity="0.45"></path>
              </g>
            </g>
            <path id="Path_62" data-name="Path 62" d="M129.76,145.216c6.378-.4,7.176-10.764,7.176-11.96s9.967-4.386,12.359-3.19c2.276,1.138,2.88,8.445,2.989,8.97,3.5-2.121,6.577-9.691,4.983-14.153-1.993-5.582-4.385-3.588-5.98-2.392s-1.6-4.385-9.967-9.169,1.2,5.581-8.77,4.784-10.764,9.169-10.764,9.169c-5.183,0-8.77,4.385-4.784,8.771s.8,4.784,0,8.77c-.416,2.08,3.614,2.965,7.567,3.337A6.877,6.877,0,0,1,129.76,145.216Z" transform="translate(-100.077 -112.056)" fill="#2e5271"></path>
            <path id="Path_63" data-name="Path 63" d="M142.311,153.385c7.334,3.189,14.154-.507,16.592-2.114-1.771-2.809-3.3-5.626-3.435-8.25a20.415,20.415,0,0,0-.507-3.572l.1-.061c-.11-.526-1.3-5.994-3.579-7.131-2.392-1.2-12.359,1.993-12.359,3.19,0,.95-.507,7.688-3.916,10.616A13.625,13.625,0,0,0,142.311,153.385Z" transform="translate(-102.263 -114.245)" fill="#e7b59d"></path>
            <path id="Path_64" data-name="Path 64" d="M157.86,153.006c-2.437,1.608-9.257,5.3-16.592,2.114a13.625,13.625,0,0,1-7.1-7.324,5.415,5.415,0,0,1-3.26,1.344,6.877,6.877,0,0,0-5.191,2.939,68.768,68.768,0,0,0,7.184.25c1.993,22.724,25.913,21.13,29.9,15.15C165.4,163.571,161.2,158.3,157.86,153.006Z" transform="translate(-101.22 -115.98)" fill="#2e5271"></path>
            <rect id="Rectangle_2" data-name="Rectangle 2" width="18.339" height="9.417" transform="translate(35.198 41.11) rotate(-176.82)" fill="#61002f"></rect>
            <path id="Path_65" data-name="Path 65" d="M116.317,162.937s0-12.359,1.993-13.954,6.778-7.574,9.17-5.98,1.2,2.392,2.791,3.19.8,1.993,1.993,2.79,2.791,3.987,1.993,3.987h-3.588s-5.581,10.366-7.973,9.967l-.4,1.594h-5.98Z" transform="translate(-100.189 -115.424)" fill="#e7b59d"></path>
            <path id="Path_66" data-name="Path 66" d="M121.057,166.553s.8,39.468-2.791,41.86-13.156-.4-11.162-8.372,9.169-37.076,9.169-37.076Z" transform="translate(-99.148 -117.645)" fill="#e7b59d"></path>
            <path id="Path_67" data-name="Path 67" d="M143.411,158.934s6.975,2.092,10.161,1.385a.326.326,0,0,1,.377.43,18.128,18.128,0,0,0-.97,3.368C152.979,164.914,145.8,163.718,143.411,158.934Z" transform="translate(-103.163 -117.203)" fill="#effdff"></path>
            <path id="Path_68" data-name="Path 68" d="M152.167,145.5s9.312,5.6,6.788,8.011-4.479,2.03-4.479,2.03S151.219,146.921,152.167,145.5Z" transform="translate(-104.106 -115.728)" fill="#e19f9d"></path>
            <path id="Path_69" data-name="Path 69" d="M143.41,147.46a2.263,2.263,0,0,1,.4-1.442,1.909,1.909,0,0,1,1.423-.8,2.6,2.6,0,0,1,1.514.418,5.407,5.407,0,0,1,.581.462,5.172,5.172,0,0,1,.467.569,5.947,5.947,0,0,1-.679-.239c-.214-.087-.435-.141-.637-.225a3.442,3.442,0,0,0-1.189-.191,1.731,1.731,0,0,0-1.012.424A5.236,5.236,0,0,0,143.41,147.46Z" transform="translate(-103.163 -115.696)" fill="#9a6253"></path>
            <path id="Path_70" data-name="Path 70" d="M157.536,143.277a1.821,1.821,0,0,0-.79-.916,1.542,1.542,0,0,0-1.317-.1,2.1,2.1,0,0,0-.962.828,4.313,4.313,0,0,0-.265.539,3.957,3.957,0,0,0-.146.576,4.862,4.862,0,0,0,.414-.408c.126-.137.27-.254.388-.385a2.8,2.8,0,0,1,.8-.549,1.4,1.4,0,0,1,.886-.039A4.239,4.239,0,0,1,157.536,143.277Z" transform="translate(-104.332 -115.361)" fill="#9a6253"></path>
            <g id="Group_56" data-name="Group 56" transform="translate(36.973 24.227)">
              <path id="Path_71" data-name="Path 71" d="M140.925,143.72a4.354,4.354,0,0,1,.755-1.82c1.022-1.439,2.685-1.619,4.313-1.291.755.152.919-1.033.166-1.185a5.17,5.17,0,0,0-5.233,1.493,5.549,5.549,0,0,0-1.187,2.637.6.6,0,0,0,1.185.166Z" transform="translate(-139.733 -139.271)" fill="#2e5271"></path>
            </g>
            <g id="Group_57" data-name="Group 57" transform="translate(47.615 22.119)">
              <path id="Path_72" data-name="Path 72" d="M152.46,138.5a3.557,3.557,0,0,1,1.5-.582,3.246,3.246,0,0,1,3.2,1.82c.337.532,1.13-.04.794-.571a4.225,4.225,0,0,0-3.839-2.25,4.533,4.533,0,0,0-2.229.789.489.489,0,0,0,.571.794Z" transform="translate(-151.688 -136.903)" fill="#2e5271"></path>
            </g>
          </g>
        </g>
      </g>
      <g id="Group_63" data-name="Group 63" transform="translate(262.205 88.627)">
        <g id="Group_62" data-name="Group 62">
          <path id="Path_73" data-name="Path 73" d="M293.445,96.471H402.791a3.459,3.459,0,0,1,3.459,3.458v27.587a3.46,3.46,0,0,1-1.522,2.866L387.241,142.2a1.164,1.164,0,0,1-1.765-1.3l3.5-11.542H293.445a3.459,3.459,0,0,1-3.458-3.458V99.929A3.459,3.459,0,0,1,293.445,96.471Z" transform="translate(-289.987 -96.471)" fill="#9f71ac"></path>
          <g id="Group_61" data-name="Group 61" clip-path="url(#clip-path-13)">
            <path id="Path_74" data-name="Path 74" d="M394.831,136.624l3.875-3.23h11.3l-14.533,8.074Z" transform="translate(-301.498 -100.525)" fill="#606060" opacity="0.22"></path>
          </g>
        </g>
        <path id="Path_76" data-name="Path 76" d="M304.647,106h91.405a1.468,1.468,0,0,0,1.468-1.468h0a1.468,1.468,0,0,0-1.468-1.468H304.647a1.468,1.468,0,0,0-1.468,1.468h0A1.468,1.468,0,0,0,304.647,106Z" transform="translate(-291.435 -97.195)" fill="#fff"></path>
        <path id="Path_77" data-name="Path 77" d="M304.647,114.358h91.405a1.468,1.468,0,0,0,1.468-1.468h0a1.468,1.468,0,0,0-1.468-1.468H304.647a1.468,1.468,0,0,0-1.468,1.468h0A1.468,1.468,0,0,0,304.647,114.358Z" transform="translate(-291.435 -98.112)" fill="#fff"></path>
        <rect id="Rectangle_3" data-name="Rectangle 3" width="47.171" height="2.936" rx="1.166" transform="translate(106.085 23.683) rotate(180)" fill="#fff"></rect>
      </g>
      <g id="Group_64" data-name="Group 64" transform="translate(219.011 361.469)">
        <path id="Path_78" data-name="Path 78" d="M242.97,402.962h22.767a1.5,1.5,0,0,1,1.5,1.5v12a1.506,1.506,0,0,1-.662,1.247l-7.606,5.139a.507.507,0,0,1-.768-.567l1.521-5.02H242.97a1.5,1.5,0,0,1-1.5-1.5V404.466A1.5,1.5,0,0,1,242.97,402.962Z" transform="translate(-241.466 -402.962)" fill="#819fde"></path>
      </g>
      <g id="Group_65" data-name="Group 65" transform="translate(381.636 138.613)">
        <path id="Path_79" data-name="Path 79" d="M425.065,152.622h13.882a.917.917,0,0,1,.917.917v7.317a.918.918,0,0,1-.4.76l-4.637,3.134a.309.309,0,0,1-.468-.345l.928-3.061H425.065a.918.918,0,0,1-.918-.917v-6.887A.918.918,0,0,1,425.065,152.622Z" transform="translate(-424.147 -152.622)" fill="#819fde"></path>
      </g>
      <g id="Group_68" data-name="Group 68" transform="translate(218.464 127.146)">
        <g id="Group_67" data-name="Group 67">
          <path id="Path_80" data-name="Path 80" d="M363.58,139.74H244.614a3.762,3.762,0,0,0-3.763,3.763v30.013a3.763,3.763,0,0,0,1.656,3.118l19.026,12.856a1.267,1.267,0,0,0,1.921-1.417l-3.8-12.557H363.58a3.762,3.762,0,0,0,3.763-3.763V143.5A3.762,3.762,0,0,0,363.58,139.74Z" transform="translate(-240.851 -139.74)" fill="#e6b851"></path>
          <g id="Group_66" data-name="Group 66" clip-path="url(#clip-path-14)">
            <path id="Path_81" data-name="Path 81" d="M266.838,183.425l-4.216-3.514h-12.3l15.811,8.784Z" transform="translate(-241.891 -144.15)" fill="#e6b851" opacity="0.22"></path>
          </g>
        </g>
        <path id="Path_83" data-name="Path 83" d="M354.335,150.11H254.887a1.6,1.6,0,0,1-1.6-1.6h0a1.6,1.6,0,0,1,1.6-1.6h99.448a1.6,1.6,0,0,1,1.6,1.6h0A1.6,1.6,0,0,1,354.335,150.11Z" transform="translate(-242.217 -140.528)" fill="#fff"></path>
        <path id="Path_84" data-name="Path 84" d="M354.335,159.2H254.887a1.6,1.6,0,0,1-1.6-1.6h0a1.6,1.6,0,0,1,1.6-1.6h99.448a1.6,1.6,0,0,1,1.6,1.6h0A1.6,1.6,0,0,1,354.335,159.2Z" transform="translate(-242.217 -141.526)" fill="#fff"></path>
        <rect id="Rectangle_4" data-name="Rectangle 4" width="51.321" height="3.194" rx="1.269" transform="translate(11.073 22.572)" fill="#fff"></rect>
      </g>
      <g id="Group_81" data-name="Group 81" transform="translate(268.627 265.516)">
        <g id="Group_80" data-name="Group 80" transform="translate(0 0)" clip-path="url(#clip-path-15)">
          <circle id="Ellipse_15" data-name="Ellipse 15" cx="62.715" cy="62.715" r="62.715" transform="translate(-16.97 71.723) rotate(-45)" fill="#7cbfb9"></circle>
          <g id="Group_79" data-name="Group 79" transform="translate(48.624 27.826)">
            <g id="Group_70" data-name="Group 70" transform="translate(9.669 40.273)">
              <path id="Path_85" data-name="Path 85" d="M380.414,380.731c-3.848,8.83-10.641,16.075-15.848,9.056-3.881-5.232-.844-12.352.954-15.638a68.5,68.5,0,0,1,10.95-2.475h5.165s3.061,0,6.882.244A18.477,18.477,0,0,0,380.414,380.731Z" transform="translate(-362.683 -371.674)" fill="#e7b59d"></path>
              <g id="Group_69" data-name="Group 69" clip-path="url(#clip-path-16)">
                <path id="Path_86" data-name="Path 86" d="M370.6,371.674c0,.453-.227,7.471-.227,7.471l-4.3-7.245Z" transform="translate(-363.055 -371.674)" fill="#e7b59d" opacity="0.45"></path>
              </g>
            </g>
            <path id="Path_88" data-name="Path 88" d="M355.724,378.715c1.966-1.967,5.267-3.45,8.6-4.536-1.8,3.287-4.836,10.407-.954,15.638,5.208,7.018,12-.226,15.848-9.056a18.477,18.477,0,0,1,8.1-8.813c4.569.292,10.227.933,13.04,2.339,5.165,2.582,7.747,9.223,6.641,13.65s4.8,15.5-1.476,21.4c-5.632,5.3-10.074,4.651-11.99,3.929a5.918,5.918,0,0,1-.554-.239c-1.475-.738,0,19.553,0,19.553s-37.262,2.214-39.476,0S350.559,383.88,355.724,378.715Z" transform="translate(-351.822 -331.431)" fill="#f9ca45"></path>
            <g id="Group_72" data-name="Group 72" transform="translate(1.411)">
              <path id="Path_89" data-name="Path 89" d="M378.491,329.123s-3.622-5.207-12.452-1.131-19.924,24-6.113,41.659c0,0,2.943-4.3,13.585-5.434S378.491,329.123,378.491,329.123Z" transform="translate(-353.407 -326.434)" fill="#a072ae"></path>
              <g id="Group_71" data-name="Group 71" clip-path="url(#clip-path-17)">
                <path id="Path_90" data-name="Path 90" d="M382.418,327.309l-9.736,3.849,6.792-4.755Z" transform="translate(-355.524 -326.43)" fill="#a072ae" opacity="0.52"></path>
                <path id="Path_91" data-name="Path 91" d="M359.051,346.356s-8.972,22.765,6.876,23.218-6.876-23.218-6.876-23.218" transform="translate(-353.749 -328.621)" fill="#a072ae" opacity="0.52"></path>
              </g>
            </g>
            <g id="Group_74" data-name="Group 74" transform="translate(14.928 22.753)">
              <path id="Path_93" data-name="Path 93" d="M383.348,356.42l.554,13.1-12.109,8.031a.791.791,0,0,1-1.206-.518l-2-10.648L380.4,351.993Z" transform="translate(-368.591 -351.993)" fill="#e7b59d"></path>
              <g id="Group_73" data-name="Group 73" clip-path="url(#clip-path-18)">
                <path id="Path_94" data-name="Path 94" d="M383.584,365.252s-2.185-1.883-3.66-3.359c0,0-3.849,11.095-15.4,9.736-7.764-.913,7.619-8.96,7.619-8.96l7.728-5.842,4.447,3.26Z" transform="translate(-367.905 -352.524)" fill="#e7b59d" opacity="0.45"></path>
              </g>
            </g>
            <g id="Group_76" data-name="Group 76" transform="translate(4.936 8.121)">
              <path id="Path_96" data-name="Path 96" d="M357.417,353.672a61.149,61.149,0,0,1,2.572-11.273c.1-.486,1.2-5.546,3.312-6.6,2.214-1.107,11.437,1.845,11.437,2.952,0,.88.469,7.115,3.624,9.823a5.006,5.006,0,0,0,3.017,1.244,6.369,6.369,0,0,1,4.8,2.72,63.616,63.616,0,0,1-6.648.232c-2.872,16.3-13.561,14.478-16.683,14.032C359.681,366.35,356.961,360.059,357.417,353.672Z" transform="translate(-357.367 -335.556)" fill="#e7b59d"></path>
              <g id="Group_75" data-name="Group 75" clip-path="url(#clip-path-19)">
                <path id="Path_97" data-name="Path 97" d="M368.613,334.542c.679,0,.79,14.323,14.093,16.671s-4.81-13.728-4.81-13.728Z" transform="translate(-358.601 -335.444)" fill="#e7b59d" opacity="0.45"></path>
              </g>
            </g>
            <path id="Path_99" data-name="Path 99" d="M372.031,362.593s-5.626,1.688-8.2,1.117a.263.263,0,0,0-.3.346,14.612,14.612,0,0,1,.782,2.717C364.313,367.417,370.1,366.452,372.031,362.593Z" transform="translate(-353.105 -330.404)" fill="#effdff"></path>
            <path id="Path_100" data-name="Path 100" d="M372.645,353.338a1.821,1.821,0,0,0-.324-1.164,1.539,1.539,0,0,0-1.147-.648,2.091,2.091,0,0,0-1.221.337,4.4,4.4,0,0,0-.469.373,4.2,4.2,0,0,0-.377.458,4.924,4.924,0,0,0,.547-.192c.173-.07.351-.114.515-.182a2.754,2.754,0,0,1,.959-.154,1.4,1.4,0,0,1,.816.342A4.235,4.235,0,0,1,372.645,353.338Z" transform="translate(-353.719 -329.188)" fill="#9a6253"></path>
            <path id="Path_101" data-name="Path 101" d="M361.341,349.964a1.477,1.477,0,0,1,.637-.739,1.246,1.246,0,0,1,1.062-.079,1.7,1.7,0,0,1,.777.668,3.5,3.5,0,0,1,.214.434,3.174,3.174,0,0,1,.118.465,3.9,3.9,0,0,1-.334-.328c-.1-.11-.217-.2-.313-.311a2.249,2.249,0,0,0-.648-.443,1.126,1.126,0,0,0-.715-.031A3.374,3.374,0,0,0,361.341,349.964Z" transform="translate(-352.867 -328.918)" fill="#9a6253"></path>
            <path id="Path_102" data-name="Path 102" d="M367.552,335.336s3.849,13.358,14.83,14.49-8.943-16.3-8.943-16.3H362.345l-3.4,8.378S365.514,339.864,367.552,335.336Z" transform="translate(-352.604 -327.212)" fill="#a072ae"></path>
            <path id="Path_103" data-name="Path 103" d="M368.591,332.941c.247,0,10.887-5.886,15.416-4.528s14.716,15.622,13.358,29.886-20.6,12.226-20.6,12.226,9.962-12.905.905-27.622l-6.791-6.339Z" transform="translate(-353.663 -326.629)" fill="#a072ae"></path>
            <rect id="Rectangle_5" data-name="Rectangle 5" width="16.971" height="8.714" transform="translate(24.074 30.924) rotate(-54.781)" fill="#61002f"></rect>
            <path id="Path_104" data-name="Path 104" d="M396.135,364.223s0-9.905-1.6-11.183-5.432-6.071-7.349-4.793-.959,1.917-2.236,2.556-.639,1.6-1.6,2.237-2.236,3.195-1.6,3.195h2.876s4.472,8.307,6.39,7.988l.32,1.278h4.793Z" transform="translate(-355.089 -328.805)" fill="#e7b59d"></path>
            <path id="Path_105" data-name="Path 105" d="M391.757,364.044s-.147,40,3.173,42.214,12.175-.369,10.33-7.747-8.485-34.31-8.485-34.31Z" transform="translate(-356.206 -330.563)" fill="#e7b59d"></path>
            <path id="Path_106" data-name="Path 106" d="M365.565,358.912l-2.038-1.131a28.078,28.078,0,0,0,2.167-3.261.189.189,0,0,1,.357.084A14.4,14.4,0,0,1,365.565,358.912Z" transform="translate(-353.107 -329.506)" fill="#e2a29d"></path>
            <g id="Group_77" data-name="Group 77" transform="translate(16.926 18.633)">
              <path id="Path_107" data-name="Path 107" d="M374.248,350.9a4.831,4.831,0,0,0-3.293-3.2.17.17,0,0,1,.091-.328,5.177,5.177,0,0,1,3.53,3.438c.065.209-.263.3-.328.09Z" transform="translate(-370.835 -347.365)" fill="#a072ae"></path>
            </g>
            <g id="Group_78" data-name="Group 78" transform="translate(7.937 16.802)">
              <path id="Path_108" data-name="Path 108" d="M364.641,345.621a4.146,4.146,0,0,0-3.644,1.5.146.146,0,0,1-.227-.183,4.439,4.439,0,0,1,3.912-1.6c.187.02.145.309-.041.288Z" transform="translate(-360.738 -345.308)" fill="#a072ae"></path>
            </g>
            <path id="Path_109" data-name="Path 109" d="M367.976,333.524l-.006.484c0,.175,0,.35.008.524.01.349.035.7.068,1.042a17.047,17.047,0,0,0,.329,2.051,16.582,16.582,0,0,0,1.4,3.877,16.381,16.381,0,0,0,2.307,3.371,18.236,18.236,0,0,0,3.03,2.688,18.118,18.118,0,0,1-2.812-2.869,15.613,15.613,0,0,1-3.088-7.225,16.243,16.243,0,0,1-.174-1.956c-.007-.326-.008-.653.005-.977q.009-.243.027-.486l.043-.525Z" transform="translate(-353.595 -327.212)" fill="#a072ae"></path>
          </g>
        </g>
      </g>
    </g>
  </g>
</svg>
