<svg height="512" viewBox="0 0 64 64" width="512" xmlns="http://www.w3.org/2000/svg"><g id="Flat"><g id="Color_copy" data-name="Color copy"><g><g><path d="m12 25h40v28h-40z" fill="#57b7eb"/><path d="m18 34v-9h-6v28h40v-7h-22a12 12 0 0 1 -12-12z" fill="#4891d3"/><path d="m25 25a3 3 0 0 0 3 3h18a3 3 0 0 1 3 3v10a3 3 0 0 0 3 3v-19z" fill="#aae1f9"/><path d="m7 53h50a0 0 0 0 1 0 0v4a4 4 0 0 1 -4 4h-42a4 4 0 0 1 -4-4v-4a0 0 0 0 1 0 0z" fill="#d0d8da"/><path d="m25 53h14v4h-14z" fill="#656b76"/><path d="m13 58a3 3 0 0 1 -3-3v-2h-3v4a4 4 0 0 0 4 4h42a3.992 3.992 0 0 0 3.859-3z" fill="#93999a"/></g><g><path d="m25 49-4-7-8 1 14-24.249 10.392 6z" fill="#fcbc04"/><path d="m27 40.743a3.01 3.01 0 0 0 -2.988-1.494 3.01 3.01 0 0 1 -2.98-4.493l8.423-14.59-2.455-1.415-14 24.249 8-1 4 7 3.17-6.2z" fill="#e59730"/><path d="m39 49 4-7 8 1-14-24.249-10.392 6z" fill="#fcbc04"/><path d="m45.12 37.265a3.2 3.2 0 0 0 -3.18 1.59 3.205 3.205 0 0 1 -5.637-.132l-7.722-15.111-1.973 1.139 12.392 24.249 4-7 8 1-3.111-5.389z" fill="#e59730"/><path d="m37 18.751-5 2.887-5-2.887-7.527 13.038 2.511.227-.484 4.706 6.2-1.406 2.488 3.532 1.812-3.545.971 1.899 1.329-1.886 7.2 2.406.516-5.706 2.412-.399z" fill="#e59730"/><path d="m32 3 3.3 4.684 5.2-2.406.516 5.706 5.706.516-2.406 5.2 4.684 3.3-4.684 3.3 2.406 5.2-5.706.516-.516 5.706-5.2-2.406-3.3 4.684-3.3-4.684-5.2 2.406-.516-5.706-5.706-.516 2.406-5.2-4.684-3.3 4.684-3.3-2.406-5.2 5.706-.516.516-5.706 5.2 2.406z" fill="#f9e109"/><path d="m57.196 18.764 1.175 2.382 2.629.382-1.902 1.854.449 2.618-2.351-1.236-2.351 1.236.449-2.618-1.902-1.854 2.628-.382z" fill="#f9e109"/><path d="m24.274 5.636-.774-.358-.516 5.706-5.706.516 2.406 5.2-4.684 3.3 4.684 3.3-2.406 5.2 5.706.516.516 5.706 5.2-2.406 3.3 4.684 3.3-4.684 5.2 2.406.516-5.706 5.706-.516-1.216-2.629a24.013 24.013 0 0 1 -21.232-20.235z" fill="#fcbc04"/><circle cx="32" cy="20" fill="#f8664f" r="9"/><path d="m32 29a8.986 8.986 0 0 0 7.76-4.458 24.063 24.063 0 0 1 -13.173-11.72 8.992 8.992 0 0 0 5.413 16.178z" fill="#cc5144"/><path d="m32 15 1.462 2.963 3.27.475-2.366 2.306.558 3.256-2.924-1.537-2.924 1.537.558-3.256-2.366-2.306 3.27-.475z" fill="#f9e109"/><path d="m30.163 18.017-2.895.421 2.366 2.306-.558 3.256 2.924-1.537 2.924 1.537-.37-2.156a24.1 24.1 0 0 1 -4.391-3.827z" fill="#fcbc04"/><path d="m55.539 21.216-2.147.312 1.9 1.854-.447 2.618 2.355-1.236 2.347 1.236-.357-2.082a4.981 4.981 0 0 1 -3.651-2.702z" fill="#fcbc04"/><path d="m52.196 4.764 1.175 2.382 2.629.382-1.902 1.854.449 2.618-2.351-1.236-2.351 1.236.449-2.618-1.902-1.854 2.628-.382z" fill="#f9e109"/><path d="m50.539 7.216-2.147.312 1.9 1.854-.447 2.618 2.355-1.236 2.347 1.236-.357-2.082a4.981 4.981 0 0 1 -3.651-2.702z" fill="#fcbc04"/><path d="m6.804 18.764 1.176 2.382 2.628.382-1.902 1.854.449 2.618-2.351-1.236-2.351 1.236.449-2.618-1.902-1.854 2.629-.382z" fill="#f9e109"/><path d="m5.148 21.216-2.148.312 1.9 1.854-.447 2.618 2.347-1.236 2.355 1.236-.355-2.082a4.979 4.979 0 0 1 -3.652-2.702z" fill="#fcbc04"/><path d="m11.804 4.764 1.176 2.382 2.628.382-1.902 1.854.449 2.618-2.351-1.236-2.351 1.236.449-2.618-1.902-1.854 2.629-.382z" fill="#f9e109"/><path d="m10.148 7.216-2.148.312 1.9 1.854-.447 2.618 2.347-1.236 2.355 1.236-.355-2.082a4.979 4.979 0 0 1 -3.652-2.702z" fill="#fcbc04"/></g></g></g></g></svg>