<?xml version="1.0" encoding="iso-8859-1"?>
<!-- Generator: Adobe Illustrator 19.0.0, SVG Export Plug-In . SVG Version: 6.00 Build 0)  -->
<svg version="1.1" id="Capa_1" xmlns="http://www.w3.org/2000/svg" xmlns:xlink="http://www.w3.org/1999/xlink" x="0px" y="0px"
	 viewBox="0 0 512 512" style="enable-background:new 0 0 512 512" xml:space="preserve">
<g>
	<path style="fill:#F0C419" d="M450.207,4.414H344.276c-9.739,0.028-17.627,7.916-17.655,17.655V127.47
		c0.001-4.683-1.858-9.174-5.17-12.486s-7.803-5.171-12.486-5.17H203.034c-4.683-0.001-9.174,1.858-12.486,5.17
		c-3.311,3.311-5.171,7.803-5.17,12.486v85.539c-0.028-9.739-7.916-17.627-17.655-17.655H61.793
		c-9.739,0.028-17.627,7.916-17.655,17.655v241.611h423.724V22.069C467.834,12.33,459.946,4.442,450.207,4.414z"></path>
	<polygon style="fill:#F29C1F" points="185.379,269.241 185.379,454.621 44.138,454.621 44.138,410.483 	"></polygon>
	<polygon style="fill:#4C8056" points="326.621,269.241 326.621,454.621 185.379,454.621 185.379,410.483 	"></polygon>
	<path style="fill:#71C285" d="M326.621,127.47v141.771L185.379,410.483V127.47c-0.001-4.683,1.858-9.174,5.17-12.486
		c3.311-3.311,7.803-5.171,12.486-5.17h105.931c4.683-0.001,9.174,1.858,12.486,5.17S326.622,122.787,326.621,127.47z"></path>
	<polygon style="fill:#C03A2B" points="467.862,269.241 467.862,454.621 326.621,454.621 326.621,410.483 	"></polygon>
	<path style="fill:#E64C3C" d="M467.862,22.069v247.172L326.621,410.483V22.069c0.028-9.739,7.916-17.627,17.655-17.655h105.931
		C459.946,4.442,467.834,12.33,467.862,22.069z"></path>
	<path style="fill:#4482C3" d="M17.655,445.793h476.69c9.751,0,17.655,7.905,17.655,17.655v26.483
		c0,9.751-7.905,17.655-17.655,17.655H17.655C7.904,507.586,0,499.682,0,489.931v-26.483C0,453.698,7.904,445.793,17.655,445.793z"
		></path>
</g>
<g>
</g>
<g>
</g>
<g>
</g>
<g>
</g>
<g>
</g>
<g>
</g>
<g>
</g>
<g>
</g>
<g>
</g>
<g>
</g>
<g>
</g>
<g>
</g>
<g>
</g>
<g>
</g>
<g>
</g>
</svg>
