<?xml version="1.0" encoding="UTF-8"?>

<svg xmlns="http://www.w3.org/2000/svg" xml:space="preserve" width="1424px" height="760px" version="1.1" style="shape-rendering:geometricPrecision; text-rendering:geometricPrecision; image-rendering:optimizeQuality; fill-rule:evenodd; clip-rule:evenodd"
viewBox="0 0 1424 760"
 xmlns:xlink="http://www.w3.org/1999/xlink">
 <defs>
  <style type="text/css">
  
   </style>
   <clipPath id="id0" style="clip-rule:nonzero">
    <path d="M500 236c-3,0 -5,-3 -5,-7 0,-5 3,-12 7,-14l0 6c-2,1 -3,3 -3,5 0,2 1,3 2,3 1,0 1,0 2,0 1,-1 2,-2 3,-4l4 0c-1,4 -4,8 -7,10 -1,1 -2,1 -3,1zm6 -13c0,0 0,0 0,-1 0,-1 -1,-3 -2,-3 0,0 0,0 0,0l0 -6c1,0 1,0 2,0 3,0 5,3 5,7 0,1 0,2 0,3l-5 0 0 0z"></path>
   </clipPath>
   <clipPath id="id1">
    <path d="M501 229c-1,0 -2,-1 -2,-3 0,-2 1,-4 3,-5l0 -6c0,-1 0,-1 1,-1 0,0 1,0 1,-1l0 6c0,0 0,0 0,0 1,0 2,2 2,3 0,1 0,1 0,1l5 0c-1,0 -1,1 -1,2l-4 0c-1,2 -2,3 -3,4 -1,0 -1,0 -2,0l0 0z"></path>
   </clipPath>
   <linearGradient id="id2" gradientUnits="userSpaceOnUse" x1="712" y1="760.497" x2="712" y2="0.499276">
   <stop offset="0" style="stop-opacity:1; stop-color:#167EBC"></stop>
   <stop offset="1" style="stop-opacity:1; stop-color:#00456D"></stop>
  </linearGradient>
  <linearGradient id="id3" gradientUnits="userSpaceOnUse" x1="709.169" y1="760.499" x2="709.169" y2="0.499654">
   <stop offset="0" style="stop-opacity:1; stop-color:#6DBEED"></stop>
   <stop offset="1" style="stop-opacity:1; stop-color:#00A5FF"></stop>
  </linearGradient>
  <linearGradient id="id4" gradientUnits="userSpaceOnUse" x1="284.861" y1="548.736" x2="284.861" y2="504.159">
   <stop offset="0" style="stop-opacity:1; stop-color:#EAA821"></stop>
   <stop offset="0.0117647" style="stop-opacity:1; stop-color:#EAA821"></stop>
   <stop offset="1" style="stop-opacity:1; stop-color:#FFB950"></stop>
  </linearGradient>
  <linearGradient id="id5" gradientUnits="userSpaceOnUse" xlink:href="#id3" x1="712.002" y1="760.497" x2="712.002" y2="0.50041">
  </linearGradient>
  <linearGradient id="id6" gradientUnits="userSpaceOnUse" x1="712" y1="760.504" x2="712" y2="0.497008">
   <stop offset="0" style="stop-opacity:1; stop-color:#167EBC"></stop>
   <stop offset="1" style="stop-opacity:1; stop-color:#6DBEED"></stop>
  </linearGradient>
  <linearGradient id="id7" gradientUnits="userSpaceOnUse" x1="712.003" y1="760.497" x2="712.003" y2="0.50041">
   <stop offset="0" style="stop-opacity:1; stop-color:#EAA821"></stop>
   <stop offset="1" style="stop-opacity:1; stop-color:#927346"></stop>
  </linearGradient>
  <linearGradient id="id8" gradientUnits="userSpaceOnUse" xlink:href="#id7" x1="712.003" y1="760.497" x2="712.003" y2="0.50041">
  </linearGradient>
  <linearGradient id="id9" gradientUnits="userSpaceOnUse" x1="712" y1="760.499" x2="712" y2="0.499654">
   <stop offset="0" style="stop-opacity:1; stop-color:#00A5FF"></stop>
   <stop offset="1" style="stop-opacity:1; stop-color:#167EBC"></stop>
  </linearGradient>
  <linearGradient id="id10" gradientUnits="userSpaceOnUse" x1="711.999" y1="760.4" x2="711.999" y2="0.532536">
   <stop offset="0" style="stop-opacity:1; stop-color:#00456D"></stop>
   <stop offset="1" style="stop-opacity:1; stop-color:#167EBC"></stop>
  </linearGradient>
  <linearGradient id="id11" gradientUnits="userSpaceOnUse" x1="680.401" y1="466.417" x2="694.351" y2="466.417">
   <stop offset="0" style="stop-opacity:1; stop-color:#00A5FF"></stop>
   <stop offset="1" style="stop-opacity:1; stop-color:#00456D"></stop>
  </linearGradient>
  <linearGradient id="id12" gradientUnits="userSpaceOnUse" xlink:href="#id3" x1="712.001" y1="760.505" x2="712.001" y2="0.497008">
  </linearGradient>
  <linearGradient id="id13" gradientUnits="userSpaceOnUse" x1="712" y1="760.498" x2="712" y2="0.499654">
   <stop offset="0" style="stop-opacity:1; stop-color:#EAA821"></stop>
   <stop offset="1" style="stop-opacity:1; stop-color:#FFB950"></stop>
  </linearGradient>
  <linearGradient id="id14" gradientUnits="userSpaceOnUse" xlink:href="#id9" x1="711.995" y1="760.489" x2="711.995" y2="0.504189">
  </linearGradient>
  <linearGradient id="id15" gradientUnits="userSpaceOnUse" xlink:href="#id6" x1="711.999" y1="760.498" x2="711.999" y2="0.499654">
  </linearGradient>
  <linearGradient id="id16" gradientUnits="userSpaceOnUse" xlink:href="#id7" x1="712.002" y1="760.503" x2="712.002" y2="0.497764">
  </linearGradient>
 




 <linearGradient id="id17" gradientUnits="userSpaceOnUse" x1="712.003" y1="760.498" x2="712.003" y2="0.499654">
   <stop offset="0" style="stop-opacity:1; stop-color:#167EBC"></stop>
   <stop offset="1" style="stop-opacity:1; stop-color:#6DBEED"></stop>
  </linearGradient>
  <linearGradient id="id18" gradientUnits="userSpaceOnUse" xlink:href="#id9" x1="712.022" y1="760.502" x2="712.022" y2="0.497764">
  </linearGradient>
  <linearGradient id="id19" gradientUnits="userSpaceOnUse" x1="712.022" y1="760.5" x2="712.022" y2="0.49852">
   <stop offset="0" style="stop-opacity:1; stop-color:#00A5FF"></stop>
   <stop offset="1" style="stop-opacity:1; stop-color:#6DBEED"></stop>
  </linearGradient>
  <linearGradient id="id20" gradientUnits="userSpaceOnUse" x1="711.989" y1="760.454" x2="711.989" y2="0.517417">
   <stop offset="0" style="stop-opacity:1; stop-color:#00456D"></stop>
   <stop offset="1" style="stop-opacity:1; stop-color:#167EBC"></stop>
  </linearGradient>
  <linearGradient id="id21" gradientUnits="userSpaceOnUse" xlink:href="#id6" x1="712" y1="760.498" x2="712" y2="0.499654">
  </linearGradient>
  <linearGradient id="id22" gradientUnits="userSpaceOnUse" xlink:href="#id9" x1="712" y1="760.485" x2="712" y2="0.505323">
  </linearGradient>
  <linearGradient id="id23" gradientUnits="userSpaceOnUse" xlink:href="#id6" x1="712" y1="760.502" x2="712" y2="0.49852">
  </linearGradient>
  <linearGradient id="id24" gradientUnits="userSpaceOnUse" xlink:href="#id3" x1="712" y1="760.502" x2="712" y2="0.49852">
  </linearGradient>
  <linearGradient id="id25" gradientUnits="userSpaceOnUse" xlink:href="#id3" x1="712" y1="760.498" x2="712" y2="0.499654">
  </linearGradient>
  <linearGradient id="id26" gradientUnits="userSpaceOnUse" xlink:href="#id3" x1="712" y1="760.502" x2="712" y2="0.49852">
  </linearGradient>
  <linearGradient id="id27" gradientUnits="userSpaceOnUse" x1="712" y1="760.448" x2="712" y2="0.512504">
   <stop offset="0" style="stop-opacity:1; stop-color:#00456D"></stop>
   <stop offset="1" style="stop-opacity:1; stop-color:#EAA821"></stop>
  </linearGradient>
  <linearGradient id="id28" gradientUnits="userSpaceOnUse" xlink:href="#id3" x1="708.843" y1="760.472" x2="708.843" y2="0.514772">
  </linearGradient>
  <linearGradient id="id29" gradientUnits="userSpaceOnUse" xlink:href="#id3" x1="711.995" y1="760.503" x2="711.995" y2="0.497764">
  </linearGradient>
  <linearGradient id="id30" gradientUnits="userSpaceOnUse" xlink:href="#id27" x1="707.819" y1="760.5" x2="707.819" y2="0.49852">
  </linearGradient>
  <linearGradient id="id31" gradientUnits="userSpaceOnUse" x1="708.947" y1="760.502" x2="708.947" y2="0.497764">
   <stop offset="0" style="stop-opacity:1; stop-color:#FEF7F2"></stop>
   <stop offset="1" style="stop-opacity:1; stop-color:#6DBEED"></stop>
  </linearGradient>
  <linearGradient id="id32" gradientUnits="userSpaceOnUse" xlink:href="#id3" x1="711.999" y1="760.498" x2="711.999" y2="0.50041">
  </linearGradient>
  <linearGradient id="id33" gradientUnits="userSpaceOnUse" xlink:href="#id9" x1="712" y1="760.5" x2="712" y2="0.49852">
  </linearGradient>
  <linearGradient id="id34" gradientUnits="userSpaceOnUse" xlink:href="#id27" x1="684.822" y1="760.499" x2="684.822" y2="0.499654">
  </linearGradient>
  <linearGradient id="id35" gradientUnits="userSpaceOnUse" xlink:href="#id9" x1="712" y1="760.5" x2="712" y2="0.49852">
  </linearGradient>
  <linearGradient id="id36" gradientUnits="userSpaceOnUse" x1="434.651" y1="708.985" x2="606.031" y2="708.985">
   <stop offset="0" style="stop-opacity:1; stop-color:#00456D"></stop>
   <stop offset="1" style="stop-opacity:1; stop-color:#FFFFFF"></stop>
  </linearGradient>
  <radialGradient id="id37" gradientUnits="userSpaceOnUse" gradientTransform="matrix(-1.19616 -0.460403 0.460394 -1.19613 -47 789)" cx="51.4999" cy="348.5" r="28.117" fx="51.4999" fy="348.5">
   <stop offset="0" style="stop-opacity:1; stop-color:white"></stop>
   <stop offset="1" style="stop-opacity:1; stop-color:#CDE8F6"></stop>
  </radialGradient>
 </defs>
 <g id="Layer_x0020_1">
  <metadata id="CorelCorpID_0Corel-Layer"></metadata>
  <polygon class="fil0" points="126,516 147,519 161,489 139,487 "></polygon>
  <polygon class="fil0" points="253,558 202,558 202,533 253,533 "></polygon>
  <path class="fil1" d="M1219 450c-52,0 -87,-60 -133,-79 -15,-6 -31,-8 -46,-8 -15,0 -30,1 -44,3 -15,2 -30,4 -44,4 -6,0 -12,-1 -17,-1 -56,-6 -89,-55 -139,-75 -18,-7 -36,-10 -55,-10 -8,0 -16,1 -24,2 -28,3 -56,13 -85,13 -2,0 -4,0 -5,0 -32,-2 -57,-19 -84,-32 -3,-1 -6,-3 -9,-4l0 -7 -8 4c-3,-1 -7,-2 -10,-3l0 -8 -9 6c-10,-3 -19,-4 -30,-4 0,0 -1,0 -1,0 -52,1 -84,24 -134,32l0 -28 -67 -39 0 55c-7,-3 -14,-6 -21,-10l0 -49 -75 -43 0 87c-9,4 -16,9 -24,13 -17,11 -32,21 -54,21 -2,0 -4,0 -5,0 -41,-3 -71,-17 -96,-43l0 -166c14,-1 28,-2 43,0 2,0 4,0 6,0 14,2 57,9 99,13 30,3 60,4 80,0 73,-16 114,-67 131,-94l1065 0 0 392c-12,-2 -25,-3 -37,-3 -8,0 -15,0 -23,1 -22,3 -43,9 -62,20 -24,13 -43,34 -71,39 -4,1 -8,1 -12,1zm-659 -220c8,7 20,12 32,12 9,0 18,-3 25,-7 6,-4 12,-9 15,-16 0,0 0,0 0,0 0,0 0,0 0,0l0 0c2,-3 4,-7 5,-11 1,-4 1,-8 1,-11 0,-10 -2,-18 -7,-25l6 -5c1,4 3,6 7,6 1,0 3,0 5,-1 6,-4 12,-15 12,-24 0,-6 -3,-10 -7,-10 -1,0 -2,0 -4,0l0 -17 -2 1 0 17c-6,4 -12,15 -12,23 0,1 0,2 0,2l-6 6c-2,-2 -3,-4 -5,-6 -4,-4 -9,-7 -14,-9 0,0 0,0 0,0 -2,-1 -4,-2 -7,-2 -4,-2 -8,-2 -12,-2 -3,0 -5,0 -8,1 -13,2 -25,9 -32,22 -9,14 -8,29 -2,41l-39 8c0,-1 0,-2 0,-3 0,-4 -2,-7 -5,-7 -1,0 -1,0 -2,0l0 -13 31 -18 0 -100 -64 37 0 100 31 -18 0 14c-4,2 -7,9 -7,14 0,4 2,7 5,7 1,0 2,-1 3,-1 3,-2 6,-6 7,-10l41 -8c2,5 5,9 8,12 0,0 1,0 1,0 0,0 0,1 0,1l0 0zm57 5l0 0zm-312 -28c12,12 29,20 48,20 33,0 60,-22 68,-52 2,-5 2,-11 2,-17 0,0 0,-1 0,-2 0,-18 -8,-34 -20,-46 0,0 0,0 0,0 -6,-6 -13,-11 -21,-14 0,0 0,0 0,0 -3,-2 -6,-3 -10,-4 -6,-1 -12,-2 -19,-2 -4,0 -8,0 -12,1 -19,3 -37,14 -48,33 -19,32 -8,65 12,83 0,0 0,0 0,0zm116 -32l0 0zm2 -17l0 0zm143 -49c-2,0 -4,0 -6,1 -8,5 -15,17 -15,27 0,8 4,13 9,13 2,0 4,-1 6,-2 8,-4 14,-17 14,-27 0,-8 -3,-12 -8,-12zm100 -19l-35 20 0 22 35 -20 0 -22zm-82 146l0 0c0,0 0,0 0,0 0,0 0,0 0,0zm0 0c-2,0 -4,-1 -6,-3 2,2 4,3 6,3zm-6 -3l0 0zm-18 -3c0,0 0,0 0,0 0,0 0,0 0,0l0 0zm66 -9l0 0c0,0 0,0 0,0 0,0 0,0 0,0zm0 0l0 0 0 0c2,-1 3,-2 4,-2 -1,0 -2,1 -4,2zm4 -2c0,0 0,0 0,0 0,0 0,0 0,0zm1 0c0,0 0,0 0,0 0,0 0,0 0,0zm0 0l0 0zm-7 -1c0,0 0,0 0,0 0,0 0,0 0,0zm0 0c-1,-1 -3,-2 -4,-2 1,0 3,1 4,2zm-4 -2c0,0 0,0 0,0 0,0 0,0 0,0zm0 0l0 0 0 0 0 0 0 0 0 0 0 0 0 0 -1 0 0 0 0 0 0 0 0 0 0 -1 0 0 0 0 0 0 0 0 0 0 0 0 0 0 0 0 0 0 0 0 0 0 0 0 0 0 0 0 0 0 0 0 0 0 0 0 0 0 0 0 0 0 0 0 0 0 0 0 0 0 0 0 0 0 0 0 0 0 -1 0 0 0 0 0 0 0 0 0 0 0 0 0 0 0 0 0 0 0 0 0 0 0 0 0 0 0 0 0 0 0 0 0 0 0 0 0 0 0 0 0 0 0 0 0 0 0 0 0 0 0 0 0 0 0 0 0 0 0 0 0 0 0 0 0 0 0 0 0 0 0 0 0 -1 0 0 0 0 0 0 0 0 0 0 0 0 0 0 0 0 0 0 0 0 0 0 0 0 0 0 0 0 0 0 0 0 0 0 0 0 0 0 0 0 0 0 0 0 0 0 0 0 0 0 0 0 0 -1 0 1 0 0 0 0 0 0 0 0 0 0 0 0 0 0 0 0 0 0 0 0 0 0 0 0 0 0 0 0 0 0 0 0 0 0 0 0 0 0 0 0 0 0 0 0 0 0 0 0 0 0 0 0 0 1 0 0 0 0 0 0 0 0 0 0 0 0 0 0 0 0 0 0 0 0 0 0 0 0 0 0 0 0 0 0 0 0 0 0 0 0 0 0 0 0 0 0 0 0 0 0 0 0 0 0 0 0 0 0 0 0 0 0 0 0 0 0 0 0 0 0 0 0 0 0 0 0 0 1 0 0 0 0 0 0 0 0 0 0 0 0 0 0 0 0 0 0 0 0 0 0 0 0 0 0 0 0 0 0 0 0 0 0 0 0 0 0 0 0 0 0 0 0 0 0 0 0 0 0 0 0 0 0 0 0 0 0 0 0 1 0 0 0 0 0 0 0 0 1 0 0 0 0 0 0 0 0 0 0 0 0 0 0 0zm-4 -1c0,0 0,0 0,0 0,0 0,0 0,0zm0 0l0 0zm-5 -1l0 0c0,0 0,0 0,0 0,0 0,0 0,0zm0 0c0,0 0,0 0,0 0,0 0,0 0,0zm0 0l0 0zm1 -1c0,0 0,0 0,0 0,0 0,0 0,0zm0 0c0,0 0,0 0,0 0,0 0,0 0,0zm0 0c1,0 2,-3 3,-5 -1,2 -2,5 -3,5zm3 -5c0,-1 0,-1 0,-2 0,1 0,1 0,2zm0 -2l0 0z"></path>
  <path class="fil0" d="M1424 392c-20,-4 -40,-4 -60,-2 -22,3 -43,9 -62,20 -24,13 -43,34 -71,39 -59,10 -95,-58 -145,-78 -29,-12 -60,-8 -90,-5 -21,2 -41,5 -61,3 -56,-6 -89,-55 -139,-75 -25,-10 -52,-12 -79,-8 -30,4 -60,14 -90,13 -32,-2 -57,-19 -84,-32 -21,-10 -44,-16 -67,-16 -53,1 -86,25 -138,33 -51,7 -86,-33 -120,-35 -27,-2 -46,9 -63,20 -18,12 -35,23 -59,21 -41,-3 -71,-17 -96,-43l0 513 1424 0 0 -368z"></path>
  <path class="fil2" d="M465 357c92,-1 170,30 198,74 7,-5 15,-10 22,-16 -41,-41 -123,-69 -217,-68 -83,1 -157,24 -200,59 2,6 4,13 7,20 32,-40 105,-68 190,-69z"></path>
  <path class="fil3" d="M465 352c94,-1 174,32 200,77 8,-5 15,-10 22,-16 -39,-43 -123,-72 -219,-71 -84,1 -157,25 -200,60 1,7 3,14 6,21 31,-41 105,-70 191,-71z"></path>
  <path class="fil2" d="M470 335c92,-1 173,23 222,59 4,-3 8,-6 12,-9 -55,-36 -138,-58 -231,-57 -91,1 -172,24 -226,59 2,3 4,6 6,9 49,-36 128,-60 217,-61z"></path>
  <path class="fil3" d="M470 332c93,-1 175,23 225,60 4,-3 7,-6 11,-10 -54,-36 -139,-58 -233,-57 -92,1 -173,24 -227,59 1,4 3,7 5,10 49,-37 129,-61 219,-62z"></path>
  <path class="fil4" d="M559 566c-1,3 -1,8 -5,11 -3,3 -7,3 -10,4 -5,2 -5,-4 -4,-10 1,-5 8,-6 11,-10 3,-3 5,-7 7,-11 0,-1 1,-5 2,-3 6,5 3,13 -1,19zm-167 -150c-1,3 -2,4 -2,7 0,2 0,3 -1,5 -2,2 -5,1 -7,0 -5,-3 -8,-9 -13,-12 -1,-2 -4,-2 -3,-5 0,-3 5,-3 7,-3 3,0 7,1 10,-1 2,-1 5,-2 7,-1 3,2 3,7 2,10zm-44 72c0,1 0,-1 -1,-2 -2,-1 -6,-3 -6,-5 -1,-2 1,-3 2,-3 1,-1 1,0 2,1 1,2 2,2 3,3 2,1 2,5 0,6zm-12 -17c-1,-2 -1,-3 0,-4 0,-3 -1,-5 -2,-7 0,-1 -1,-3 0,-5 2,-2 4,1 5,3 1,1 2,3 2,4 0,0 1,0 1,1 0,1 0,2 -1,4 0,2 0,4 1,7 0,0 0,2 0,2 -3,0 -5,-3 -6,-5zm290 -40c-2,8 -5,16 -5,24 -1,7 -2,12 -6,15 -1,2 -5,0 -6,-2 -3,-3 1,-10 -3,-11 -6,-1 -9,0 -11,7 -2,7 3,14 5,21 1,1 2,3 -1,4 -5,0 -11,-3 -13,-7 -1,-3 -6,-2 -8,-4 -2,-3 -2,-6 -5,-5 -2,1 -3,2 -5,4 -4,2 -9,9 -14,8 -16,-2 -24,-1 -35,2 -2,1 -3,1 -5,0 -1,0 -2,0 -3,0 -3,1 -5,-2 -7,-3 0,1 -2,4 0,6 1,1 3,1 6,1 2,0 6,2 9,4 2,1 5,1 7,0 6,0 9,-3 15,-1 7,3 12,6 11,14 0,5 1,11 1,16 -3,14 -6,25 -15,37 -2,3 -3,8 -5,10 -3,4 -9,8 -13,11 -4,4 -7,9 -11,12 -6,4 -8,8 -14,5 -3,-2 -9,-10 -11,-13 -3,-5 -6,-10 -7,-15 0,-3 0,-6 -1,-9 0,-6 -3,-8 -7,-11 -5,-4 -7,-7 -10,-11 -5,-7 -11,-7 -17,-11 -3,-2 -5,-4 -5,-7 -1,-2 0,-8 0,-9 0,-4 -1,-7 -1,-10 1,-11 16,-21 25,-25 5,-1 8,-1 11,-1 2,0 3,0 5,0 3,0 7,-1 9,1 2,1 4,2 6,3 3,1 6,1 9,1l0 0c-2,-1 -3,-2 -5,-3 -5,-4 -9,-9 -14,-11 -6,-2 -12,-1 -19,-1 -6,0 -12,-1 -18,-2 -6,-2 -8,-7 -9,-14 0,-3 2,-7 2,-10 0,-5 -3,-8 0,-13 3,-6 7,-12 13,-15 5,-3 11,-4 16,-6 5,-2 9,-5 13,-9 7,-5 13,-11 21,-15 16,-10 37,-5 54,-13 8,-4 17,-18 28,-18 -23,-23 -53,-39 -87,-44 3,3 6,6 8,9 3,8 0,11 -4,17 -3,6 0,12 -5,16 -4,4 -11,5 -16,6 -6,2 -13,5 -19,7 -6,2 -13,4 -20,3 -8,-1 -9,-5 -12,-10 -1,-2 -2,-8 -7,-8 -7,-1 -12,-1 -17,2 -6,4 -7,12 -9,19 -2,9 3,19 -3,27 -3,5 -9,7 -14,7 -11,1 -21,-2 -31,-2 -9,-1 -15,3 -17,10 -1,4 2,9 2,14 0,7 -1,13 -2,19 -1,2 -3,5 -5,4 -5,-4 -10,-9 -13,-15 -1,6 -2,12 -2,18 2,1 5,4 7,5 6,5 6,15 9,22 6,10 17,12 26,19 4,3 8,8 9,14 0,3 -1,5 -1,9 -2,9 -1,16 4,24 8,14 20,28 36,34 3,1 7,2 8,5 2,2 -6,5 -8,6 -6,3 -12,5 -17,6 25,15 55,25 86,25 89,0 160,-71 160,-157 0,-11 -1,-22 -3,-32z"></path>
  <path class="fil5" d="M501 383c-8,4 -14,10 -21,15 -4,4 -8,7 -13,9 -5,2 -11,3 -16,6 -6,3 -10,9 -13,15 -3,5 0,8 0,13 0,3 -2,7 -2,10 1,7 3,12 9,14 6,1 12,2 18,2 7,0 13,-1 19,1 5,2 9,7 14,11 2,1 3,2 5,3l0 0c-3,0 -6,0 -9,-1 -2,-1 -4,-2 -6,-3 -2,-2 -6,-1 -9,-1 -2,0 -3,0 -5,0 -3,0 -6,0 -11,1 -9,4 -24,14 -25,25 0,3 1,6 1,10 0,1 -1,7 0,9 0,3 2,5 5,7 6,4 12,4 17,11 3,4 5,7 10,11 4,3 7,5 7,11 1,3 1,6 1,9 1,5 4,10 7,15 2,3 8,11 11,13 6,3 8,-1 14,-5 4,-3 7,-8 11,-12 4,-3 10,-7 13,-11 2,-2 3,-7 5,-10 9,-12 12,-23 15,-37 0,-5 -1,-11 -1,-16 1,-8 -4,-11 -11,-14 -6,-2 -9,1 -15,1 -2,1 -5,1 -7,0 -3,-2 -7,-4 -9,-4 -3,0 -5,0 -6,-1 -2,-2 0,-5 0,-6 2,1 4,4 7,3 1,0 2,0 3,0 2,1 3,1 5,0 11,-3 19,-4 35,-2 5,1 10,-6 14,-8 2,-2 3,-3 5,-4 3,-1 3,2 5,5 2,2 7,1 8,4 2,4 8,7 13,7 3,-1 2,-3 1,-4 -2,-7 -7,-14 -5,-21 2,-7 5,-8 11,-7 4,1 0,8 3,11 1,2 5,4 6,2 4,-3 5,-8 6,-15 0,-8 3,-16 5,-24 -6,-31 -22,-58 -43,-79 -11,0 -20,14 -28,18 -17,8 -38,3 -54,13z"></path>
  <path class="fil5" d="M552 557c-1,3 -3,7 -5,10 -3,3 -9,4 -9,8 -1,5 -1,10 2,8 3,-1 7,-1 10,-3 2,-2 2,-7 4,-9 3,-5 5,-12 1,-17 -1,-1 -2,2 -3,3z"></path>
  <path class="fil5" d="M408 583c-1,-3 -5,-4 -8,-5 -16,-6 -28,-20 -36,-34 -5,-8 -6,-15 -4,-24 0,-4 1,-6 1,-9 -1,-6 -5,-11 -9,-14 -9,-7 -20,-9 -26,-19 -3,-7 -3,-17 -9,-22 -2,-1 -5,-4 -7,-5 0,4 -1,8 -1,12 0,55 30,104 74,132 5,-1 11,-3 17,-6 2,-1 10,-4 8,-6z"></path>
  <path class="fil5" d="M325 448c2,1 4,-2 5,-4 1,-6 2,-12 2,-19 0,-5 -3,-10 -2,-14 2,-7 8,-11 17,-10 10,0 20,3 31,2 5,0 11,-2 14,-7 6,-8 1,-18 3,-27 2,-7 3,-15 9,-19 5,-3 10,-3 17,-2 5,0 6,6 7,8 3,5 4,9 12,10 7,1 14,-1 20,-3 6,-2 13,-5 19,-7 5,-1 12,-2 16,-6 5,-4 2,-10 5,-16 4,-6 7,-9 4,-17 -2,-3 -5,-6 -8,-9 -9,-2 -18,-3 -27,-3 -78,0 -143,55 -157,128 3,6 8,11 13,15z"></path>
  <path class="fil5" d="M342 474c-1,-3 -1,-5 -1,-7 1,-2 1,-3 1,-4 0,-1 -1,-1 -1,-1 0,-1 -1,-3 -2,-4 -1,-2 -3,-5 -5,-3 -1,2 0,4 0,5 1,2 2,4 2,7 -1,1 -1,2 0,4 1,2 3,5 6,5 0,0 0,-2 0,-2z"></path>
  <path class="fil5" d="M345 479c-1,-1 -1,-2 -2,-1 -1,0 -3,1 -2,3 0,2 4,4 6,5 1,1 1,3 1,2 2,-1 2,-5 0,-6 -1,-1 -2,-1 -3,-3z"></path>
  <path class="fil5" d="M383 407c-3,2 -7,1 -10,1 -2,0 -7,0 -7,3 -1,3 2,3 3,5 5,3 8,9 13,12 2,1 5,2 7,0 1,-2 1,-3 1,-5 0,-3 1,-4 2,-7 1,-3 1,-8 -2,-10 -2,-1 -5,0 -7,1z"></path>
  <path class="fil0" d="M361 512c0,0 0,-1 0,-1 -1,-6 -5,-11 -9,-14 -9,-7 -20,-9 -26,-19 -3,-7 -3,-17 -9,-22 -2,-1 -5,-4 -7,-5 0,4 -1,8 -1,12 0,5 1,11 1,17 -1,-16 -1,-31 2,-47 0,0 0,0 0,0l0 0c-1,6 -2,12 -2,18 2,1 5,4 7,5 6,5 6,15 9,22 6,10 17,12 26,19 4,3 8,8 9,14 0,0 0,1 0,1zm-13 -24l0 0 0 0 0 0zm0 0c0,0 0,0 0,0 0,0 0,0 0,0zm0 0c0,0 0,0 0,0 0,0 0,0 0,0zm-1 -2c0,0 0,0 0,0 0,0 0,0 0,0zm0 0c0,0 0,0 0,0 0,0 0,0 0,0zm-7 -11c-2,0 -3,-2 -4,-4 1,2 2,4 4,4l0 0zm-4 -4c0,0 0,0 0,0 0,0 0,0 0,0zm0 0c0,0 0,0 0,0 0,0 0,0 0,0zm-10 -23l0 0c0,0 0,0 0,0 0,0 0,0 0,0zm0 0c0,0 0,0 -1,0 1,0 1,0 1,0zm4 -4c0,0 0,0 0,0 0,0 0,0 0,0z"></path>
  <path class="fil6" d="M463 575c-29,0 -57,-3 -83,-9 -6,-7 -12,-14 -16,-22 -3,-6 -5,-12 -5,-18 0,-2 0,-4 1,-6 0,-3 1,-5 1,-8 0,0 0,-1 0,-1 -1,-6 -5,-11 -9,-14 -9,-7 -20,-9 -26,-19 -3,-7 -3,-17 -9,-22 -2,-1 -5,-4 -7,-5 0,-6 1,-12 2,-18l0 0c3,6 8,11 13,15 0,0 0,0 0,0 1,0 1,0 1,0l0 0 0 0c0,0 0,0 0,0 2,0 3,-2 4,-4 0,0 0,0 0,0 0,0 0,0 0,0 0,-2 1,-4 1,-6 0,9 2,18 4,26 1,1 1,1 1,2 0,0 0,0 0,1 -1,0 -1,1 -1,2 0,0 0,1 1,2 0,0 0,0 0,0 0,0 0,0 0,0 0,0 0,0 0,0 0,0 0,0 0,0 0,0 0,0 0,0 1,2 2,4 4,4 1,1 1,2 2,3 -1,1 -1,1 -1,2 0,0 0,1 0,1 0,2 4,4 6,5l0 0c0,0 0,0 0,0 0,0 0,0 0,0 0,0 0,0 0,0 0,0 0,0 0,0 0,1 0,1 1,2 0,0 0,0 0,0 0,0 0,0 0,0 0,0 0,0 0,0 0,0 0,0 0,0 0,0 0,0 0,0l0 0 0 0c0,0 0,0 0,0 0,0 0,0 0,0 6,7 12,12 19,16 11,6 23,9 35,9 11,0 23,-2 34,-7 1,2 1,4 1,6 0,1 0,1 0,1 0,1 0,6 0,8 0,0 0,1 0,1 0,3 2,5 5,7 6,4 12,4 17,11 3,4 5,7 10,11 4,3 7,5 7,11 1,3 1,6 1,9 -2,1 -5,3 -8,4 0,0 -1,0 -1,0 -2,0 -3,0 -5,0z"></path>
  <path class="fil0" d="M522 510l0 0c0,0 0,0 0,0 0,0 0,0 0,0zm0 0c-1,0 -2,0 -3,0 -3,-2 -5,-4 -8,-4 0,0 0,0 0,0 0,0 0,0 0,0 3,0 5,2 8,4 1,0 2,0 3,0zm3 0c0,0 0,0 0,0 0,0 0,0 0,0 0,0 0,0 0,0 0,0 0,0 0,0zm0 0c0,0 0,0 0,0 0,0 0,0 0,0zm1 0c0,0 0,0 0,0 0,0 0,0 0,0zm0 0c0,0 0,0 0,0 0,0 0,0 0,0zm0 0c0,0 0,0 0,0 0,0 0,0 0,0zm0 0c0,0 0,0 1,0 -1,0 -1,0 -1,0zm1 0c0,0 0,0 1,0 -1,0 -1,0 -1,0zm11 -1c-1,-1 -2,-1 -4,-1 2,0 3,0 4,1zm-4 -1c0,0 0,0 0,0l0 0c0,0 0,0 0,0zm-24 -2l0 0c0,0 0,0 0,0 0,0 0,0 0,0zm0 0c-1,0 -3,0 -4,-1 1,1 3,1 4,1zm8 -3l0 0c0,0 0,0 0,0 0,0 0,0 0,0zm0 0c0,0 0,0 0,0 0,0 0,0 0,0zm1 0c0,0 0,0 0,0 0,0 0,0 0,0zm0 0c0,0 0,0 0,0 0,0 0,0 0,0zm0 0c0,0 1,0 1,0 0,0 -1,0 -1,0zm-4 0c0,0 0,0 0,0 0,0 0,0 0,0zm0 0c0,0 0,0 0,0 0,0 0,0 0,0zm0 0c-1,0 -1,0 -2,0 1,0 1,0 2,0zm-3 0l0 0 0 0 0 0zm0 0c-3,0 -4,-2 -5,-3 1,1 2,3 5,3zm0 0c0,0 0,0 0,0 0,0 0,0 0,0zm1 0c0,0 0,0 0,0l0 0c0,0 0,0 0,0zm37 -2l0 0c0,0 0,0 0,0 0,0 0,0 0,0zm0 0c0,0 0,0 0,0 0,0 0,0 0,0zm0 0c0,0 0,0 -1,0 1,0 1,0 1,0zm-1 0c0,0 0,0 0,0 0,0 0,0 0,0zm0 0c0,0 0,0 0,0 0,0 0,0 0,0zm0 0c0,0 0,0 0,0 0,0 0,0 0,0zm0 0c0,0 -1,0 -1,0 0,0 1,0 1,0zm-1 0c-5,0 -9,-1 -12,-1 3,0 7,1 12,1zm-41 -1c0,0 0,0 -1,0 1,0 1,0 1,0zm29 0c0,0 0,0 0,0l0 0c0,0 0,0 0,0zm-30 0c0,0 0,0 0,0 0,0 0,0 0,0z"></path>
  <path class="fil6" d="M545 513c-2,-2 -4,-3 -7,-4l0 0c0,0 0,0 0,0 -1,-1 -2,-1 -4,-1 0,0 0,0 0,0l0 0c0,0 0,0 0,0 -2,0 -4,1 -6,2 -1,0 -1,0 -1,0 0,0 0,0 0,0 -1,0 -1,0 -1,0 0,0 0,0 0,0 0,0 0,0 0,0 0,0 0,0 0,0 0,0 0,0 0,0 0,0 0,0 0,0 0,0 0,0 0,0 0,0 0,0 -1,0 0,0 0,0 0,0 0,0 0,0 0,0 0,0 0,0 0,0 0,0 0,0 0,0 0,0 -2,0 -3,0 0,0 0,0 0,0 0,0 0,0 0,0 -1,0 -2,0 -3,0 -3,-2 -5,-4 -8,-4 0,0 0,0 0,0 0,0 -1,0 -1,0 0,0 0,0 0,0 0,0 0,0 0,0 -1,0 -3,0 -4,-1 0,0 0,0 0,0l0 0c0,0 -1,-1 -1,-1 0,-2 1,-3 1,-4l0 0c0,0 0,0 0,0 0,0 0,0 0,0 1,0 1,0 1,0 0,0 0,0 0,0 1,1 2,3 5,3 0,0 0,0 0,0l0 0 0 0c0,0 0,0 0,0 0,0 0,0 0,0 0,0 0,0 0,0 1,0 1,0 1,0 0,0 0,0 0,0 0,0 0,0 0,0 1,0 1,0 2,0 0,0 0,0 0,0 0,0 0,0 0,0 0,0 0,0 0,0 0,0 0,0 0,0l0 0c1,0 2,0 3,0l0 0c0,0 0,0 0,0l0 0c0,0 0,0 0,0 0,0 1,0 1,0 0,0 0,0 0,0 0,0 0,0 0,0 0,0 0,0 0,0l0 0c0,0 0,0 0,0 0,0 1,0 1,0 5,-2 10,-3 16,-3 0,0 0,0 0,0 0,0 0,0 0,0 3,0 7,1 12,1 0,0 0,0 0,0 0,0 1,0 1,0 0,0 0,0 0,0 0,0 0,0 0,0 0,0 0,0 0,0 0,0 0,0 0,0 0,0 0,0 0,0 0,0 0,0 0,0 0,0 0,0 0,0 1,0 1,0 1,0l0 0c0,0 0,0 0,0l0 0 0 0c0,0 0,0 0,0 0,0 0,0 1,0 -2,4 -4,8 -6,12z"></path>
  <path class="fil0" d="M491 495c0,0 0,0 0,0 0,0 0,0 0,0zm0 0c-1,-1 -2,-1 -3,-1 1,0 2,0 3,1zm-9 -1l0 0c0,0 0,0 1,0 -1,0 -1,0 -1,0zm1 0l0 0c1,0 1,0 2,0 -1,0 -1,0 -2,0l0 0zm5 0c0,0 0,0 0,0l0 0c0,0 0,0 0,0z"></path>
  <path class="fil6" d="M504 499l-1 0c-2,0 -4,-1 -7,-1 -1,-1 -3,-2 -5,-3l0 0c0,0 0,0 0,0 0,0 0,0 0,0 0,0 0,0 0,0 -1,-1 -2,-1 -3,-1 0,0 0,0 0,0l0 0c0,0 0,0 0,0 -1,0 -2,0 -3,0 -1,0 -1,0 -2,0l0 0c0,0 0,0 0,0 -1,0 -1,0 -1,0 0,0 0,0 0,0 2,-2 4,-4 6,-7 4,2 8,6 11,9 2,1 3,2 5,3z"></path>
  <path class="fil0" d="M537 320c-11,-5 -23,-9 -35,-11 12,2 23,6 34,11 0,0 1,0 1,0z"></path>
  <path class="fil6" d="M505 381c-3,-11 -6,-21 -12,-29 0,-1 1,-1 2,-2 5,-4 2,-10 5,-16 3,-4 5,-7 5,-11 0,-1 0,-3 -1,-6 -2,-3 -5,-6 -8,-9 2,0 4,0 6,1 12,2 24,6 35,11 12,12 21,26 27,43 -3,3 -6,5 -9,7 -16,7 -35,4 -50,11z"></path>
  <path class="fil7" d="M477 571c0,-3 0,-6 -1,-9 0,-6 -3,-8 -7,-11 -5,-4 -7,-7 -10,-11 -5,-7 -11,-7 -17,-11 -3,-2 -5,-4 -5,-7 0,0 0,-1 0,-1 0,-2 0,-7 0,-8 0,0 0,0 0,-1 0,-2 0,-4 -1,-6 15,-6 28,-16 40,-29 0,0 0,0 0,0l0 0c0,0 0,0 0,0 1,0 1,0 1,0l0 0c1,0 2,0 2,0 1,0 2,0 4,0 0,0 0,0 0,0l0 0c0,0 0,0 0,0 1,0 2,0 3,1 0,0 0,0 0,0 0,0 0,0 0,0 0,0 0,0 0,0l0 0c2,1 4,2 6,3 3,1 6,1 9,1l0 0 0 0c-2,-1 -3,-2 -5,-3 -4,-4 -8,-8 -13,-10 2,-4 5,-8 7,-11 15,-26 19,-53 15,-77 15,-7 34,-4 50,-11 3,-2 6,-4 9,-7 13,36 11,80 -9,122 0,0 0,0 0,0 0,0 0,0 0,0l0 0 0 0c0,0 0,0 -1,0l0 0c0,0 0,0 0,0 0,0 0,0 0,0 0,0 0,0 0,0 0,0 0,0 0,0 0,0 0,0 -1,0 0,0 0,0 0,0 0,0 0,0 0,0 0,0 0,0 0,0 0,0 0,0 0,0 0,0 0,0 0,0 -6,-1 -11,-1 -15,-1 0,0 0,0 0,0l0 0c0,0 0,0 0,0 -7,0 -12,1 -19,3 0,0 0,0 0,0 0,0 0,0 0,0l0 0c0,0 0,0 0,0 0,0 0,0 0,0 0,0 0,0 0,0 -1,1 -1,1 -2,1 0,0 0,0 0,0l0 0c0,0 0,0 0,0l0 0c-1,0 -2,0 -3,-1l0 0c0,0 0,0 0,0 0,0 0,0 0,0 0,0 0,0 0,0 0,0 0,0 0,0 -1,0 -2,0 -2,0 0,0 0,0 0,0l0 0c0,0 0,0 0,0 0,0 -1,0 -1,0 0,0 0,0 0,0 0,0 0,0 0,0 0,0 -1,0 -1,0l0 0 0 0c0,0 0,0 0,0 -2,0 -4,-2 -6,-3 0,0 0,0 0,0 0,0 0,0 0,0 0,0 0,0 0,0 0,0 0,0 0,0l0 0c0,1 -1,2 -1,4 0,1 0,1 1,2l0 0c0,0 0,0 0,0 1,1 3,1 5,1 0,0 0,0 0,0l0 0c0,0 0,0 0,0 0,0 0,0 0,0 0,0 1,0 1,0 2,0 6,2 9,4 1,1 2,1 4,1 0,0 0,0 0,0l0 0c0,0 0,0 0,0 1,0 2,0 3,-1 0,0 0,0 0,0 0,0 0,0 0,0 0,0 0,0 0,0 0,0 0,0 0,0 0,0 0,0 0,0 1,0 1,0 1,0 0,0 0,0 0,0 0,0 0,0 0,0 0,0 0,0 0,0 0,0 0,0 0,0 0,0 0,0 0,0 0,0 0,0 1,0 0,0 0,0 0,0 0,0 1,0 1,0 3,-1 5,-2 8,-2 0,0 0,0 0,0l0 0c0,0 0,0 0,0 1,0 3,0 4,1 0,0 0,0 0,0l0 0c3,1 6,3 8,4 -1,2 -2,3 -2,4 -18,31 -43,54 -70,69z"></path>
  <path class="fil6" d="M332 424c-1,-3 -2,-7 -2,-11 0,0 0,-1 0,-2l0 0c0,0 0,0 0,0 1,-3 3,-6 6,-8 -2,7 -4,14 -4,21z"></path>
  <path class="fil0" d="M348 361c3,-4 6,-8 10,-12 0,0 0,0 1,0 -4,4 -8,8 -11,11 0,0 0,1 0,1zm29 -27c9,-6 18,-11 28,-15 -10,4 -19,9 -28,15 0,0 0,0 0,0z"></path>
  <path class="fil8" d="M339 371c3,-3 6,-7 9,-10 0,0 0,-1 0,-1 -3,4 -6,8 -9,11z"></path>
  <path class="fil9" d="M358 349c2,-1 4,-3 6,-5 0,0 0,0 0,0 -2,2 -4,4 -5,5 -1,0 -1,0 -1,0z"></path>
  <path class="fil8" d="M364 344c4,-3 8,-7 13,-10 0,0 0,0 0,0 -4,3 -9,7 -13,10 0,0 0,0 0,0z"></path>
  <path class="fil7" d="M380 566c-15,-4 -29,-8 -42,-14 -14,-20 -25,-45 -28,-72 0,-6 -1,-12 -1,-17 0,-4 1,-8 1,-12 2,1 5,4 7,5 6,5 6,15 9,22 6,10 17,12 26,19 4,3 8,8 9,14 0,0 0,1 0,1 0,3 -1,5 -1,8 -1,2 -1,4 -1,6 0,6 2,12 5,18 4,8 10,15 16,22z"></path>
  <path class="fil7" d="M326 448l0 0c0,0 0,0 -1,0 0,0 0,0 0,0 -5,-4 -10,-9 -13,-15l0 0c0,0 0,0 0,0 1,-4 2,-7 3,-10l16 9c0,2 0,4 0,6 0,2 -1,4 -1,6 0,0 0,0 0,0 0,0 0,0 0,0 -1,2 -2,4 -4,4 0,0 0,0 0,0l0 0zm5 -18l-16 -9c4,-12 9,-25 16,-37 3,-4 5,-9 8,-13 3,-3 6,-7 9,-11 3,-3 7,-7 11,-11 1,-1 3,-3 5,-5 4,-3 9,-7 13,-10 9,-6 18,-11 28,-15 21,-9 43,-13 65,-13 9,0 17,0 26,2 3,3 6,6 8,9 1,3 1,5 1,6 0,4 -2,7 -5,11 -3,6 0,12 -5,16 -1,1 -2,1 -2,2 -6,-9 -14,-16 -23,-22 -11,-6 -23,-9 -35,-9 -32,0 -67,21 -87,56 -5,9 -9,17 -12,26 -3,2 -5,5 -6,8 0,0 0,0 0,0l0 0c0,1 0,2 0,2 0,4 1,8 2,11 -1,2 -1,4 -1,6z"></path>
  <path class="fil7" d="M340 475c-2,0 -3,-2 -4,-4 0,0 0,0 0,0 0,0 0,0 0,0 0,0 0,0 0,0 0,0 0,0 0,0 0,0 0,0 0,0 -1,-1 -1,-2 -1,-2 0,-1 0,-2 1,-2 0,-1 0,-1 0,-1 0,-1 0,-1 -1,-2 2,4 3,8 5,11z"></path>
  <path class="fil7" d="M348 488c0,0 0,0 0,0 0,0 0,0 0,0 0,0 0,0 0,0 0,0 0,0 0,0 0,0 0,0 0,0 0,0 0,0 0,0 0,0 0,0 0,0 0,0 0,0 0,0l0 0 0 0zm-1 -2c0,0 0,0 0,0 0,0 0,0 0,0 0,0 0,0 0,0 0,0 0,0 0,0l0 0c-2,-1 -6,-3 -6,-5 0,0 0,-1 0,-1 0,-1 0,-1 1,-2 1,3 3,6 5,8z"></path>
  <path class="fil0" d="M350 486c0,-2 -1,-3 -2,-4 -1,-1 -2,-1 -3,-3 -1,-1 -1,-2 -1,-2 0,0 0,1 1,2 1,2 2,2 3,3 1,1 2,2 2,4zm111 -8c0,0 0,0 0,0 0,0 0,0 0,0zm-119 0l0 0c0,0 1,0 1,0 0,0 0,0 0,0 0,0 0,0 0,0 0,0 -1,0 -1,0zm1 0c0,0 0,0 0,-1 0,1 0,1 0,1zm1 -1c0,0 0,0 0,0l0 0c0,0 0,0 0,0zm131 0c0,0 0,0 0,0 0,0 0,0 0,0zm-3 0c0,0 0,0 0,0 0,0 0,0 0,0zm0 0c-1,0 -2,0 -3,0 1,0 2,0 3,0zm-3 0c0,0 0,0 0,0l0 0c0,0 0,0 0,0zm-127 -1l0 0zm0 0c-1,0 -1,0 -2,-1l0 0c1,1 1,1 2,1zm139 -8c-3,-1 -6,-1 -9,-1 3,0 6,0 9,1zm-20 -1l0 0 0 0 0 0zm0 0c-5,0 -10,-1 -14,-2 4,1 9,2 14,2zm2 0c0,0 0,0 0,0 0,0 0,0 0,0zm1 0c0,0 0,0 0,0 0,0 0,0 0,0zm8 0c0,0 0,0 0,0l0 0c0,0 0,0 0,0zm-26 -2c0,0 0,0 0,0 0,0 0,0 0,0zm-107 -7c0,0 0,0 0,0 0,0 0,0 0,0zm0 0c0,0 0,0 0,0 0,0 0,0 0,0zm0 0c0,0 0,0 0,0 0,0 0,0 0,0zm0 -1l0 0 0 0zm0 0c0,0 0,0 0,0 0,0 0,0 0,0zm0 0c-1,-1 -2,-3 -3,-3 1,0 2,2 3,3zm-5 -2c0,0 0,0 0,0 0,0 0,0 0,0zm0 0c0,0 0,0 0,0 0,0 0,0 0,0zm2 -1c0,0 0,0 0,0l0 0c0,0 0,0 0,0zm11 -53l0 0 0 0zm0 0c0,0 -1,0 -1,0 0,0 1,0 1,0zm-1 0c0,0 0,0 0,0l0 0c0,0 0,0 0,0z"></path>
  <path class="fil10" d="M402 513c-12,0 -24,-3 -35,-9 -7,-4 -13,-9 -19,-16 1,0 2,-1 2,-2 0,-2 -1,-3 -2,-4 -1,-1 -2,-1 -3,-3 -1,-1 -1,-2 -1,-2 0,0 0,0 0,0l0 0c0,0 0,0 0,0 0,0 -1,0 -1,0 0,1 0,1 0,1 0,0 0,0 0,0 0,0 0,0 0,0 0,0 -1,0 -1,0 -1,-1 -1,-2 -2,-3 1,1 1,1 2,1 0,0 0,0 0,0l0 0c0,0 0,0 0,0 0,0 0,0 0,-1 0,0 0,-1 0,-1 -1,-2 -1,-3 -1,-4 0,-1 0,-2 0,-3 1,-1 1,-2 1,-3 0,-1 0,-1 0,-1 0,-1 -1,-1 -1,-1 0,-1 -1,-3 -2,-4l0 0c0,0 0,0 0,0 0,0 0,0 0,0 0,0 0,0 0,0 0,0 0,0 0,0l0 0c0,0 0,0 0,0 0,0 0,0 0,-1l0 0c0,0 0,0 0,0 0,0 0,0 0,0 0,0 0,0 0,0 -1,-1 -2,-3 -3,-3 0,0 0,0 0,0l0 0c0,0 0,0 0,0 -1,0 -1,1 -2,1 0,0 0,0 0,0 0,0 0,0 0,0 0,0 0,0 0,0 0,0 0,0 0,0l0 0c0,1 0,2 0,3 0,1 0,1 0,2 1,2 1,3 1,4 -2,-8 -4,-17 -4,-26 0,-2 0,-4 1,-5l11 6c0,3 2,7 5,9 1,0 2,0 2,0 2,0 3,-1 3,-4 0,-4 -2,-8 -5,-10 -1,0 -1,0 -2,0 -1,0 -3,1 -3,3l-11 -7c0,-1 0,-2 0,-3 0,-1 0,-1 0,-2 0,0 0,-1 0,-1 0,-7 2,-14 4,-21 3,-2 6,-2 10,-2 0,0 0,0 0,0l0 0c0,0 1,0 1,0 0,0 0,0 0,0l0 0c0,0 0,0 0,0 4,0 8,0 12,1 1,16 8,31 21,38 6,3 12,5 19,5 14,0 29,-7 40,-19 0,1 -1,1 -1,2 -1,1 -1,3 -1,4 0,3 1,5 1,8 0,1 0,1 0,1 0,3 -2,6 -2,9 0,0 0,0 0,1 1,7 3,12 9,14 0,0 1,0 1,0 0,0 0,0 0,0 0,0 0,0 1,0 4,1 9,2 14,2 0,0 0,0 0,0l0 0 0 0c1,0 2,0 2,0 0,0 0,0 0,0l0 0c1,0 1,0 1,0 0,0 0,0 0,0 2,0 5,0 8,0 0,0 0,0 0,0 0,0 0,0 0,0 3,0 6,0 9,1 0,0 0,0 1,0 0,0 0,0 1,1 -3,3 -5,6 -7,8 0,0 -1,0 -1,0 0,0 0,0 0,0 -1,0 -2,0 -3,0l0 0c0,0 0,0 0,0 0,0 0,0 0,0 0,0 0,0 0,0 -1,0 -2,0 -3,0 0,0 0,0 0,0l0 0c0,0 0,0 0,0 -3,0 -5,0 -8,1 0,0 0,0 0,0 0,0 0,0 0,0l0 0c-9,4 -24,14 -25,25 0,0 0,0 0,0 0,1 0,2 0,3 -11,5 -23,7 -34,7z"></path>
  <path class="fil10" d="M447 415c1,0 1,-1 1,-1 10,-16 12,-35 7,-49 1,-1 3,-1 4,-2 0,0 0,0 0,0 1,0 1,0 1,0 0,0 0,0 0,0 0,0 0,0 0,0 0,0 0,0 0,0l0 0c6,-2 13,-5 19,-7 4,-1 10,-2 14,-4 6,8 9,18 12,29 -2,0 -3,1 -4,2 -8,4 -14,10 -21,15 -4,4 -8,7 -13,9 -5,2 -11,3 -16,6 -1,1 -3,1 -4,2z"></path>
  <path class="fil11" d="M436 506c0,-1 0,-2 0,-3 0,0 0,0 0,0 1,-11 16,-21 25,-25l0 0c0,0 0,0 0,0 0,0 0,0 0,0 3,-1 5,-1 8,-1 0,0 0,0 0,0l0 0c0,0 0,0 0,0 1,0 2,0 3,0 0,0 0,0 0,0 0,0 0,0 0,0 0,0 0,0 0,0l0 0c1,0 2,0 3,0 0,0 0,0 0,0 0,0 1,0 1,0 -12,13 -25,23 -40,29zm47 -37c-1,-1 -1,-1 -1,-1 -1,0 -1,0 -1,0 -3,-1 -6,-1 -9,-1 0,0 0,0 0,0l0 0c0,0 0,0 0,0 -3,0 -6,0 -8,0 0,0 0,0 0,0 0,0 0,0 -1,0l0 0c0,0 0,0 0,0 0,0 -1,0 -2,0l0 0 0 0c0,0 0,0 0,0 -5,0 -10,-1 -14,-2 -1,0 -1,0 -1,0 0,0 0,0 0,0 0,0 -1,0 -1,0 -6,-2 -8,-7 -9,-14 0,-1 0,-1 0,-1 0,-3 2,-6 2,-9 0,0 0,0 0,-1 0,-3 -1,-5 -1,-8 0,-1 0,-3 1,-4 0,-1 1,-1 1,-2 3,-3 6,-7 8,-11 1,-1 3,-1 4,-2 5,-3 11,-4 16,-6 5,-2 9,-5 13,-9 7,-5 13,-11 21,-15 1,-1 2,-2 4,-2 4,24 0,51 -15,77 -2,3 -5,7 -7,11z"></path>
  <path class="fil10" d="M348 488c-1,-1 -1,-1 -1,-2 0,1 1,1 1,2z"></path>
  <path class="fil11" d="M331 438c0,-2 0,-4 0,-6l1 1c-1,1 -1,3 -1,5zm1 -8l-1 0c0,-2 0,-4 1,-6 0,0 0,1 0,1 0,1 0,1 0,2 0,1 0,2 0,3zm4 -27c3,-9 7,-17 12,-26 20,-35 55,-56 87,-56 12,0 24,3 35,9 9,6 17,13 23,22 -4,2 -10,3 -14,4 -6,2 -13,5 -19,7l0 0c0,0 0,0 0,0 0,0 0,0 0,0 0,0 0,0 0,0 0,0 0,0 -1,0 0,0 0,0 0,0 -1,1 -3,1 -4,2 -4,-10 -10,-17 -18,-22 -6,-3 -13,-5 -19,-5 -18,0 -38,11 -49,31 -7,11 -10,22 -10,33 -4,-1 -8,-1 -12,-1 0,0 0,0 0,0l0 0c0,0 0,0 0,0 0,0 -1,0 -1,0l0 0c0,0 0,0 0,0 -4,0 -7,0 -10,2z"></path>
  <path class="fil11" d="M342 476c0,0 0,0 0,0 -1,0 -1,0 -2,-1 -2,-3 -3,-7 -5,-11 0,-1 0,-2 -1,-4 0,-1 0,-1 0,-2 0,-1 0,-2 0,-3l0 0c0,0 0,0 0,0 0,0 0,0 0,0 0,0 0,0 0,0 0,0 0,0 0,0 1,0 1,-1 2,-1 0,0 0,0 0,0l0 0c0,0 0,0 0,0 1,0 2,2 3,3 0,0 0,0 0,0 0,0 0,0 0,0 0,0 0,0 0,0l0 0c0,1 0,1 0,1 0,0 0,0 0,0l0 0c0,0 0,0 0,0 0,0 0,0 0,0 0,0 0,0 0,0 0,0 0,0 0,0l0 0c1,1 2,3 2,4 0,0 1,0 1,1 0,0 0,0 0,1 0,1 0,2 -1,3 0,1 0,2 0,3 0,1 0,2 1,4 0,0 0,1 0,1 0,1 0,1 0,1 0,0 0,0 0,0l0 0z"></path>
  <path class="fil11" d="M348 488c0,0 0,0 0,0 0,-1 -1,-1 -1,-2 -2,-2 -4,-5 -5,-8 0,0 1,0 1,0 0,0 0,0 0,0 0,0 0,0 0,0 0,0 0,0 0,-1 0,0 1,0 1,0 0,0 0,0 0,0l0 0c0,0 0,0 0,0 0,0 0,1 1,2 1,2 2,2 3,3 1,1 2,2 2,4 0,1 -1,2 -2,2z"></path>
  <path class="fil0" d="M386 429l0 0c0,0 0,0 0,0 0,0 0,0 0,0zm0 0c-2,0 -3,0 -4,-1 1,1 2,1 4,1zm3 -1c0,0 0,0 0,0 0,0 0,0 0,0zm-23 -17c0,0 0,0 0,0 0,0 0,0 0,0zm0 0c0,0 0,0 0,0 0,0 0,0 0,0zm14 -3l0 0c0,0 0,0 0,0 0,0 0,0 0,0zm-1 0c0,0 -1,0 -2,0 1,0 2,0 2,0zm-7 0c1,0 1,0 1,0l0 0c0,0 0,0 -1,0zm1 0c0,0 0,0 0,0 0,0 0,0 0,0zm10 -1c0,0 0,0 0,0 0,0 0,0 0,0zm7 -1c-1,0 -2,0 -2,0 0,0 1,0 2,0zm-2 0c0,0 0,0 0,0l0 0c0,0 0,0 0,0zm-14 -3l0 0 0 0 0 0zm-1 0c-4,0 -9,0 -14,-1 5,1 10,1 14,1zm71 -37l0 0c0,0 0,0 0,0 0,0 0,0 0,0zm0 0c-2,0 -3,0 -4,0 1,0 2,0 4,0z"></path>
  <path class="fil12" d="M404 350c0,0 0,0 0,0 0,0 0,0 0,0zm17 -2c-2,0 -4,-1 -6,-1 2,0 4,1 6,1zm-6 -1c0,0 0,0 0,0l0 0c0,0 0,0 0,0z"></path>
  <path class="fil13" d="M399 445c-7,0 -13,-2 -19,-5 -13,-7 -20,-22 -21,-38 0,0 0,0 0,0 5,1 10,1 14,1 0,0 1,0 1,0l0 0 0 0c1,0 2,0 4,0 5,0 11,-2 14,-7 3,-3 3,-7 3,-11 0,-4 0,-7 0,-11 0,-2 0,-3 0,-5 2,-7 3,-15 9,-19l0 0c0,0 0,0 0,0 3,-2 7,-3 11,-3 0,0 0,0 0,0 0,0 0,0 0,0 2,0 4,1 6,1 0,0 0,0 0,0 5,0 6,6 7,8 3,5 4,9 12,10l0 0c1,0 2,0 4,0 0,0 0,0 0,0l0 0c0,0 0,0 0,0 3,0 7,0 11,-1 5,14 3,33 -7,49 0,0 0,1 -1,1 -3,3 -6,8 -8,11 -11,12 -26,19 -40,19zm-13 -16l0 0c0,0 0,0 0,0 1,0 2,0 3,-1 0,0 0,0 0,0l0 0c1,-2 1,-3 1,-5 0,-3 1,-4 2,-7 0,-1 1,-2 1,-3 0,-3 -1,-5 -3,-7l0 0c0,0 0,0 0,0 -1,0 -2,0 -2,0 0,0 0,0 0,0l0 0c0,0 0,0 0,0 -2,0 -4,0 -5,1 0,0 0,0 0,0 0,0 0,0 0,0l0 0c-1,1 -2,1 -3,1 0,0 0,0 0,0 0,0 -1,0 -1,0 0,0 -1,0 -2,0 -2,0 -3,0 -4,0l0 0c0,0 0,0 0,0 0,0 0,0 0,0l0 0 0 0c0,0 0,0 -1,0 -2,0 -6,1 -6,3 0,0 0,0 0,0 0,0 0,0 0,0 0,0 0,0 0,0 0,0 0,0 0,0l0 0c-1,1 -1,1 -1,1 0,2 3,3 4,4 5,3 8,9 13,12 0,0 0,0 0,0 1,1 2,1 4,1 0,0 0,0 0,0l0 0z"></path>
  <path class="fil14" d="M439 426c2,-3 5,-8 8,-11 -2,4 -5,8 -8,11z"></path>
  <path class="fil14" d="M374 403c0,0 -1,0 -1,0 -4,0 -9,0 -14,-1 0,0 0,0 0,0 0,-11 3,-22 10,-33 11,-20 31,-31 49,-31 6,0 13,2 19,5 8,5 14,12 18,22 -4,1 -8,1 -11,1 0,0 0,0 0,0l0 0c0,0 0,0 0,0 -2,0 -3,0 -4,0l0 0c-8,-1 -9,-5 -12,-10 -1,-2 -2,-8 -7,-8 0,0 0,0 0,0 -2,0 -4,-1 -6,-1 0,0 0,0 0,0l0 0c0,0 0,0 0,0 -4,0 -8,1 -11,3 0,0 0,0 0,0l0 0c-6,4 -7,12 -9,19 0,2 0,3 0,5 0,4 0,7 0,11 0,4 0,8 -3,11 -3,5 -9,7 -14,7 -2,0 -3,0 -4,0l0 0 0 0z"></path>
  <path class="fil14" d="M386 429c0,0 0,0 0,0 -2,0 -3,0 -4,-1 0,0 0,0 0,0 -5,-3 -8,-9 -13,-12 -1,-1 -4,-2 -4,-4 0,0 0,0 1,-1l0 0c0,0 0,0 0,0 0,0 0,0 0,0 0,0 0,0 0,0 0,0 0,0 0,0 0,-2 4,-3 6,-3 1,0 1,0 1,0l0 0 0 0c0,0 0,0 0,0 0,0 0,0 0,0l0 0c1,0 2,0 4,0 1,0 2,0 2,0 0,0 1,0 1,0l0 0c0,0 0,0 0,0 1,0 2,0 3,-1l0 0c0,0 0,0 0,0 0,0 0,0 0,0 1,-1 3,-1 5,-1 0,0 0,0 0,0l0 0c0,0 0,0 0,0 0,0 1,0 2,0 0,0 0,0 0,0l0 0c2,2 3,4 3,7 0,1 -1,2 -1,3 -1,3 -2,4 -2,7 0,2 0,3 -1,5l0 0c0,0 0,0 0,0 -1,1 -2,1 -3,1 0,0 0,0 0,0l0 0z"></path>
  <path class="fil2" d="M630 378c2,8 2,15 3,22 26,19 41,41 41,66 1,61 -91,112 -206,114 -115,1 -209,-48 -210,-109 0,-26 15,-49 42,-68 1,-7 3,-14 6,-21 -48,24 -79,59 -78,96 1,72 110,128 243,127 133,-2 241,-61 240,-132 0,-38 -32,-72 -81,-95z"></path>
  <path class="fil3" d="M629 373c2,7 3,15 3,22 27,19 42,41 42,66 1,62 -91,113 -206,114 -115,1 -209,-48 -210,-109 0,-26 16,-50 43,-69 2,-7 4,-14 7,-21 -50,24 -81,59 -80,98 1,71 110,128 243,126 133,-1 241,-60 240,-132 0,-38 -32,-72 -82,-95z"></path>
  <path class="fil2" d="M595 341c1,3 2,7 3,10 85,23 144,71 145,126 1,80 -120,146 -269,148 -150,2 -272,-62 -273,-142 -1,-55 57,-104 142,-129 2,-3 3,-6 4,-9 -100,26 -170,81 -169,145 1,87 135,157 299,155 163,-2 295,-74 294,-162 -1,-64 -73,-118 -176,-142z"></path>
  <path class="fil3" d="M594 337c1,3 2,7 3,10 86,23 145,71 146,126 1,80 -120,147 -269,148 -150,2 -272,-62 -273,-142 -1,-55 58,-105 144,-130 1,-3 3,-6 4,-9 -102,27 -172,82 -171,146 1,88 135,157 299,155 163,-2 295,-74 294,-161 -1,-65 -74,-119 -177,-143z"></path>
  <polygon class="fil4" points="631,110 631,132 666,112 666,90 "></polygon>
  <path class="fil15" d="M644 173c-4,0 -6,-2 -7,-6l7 -7c1,1 2,2 3,2 1,0 1,0 2,-1 3,-1 5,-6 5,-9 0,-3 -1,-5 -3,-5 0,0 0,0 -1,0l0 -9c2,0 3,0 4,0 4,0 7,4 7,10 0,9 -6,20 -12,24 -2,1 -4,1 -5,1zm-8 -9c0,0 0,-1 0,-2 0,-8 6,-19 12,-23l0 9c-2,2 -4,6 -4,10l0 0 -8 6z"></path>
  <path class="fil16" d="M631 172c0,-1 -1,-1 -1,-2l6 -6c0,1 1,2 1,3l-6 5zm17 -33l0 -17 2 -1 0 17c0,1 -1,1 -1,1 0,0 -1,0 -1,0z"></path>
  <path class="fil17" d="M637 167c0,-1 -1,-2 -1,-3l8 -6 0 0c0,-4 2,-8 4,-10l0 -9c0,0 1,0 1,0 0,0 1,0 1,-1l0 9c1,0 1,0 1,0 2,0 3,2 3,5 0,3 -2,8 -5,9 -1,1 -1,1 -2,1 -1,0 -2,-1 -3,-2l-7 7z"></path>
  <path class="fil18" d="M650 242c0,-1 -8,-6 -9,-7 -1,-2 -2,-1 -1,1 0,1 1,3 1,3 0,0 -3,-2 -7,-2 -3,0 -5,1 -2,5 3,2 15,6 15,6l3 -6z"></path>
  <path class="fil18" d="M692 261c0,7 -8,12 -14,6 -1,-1 -2,-4 -3,-6 2,-12 7,-24 7,-24l8 1c0,0 2,15 2,23z"></path>
  <path class="fil19" d="M684 253l10 -4c0,0 -3,-11 -5,-16 -1,-4 -3,-7 -8,-8 -3,-1 -6,2 -6,4 -1,5 9,24 9,24z"></path>
  <path class="fil20" d="M682 410c-1,3 -5,3 -11,1 -5,-2 -10,-4 -14,-7 -4,-3 -4,-3 -4,-5 -1,-3 3,-5 10,-3 0,1 1,1 1,1 -1,0 -2,1 -3,2 -1,2 3,4 7,6 4,2 7,2 9,1 2,0 4,-1 5,-2 0,3 1,4 0,6z"></path>
  <path class="fil18" d="M674 374l0 0c0,0 0,-5 0,-12 -5,2 -10,3 -15,4 1,3 1,6 1,9 2,13 3,30 3,30 0,0 -2,-1 -6,-2 -1,0 -2,1 -3,2 -1,2 3,5 7,7 4,2 7,2 9,1 1,-1 3,-2 4,-2 0,-2 0,-4 0,-8 1,-7 1,-20 0,-29z"></path>
  <path class="fil18" d="M682 367c0,-1 1,-3 1,-5 -5,2 -10,2 -15,2 0,5 1,10 1,13 1,9 1,22 1,22 0,0 -2,-1 -6,-2 -1,0 -2,1 -3,2 -1,2 3,4 7,6 4,2 7,2 9,1 2,0 4,-1 5,-2 -1,-1 -1,-4 0,-7 0,-6 0,-24 0,-30z"></path>
  <path class="fil20" d="M674 416c-1,4 -4,3 -10,1 -6,-2 -10,-4 -14,-7 -4,-3 -4,-3 -5,-5 -1,-3 3,-4 10,-2 1,0 1,0 2,0 -1,0 -2,1 -3,2 -1,2 3,5 7,7 4,2 7,2 9,1 1,-1 3,-2 4,-2 1,2 1,4 0,5z"></path>
  <path class="fil19" d="M663 344c-5,5 -9,8 -17,9 0,10 15,48 15,50 3,3 7,4 14,2 1,-5 -6,-36 -12,-61z"></path>
  <path class="fil19" d="M684 288c-4,-11 -4,-12 -4,-12l-29 4c0,0 -1,7 -2,13 -2,9 -3,49 -3,62 3,-1 3,0 6,0 5,-2 7,6 11,3l2 -6c1,-15 2,-24 5,-32 0,4 -2,27 -2,36 0,9 -1,31 -1,40 4,5 12,5 16,3 1,-7 2,-41 3,-51 0,-4 1,-29 2,-33 1,-6 1,-15 -4,-27z"></path>
  <path class="fil19" d="M567 230c3,0 5,-1 8,1 3,1 6,5 9,5 4,0 7,-4 9,-5 5,-3 9,-12 13,-16 2,-2 3,-2 4,-2 1,1 2,1 2,0 1,0 2,-3 3,-5 1,-6 -1,-8 -4,-7 -6,2 -5,5 -8,5 -4,2 -6,3 -8,1 -3,-4 -6,-6 -11,-7 -4,-1 -3,-2 -8,-1 -2,1 -5,2 -7,2 -4,2 -8,2 -9,-2 0,-3 -5,-4 -5,-7 0,-2 1,-2 1,-6 0,-6 -2,-7 -4,-9 -1,0 -1,-1 -1,-1 -2,3 -3,5 -4,8 -1,4 -2,8 -2,13 0,9 3,18 9,25 1,3 4,5 6,8 2,0 6,0 7,0z"></path>
  <path class="fil21" d="M567 230c3,0 5,-1 8,1 3,1 6,5 9,5 4,0 7,-4 9,-5 5,-3 9,-12 13,-16 2,-2 3,-2 4,-2 1,1 2,1 2,0 1,0 2,-3 3,-5 1,-6 -1,-8 -4,-7 -6,2 -5,5 -8,5 -4,2 -6,3 -8,1 -3,-4 -6,-6 -11,-7 -4,-1 -3,-2 -8,-1 -2,1 -5,2 -7,2 -4,2 -8,2 -9,-2 0,-3 -5,-4 -5,-7 0,-2 1,-2 1,-6 0,-6 -2,-7 -4,-9 -1,0 -1,-1 -1,-1 -2,3 -3,5 -4,8 -1,4 -2,8 -2,13 0,9 3,18 9,25 1,3 4,5 6,8 2,0 6,0 7,0z"></path>
  <path class="fil19" d="M638 197c0,-13 -5,-24 -13,-33 -9,-8 -20,-13 -33,-13 -18,0 -34,10 -41,25 0,0 0,1 1,1 2,2 4,3 4,9 0,4 -1,4 -1,6 0,3 5,4 5,7 1,4 5,4 9,2 2,0 5,-1 7,-2 5,-1 4,0 8,1 5,1 8,3 11,7 2,2 4,1 8,-1 3,0 2,-3 8,-5 3,-1 5,1 4,7 -1,2 -2,5 -3,5 0,1 -1,1 -2,0 -1,0 -2,0 -4,2 -4,4 -8,13 -13,16 -2,1 -5,5 -9,5 -3,0 -6,-4 -9,-5 -3,-2 -5,-1 -8,-1 -1,0 -5,0 -7,0 8,7 20,12 32,12 9,0 18,-3 25,-7l0 0c-1,-2 -3,-5 -3,-6 -1,-2 1,-4 1,-6 -1,-1 -2,-1 -3,-1 -1,0 -1,-1 -1,-2 0,-1 0,-2 2,-4 2,-2 4,-1 7,0 1,0 3,1 4,2 1,1 1,4 2,3 2,-1 3,-2 4,-2 1,0 1,0 2,0 2,-3 4,-7 5,-11 1,-4 1,-8 1,-11z"></path>
  <path class="fil19" d="M630 219c-1,0 -2,1 -4,2 -1,1 -1,-2 -2,-3 -1,-1 -3,-2 -4,-2 -3,-1 -5,-2 -7,0 -2,2 -2,3 -2,4 0,1 0,2 1,2 1,0 2,0 3,1 0,2 -2,4 -1,6 0,1 2,4 3,6l0 0c6,-4 12,-9 15,-16 -1,0 -1,0 -2,0z"></path>
  <path class="fil21" d="M630 219c-1,0 -2,1 -4,2 -1,1 -1,-2 -2,-3 -1,-1 -3,-2 -4,-2 -3,-1 -5,-2 -7,0 -2,2 -2,3 -2,4 0,1 0,2 1,2 1,0 2,0 3,1 0,2 -2,4 -1,6 0,1 2,4 3,6l0 0c6,-4 12,-9 15,-16 -1,0 -1,0 -2,0z"></path>
  <path class="fil21" d="M616 179c1,-2 0,-4 1,-5 1,-2 2,-6 0,-8 -2,-3 -6,-3 -10,-2 -5,2 -1,7 -3,10 -1,2 -5,2 -7,2 -2,0 -3,1 -4,4 -2,3 -6,4 -4,7 0,1 3,3 5,3 2,-1 5,-1 6,2 1,2 3,5 6,4 4,0 6,-3 8,-5 2,-2 4,-3 4,-5 0,-2 -3,-5 -2,-7z"></path>
  <path class="fil22" d="M578 233c0,0 -1,-1 -1,-1 0,0 1,1 1,1l0 0zm-2 -2c0,0 0,0 -1,0 1,0 1,0 1,0zm-1 0l0 0zm-12 -1l0 0c0,0 0,0 0,0 0,0 0,0 0,0zm0 0c-1,0 -2,0 -3,0 1,0 2,0 3,0zm-3 0l0 0zm7 0c0,0 0,0 0,0 0,0 0,0 0,0zm0 0c0,0 0,0 0,0 0,0 0,0 0,0zm4 -1c0,0 0,0 0,0 0,0 0,0 0,0zm0 0l0 0zm-11 0c0,0 -1,0 -1,0 -3,-3 -6,-7 -8,-12l0 0c0,2 1,4 3,5 1,3 3,5 6,7zm39 -4l0 0 0 0 1 -1 0 0 0 0 0 0 0 0 0 0 0 0 0 0 0 -1 0 0 0 0 0 0 0 0 0 0 0 0 0 0 1 -1 0 0 0 0 0 0 1 -1 0 0 0 0 0 0c0,-1 1,-1 1,-2l0 0 0 0 0 0 0 -1 0 0 1 0 0 0 0 0 0 0 0 0 0 0 0 0 0 0 0 0 0 0 0 0 0 0 0 -1 0 0 0 0 0 0 0 0 0 0 1 0 0 0 0 0 0 0 0 -1 0 0 0 0 0 0 0 0 0 0 0 0 0 0 0 0 1 0 0 0 0 -1 0 0 0 0 0 0 0 0 0 0 0 0 0 0 0 0 0 0 0 0 0 0 0 0 0 1 0 0 -1 0 0 0 0 0 0 0 0 0 0 0 0 0 0 0 0 0 0 1 0 0 0 0 0 0 -1 0 0 0 0 0 0 0 0 0 0 0 0 1 0 0 0 0 0 0 0 0 0 0 0 0 0 0 0 0 0 0 0 0 0 0 -1 0 0 0 0 1 0 0 0 0 0 0c0,1 -1,1 -1,2l0 0 0 0 0 0 -1 1 0 0 0 0 0 0 -1 1 0 0 0 0 0 0 0 0 0 0 0 0 0 0 0 1 0 0 0 0 0 0 0 0 0 0 0 0 0 0 -1 1 0 0 0 0 0 0zm7 -10l0 0zm-56 0c-6,-12 -7,-27 2,-41 7,-13 19,-20 32,-22 -15,2 -27,11 -33,24 -2,3 -3,5 -4,8 -1,4 -2,8 -2,13 0,6 2,13 5,18l0 0zm1 -39l0 0zm-6 21l0 0zm66 17c0,0 0,0 0,0 0,0 0,0 0,0l0 0zm-14 -6l0 0c0,0 0,0 0,0 0,0 0,0 0,0zm18 -2l0 0 0 0 0 0 0 0 0 0 0 0 0 0 0 0 0 0 0 0 0 0 0 0 0 0 0 0 0 0 0 0 0 0 0 0 0 0 0 0 0 0 0 0 0 0 0 0 0 0 0 0 0 0 0 0 0 0c0,-1 0,-1 0,-1l0 0 0 0 0 0 0 0 0 0 0 0 0 0 0 0 0 0 0 0 0 0 0 0 0 0 0 0 0 0 0 0c0,0 0,0 0,1l0 0 0 0 0 0 0 0 0 0 0 0 0 0 0 0 0 0 0 0 0 0 0 0 0 0 0 0 0 0 0 0 0 0 0 0 0 0 0 0 0 0 0 0 0 0 0 0 0 0 0 0 0 0 0 0 0 0 0 0zm0 -1l0 0 0 -1 0 0 0 0 0 0 0 0 0 0 0 0 0 0 0 0 0 0 0 0 0 0 0 0 0 -1 0 0 0 0 0 0 0 0 0 0 0 0 0 0c0,0 0,0 0,-1l0 0 0 0 0 0 0 0 0 0 0 0 0 0 0 0 0 0 0 0 0 0 0 0 0 0c0,0 0,0 -1,0l0 0 0 0c0,0 0,0 0,-1l0 0 0 0 0 0 0 0 0 0 0 0 0 0 0 0c0,0 0,0 0,0l0 0 0 0 0 0 0 0 0 0 -1 0 0 0 0 0 0 0 0 0 0 0 0 0 0 0 0 0 0 0 0 0 0 0 0 0 0 0 0 0 0 0 0 0 0 0 0 0 0 0 0 0 0 0 0 0 -1 0 0 0 0 0 0 0 0 0 1 0 0 0 0 0 0 0 0 0 0 0 0 0 0 0 0 0 0 0 0 0 0 0 0 0 0 0 0 0 0 0 0 0 0 0 0 0 0 0 0 0 0 0 0 0 1 0 0 0 0 0 0 0 0 0 0 0c0,0 0,0 0,0l0 0 0 0 0 0 0 0 0 0 0 0 0 0 0 0c0,1 0,1 0,1l0 0 0 0c1,0 1,0 1,0l0 0 0 0 0 0 0 0 0 0 0 0 0 0 0 0 0 0 0 0 0 0 0 0 0 0c0,1 0,1 0,1l0 0 0 0 0 0 0 0 0 0 0 0 0 0 0 1 0 0 0 0 0 0 0 0 0 0 0 0 0 0 0 0 0 0 0 0 0 0 0 0 0 1 0 0zm-3 -4l0 0 0 0zm0 0l0 0z"></path>
  <path class="fil23" d="M578 233c0,0 -1,-1 -1,-1 0,0 0,0 0,0 0,0 0,0 0,0 0,0 0,0 0,0 -1,-1 -1,-1 -1,-1 0,0 0,0 0,0 0,0 0,0 0,0 0,0 0,0 0,0 0,0 0,0 0,0 0,0 0,0 0,0 0,0 0,0 0,0 0,0 0,0 0,0 0,0 0,0 0,0 0,0 0,0 0,0 0,0 0,0 -1,0l0 0c0,0 0,0 0,0 -2,-1 -3,-2 -4,-2 0,0 0,0 0,0l0 0c0,0 0,0 0,0 -1,0 -2,0 -2,1 -1,0 -1,0 -2,0 0,0 0,0 0,0 0,0 0,0 0,0 0,0 0,0 0,0 -1,0 -2,0 -4,0 0,0 0,0 0,0 0,0 0,0 0,0 -1,0 -2,0 -3,0 0,0 0,-1 0,-1 -3,-2 -5,-4 -6,-7 -2,-1 -3,-3 -3,-5l11 -2c0,0 0,1 0,1 0,2 1,4 3,4 0,0 1,0 2,-1 2,-1 4,-5 4,-8 1,0 1,0 1,0 7,0 14,-3 19,-8 2,1 3,3 4,4l0 0c0,0 0,0 0,0 0,0 0,0 0,0 1,1 1,1 2,1 0,0 0,0 0,0l0 0c0,0 0,0 0,0 1,0 2,0 3,0 1,-1 2,-1 3,-1 0,0 0,0 0,0 0,0 0,0 0,0 0,0 0,0 0,0 0,0 0,0 0,0 0,0 0,-1 0,-1 3,0 2,-3 8,-5l0 0c0,0 0,0 0,0 0,0 0,0 0,0 0,0 0,0 0,0 1,0 1,0 1,0l0 0c0,0 0,0 0,0 2,0 3,1 3,4 0,0 0,1 0,1 0,1 0,2 -1,2 -1,2 -2,4 -3,6 0,0 0,0 0,0 0,0 0,0 -1,-1l0 0c0,0 0,0 -1,0 0,0 -1,1 -2,2 0,0 0,0 0,0 0,0 -1,0 -1,0l0 0c-2,2 -4,6 -7,10 -6,4 -14,7 -21,8zm-28 -18c-3,-5 -5,-12 -5,-18l0 0c0,-5 1,-9 2,-13 1,-3 2,-5 4,-8l0 0c0,0 0,1 1,1 0,1 1,1 1,2 -4,12 0,24 9,30 1,0 2,0 2,1 0,1 -1,2 -1,3l-13 2z"></path>
  <path class="fil24" d="M611 155c-2,-1 -4,-2 -7,-2 3,0 5,1 7,2 0,0 0,0 0,0z"></path>
  <path class="fil25" d="M575 233c-5,0 -10,-1 -15,-3 1,0 2,0 3,0 0,0 0,0 0,0l0 0c0,0 0,0 0,0 2,0 3,0 4,0 0,0 0,0 0,0 0,0 0,0 0,0 0,0 0,0 0,0 1,0 1,0 2,0 0,-1 1,-1 2,-1 0,0 0,0 0,0l0 0c0,0 0,0 0,0 1,0 2,1 4,2 0,0 0,0 0,0l0 0c1,0 1,0 1,0 0,0 0,0 0,0 0,0 0,0 0,0 0,0 0,0 0,0 0,0 0,0 0,0 0,0 0,0 0,0 0,0 0,0 0,0 0,0 0,0 0,0 0,0 0,0 0,0 0,0 0,0 0,0 0,0 0,0 1,1 0,0 0,0 0,0 0,0 0,0 0,0 0,0 0,0 0,0 0,0 1,1 1,1 -1,0 -2,0 -3,0zm24 -8c3,-4 5,-8 7,-10l0 0c0,0 1,0 1,0 0,0 0,0 0,0 1,-1 2,-2 2,-2 1,0 1,0 1,0l0 0c1,1 1,1 1,1 0,0 0,0 0,0 -4,4 -8,8 -12,11zm-2 -17c0,0 0,0 0,0l0 0c-1,0 -1,0 -2,-1l0 0c0,0 0,0 0,0l0 0c0,0 0,0 0,0l0 0c-1,-1 -2,-3 -4,-4 3,-2 5,-5 7,-8 0,-1 1,-2 2,-4 0,1 0,1 0,1 1,2 2,5 5,5 1,0 1,0 1,-1 4,0 6,-3 8,-5 2,-2 4,-3 4,-5 0,-2 -3,-5 -2,-7 1,-2 0,-4 1,-5 1,-2 2,-6 0,-8 -1,-2 -3,-3 -5,-3 -2,0 -3,1 -5,1 -5,2 -1,7 -3,10 0,1 -1,1 -2,1 0,-7 -4,-13 -10,-17 -3,-2 -7,-3 -10,-3 -10,0 -20,6 -26,17 -1,2 -2,4 -3,7 0,-1 -1,-1 -1,-2 -1,0 -1,-1 -1,-1l0 0c6,-13 18,-22 33,-24 3,-1 5,-1 8,-1 4,0 8,0 12,2 3,0 5,1 7,2 12,12 14,33 4,51 1,-3 -1,-5 -3,-5l0 0c0,0 0,0 0,0l0 0 0 0 0 0c0,0 0,0 -1,0l0 0c0,0 0,0 0,0l0 0c0,0 0,0 0,0l0 0c0,0 0,0 0,0l0 0c-6,2 -5,5 -8,5 0,0 0,1 0,1l0 0c0,0 0,0 0,0l0 0c0,0 0,0 0,0l0 0c0,0 0,0 0,0l0 0c0,0 0,0 0,0l0 0c-1,0 -2,0 -3,1l0 0c-1,0 -2,0 -3,0l0 0c0,0 0,0 0,0l0 0z"></path>
  <path class="fil23" d="M605 197c-3,0 -4,-3 -5,-5 0,0 0,0 0,-1 2,-5 3,-11 2,-16 1,0 2,0 2,-1 2,-3 -2,-8 3,-10 2,0 3,-1 5,-1 2,0 4,1 5,3 2,2 1,6 0,8 -1,1 0,3 -1,5 -1,2 2,5 2,7 0,2 -2,3 -4,5 -2,2 -4,5 -8,5 0,1 0,1 -1,1z"></path>
  <path class="fil26" d="M565 202c-3,0 -4,-1 -5,-3 0,-3 -5,-4 -5,-7 0,0 0,0 0,0 0,0 0,0 0,0 0,0 0,0 0,0 0,3 5,4 5,7 1,2 2,3 5,3 1,0 2,0 4,-1 -2,1 -3,1 -4,1zm4 -1c0,0 0,0 0,0 0,0 0,0 0,0zm0 0c0,0 0,0 0,0 0,0 0,0 0,0zm15 -1c0,0 0,0 0,0 0,0 0,0 0,0zm0 0c0,0 0,0 0,0 0,0 0,0 0,0zm0 0c0,0 0,0 0,-1 0,1 0,1 0,1zm0 -1c0,0 0,0 0,0 0,0 0,0 0,0zm-1 0c0,0 0,0 0,0 0,0 0,0 0,0zm0 0c-1,0 -2,0 -3,0 1,0 2,0 3,0zm-3 0c0,0 0,0 0,0l0 0c0,0 0,0 0,0z"></path>
  <path class="fil27" d="M572 211c0,0 0,0 -1,0 0,0 0,0 0,0 0,-3 -1,-4 -2,-4 -1,0 -2,0 -2,0 -1,1 -2,2 -3,3 0,-1 -1,-1 -2,-1 -9,-6 -13,-18 -9,-30 2,1 3,3 3,7 0,0 0,0 0,0 0,1 0,1 0,1 0,3 -1,3 -1,5 0,0 0,0 0,0 0,0 0,0 0,0 0,3 5,4 5,7 1,2 2,3 5,3 1,0 2,0 4,-1 0,0 0,0 0,0 0,0 0,0 0,0 0,0 0,0 0,0 0,0 0,0 0,0l0 0c2,0 5,-1 7,-2 2,0 3,0 4,0 0,0 0,0 0,0 0,0 0,0 0,0 1,0 2,0 3,0 0,0 0,0 0,0 0,0 0,0 0,0 1,0 1,0 1,0 0,0 0,0 0,0 0,0 0,0 0,0 0,1 0,1 0,1l0 0c0,0 0,0 0,0 0,0 0,0 0,0 0,0 0,0 0,0 0,0 0,0 0,0 3,0 5,2 7,3 -5,5 -12,8 -19,8z"></path>
  <path class="fil28" d="M591 203c-2,-1 -4,-3 -7,-3 0,0 0,0 0,0l0 0c0,0 0,0 0,0l0 0c0,0 0,0 0,0l0 0c0,0 0,0 0,0l0 0 0 0 0 0c0,0 0,0 0,-1l0 0c0,0 0,0 0,0l0 0c0,0 0,0 0,0l0 0c0,0 0,0 -1,0l0 0c0,0 0,0 0,0l0 0c0,0 0,0 0,0l0 0c-1,0 -2,0 -3,0l0 0c0,0 0,0 0,0l0 0c0,0 0,0 0,0l0 0c-1,0 -2,0 -4,0 -2,1 -5,2 -7,2l0 0c0,0 0,0 0,0l0 0c0,0 0,0 0,0l0 0c0,0 0,0 0,0l0 0c0,0 0,0 0,0l0 0c-2,1 -3,1 -4,1 -3,0 -4,-1 -5,-3 0,-3 -5,-4 -5,-7 0,0 0,0 0,0 0,-2 1,-2 1,-5 0,0 0,0 0,-1 0,0 0,0 0,0 0,-4 -1,-6 -3,-7 1,-3 2,-5 3,-7 6,-11 16,-17 26,-17 3,0 7,1 10,3 6,4 10,10 10,17 -1,1 -3,1 -5,1 -2,0 -3,1 -4,4 -2,3 -6,4 -4,7 0,1 3,3 4,3 0,0 0,0 1,0 1,0 2,-1 3,-1 1,0 2,1 3,2 -1,2 -2,3 -2,4 -2,3 -4,6 -7,8zm-14 -43c-5,0 -11,4 -14,9 -5,8 -4,17 3,21 2,1 3,1 5,1 6,0 11,-3 15,-9 4,-7 3,-17 -4,-20 -1,-1 -3,-2 -5,-2z"></path>
  <path class="fil27" d="M600 191c-1,-1 -2,-2 -3,-2 -1,0 -2,1 -3,1 -1,0 -1,0 -1,0 -1,0 -4,-2 -4,-3 -2,-3 2,-4 4,-7 1,-3 2,-4 4,-4 2,0 4,0 5,-1 1,5 0,11 -2,16z"></path>
  <path class="fil29" d="M571 191c-2,0 -3,0 -5,-1 -7,-4 -8,-13 -3,-21 3,-5 9,-9 14,-9 2,0 4,1 5,2 7,3 8,13 4,20 -4,6 -9,9 -15,9z"></path>
  <path class="fil18" d="M662 190c-2,1 -8,1 -10,13 -1,12 2,13 4,13 2,1 6,3 6,3l0 11c0,0 5,2 11,0 5,-2 5,-2 5,-2 0,0 -2,-4 -2,-10 1,-8 4,-19 2,-23 -4,-7 -12,-8 -16,-5z"></path>
  <path class="fil21" d="M689 295c-2,2 -4,2 -8,3 0,-3 -3,-6 -3,-6 0,0 -1,5 -1,8 -3,0 -9,1 -11,2 -6,0 -17,-3 -20,-8 4,-11 6,-33 6,-33 0,0 -6,-14 -2,-22 4,-7 9,-8 13,-10 4,-1 16,-3 16,-3 0,0 12,9 9,20 -2,10 -2,16 -2,21 0,5 3,23 3,28z"></path>
  <path class="fil18" d="M646 277c-3,2 -4,2 -8,0 -3,-4 2,-6 1,-10l0 0c3,-9 7,-18 7,-18l13 4c0,0 -3,8 -7,16 -2,3 -4,7 -6,8z"></path>
  <path class="fil18" d="M606 249c4,2 7,2 7,2 0,0 0,-2 -1,-3 -1,-2 0,-4 2,-1 2,3 5,5 6,7 1,3 4,3 12,7 4,2 8,3 11,4 -2,4 -3,8 -4,12 -8,-4 -19,-14 -22,-15 -4,-2 -11,-5 -15,-9 -3,-3 -1,-6 4,-4z"></path>
  <path class="fil19" d="M655 233c2,0 6,2 8,7 2,8 -1,11 -3,15 0,2 -3,6 -3,6 -2,0 -5,0 -9,-2 -4,-2 -5,-5 -5,-5 0,0 1,-6 3,-11 1,-4 4,-8 9,-10z"></path>
  <path class="fil30" d="M658 231c0,0 2,-4 6,-4 11,-1 13,-3 13,-3 0,0 2,0 4,2 0,1 1,2 1,2 0,0 -13,7 -24,3z"></path>
  <path class="fil20" d="M651 199c0,0 3,2 7,4 -1,20 -5,24 3,28 2,2 8,4 8,12 2,13 10,15 10,15 0,0 8,-8 9,-27 0,-10 -1,-36 -5,-41 -6,-7 -13,-7 -20,-5 -5,-1 -10,1 -12,14z"></path>
  <path class="fil20" d="M260 525c-3,8 -8,28 -7,30 0,5 9,11 11,7 1,-5 5,-16 6,-19 3,-7 6,-21 7,-23 0,-9 5,-23 10,-29 0,0 -5,-2 -8,1 -2,2 -7,7 -10,12 -1,2 -7,15 -9,21z"></path>
  <path class="fil31" d="M215 656c-4,4 -5,5 -9,8 -2,2 0,4 4,4 3,-1 11,-2 15,-4 3,-1 9,-4 12,-6 3,-1 3,-4 3,-4l0 -6 -18 1c0,0 -3,3 -7,7z"></path>
  <path class="fil31" d="M247 675c-4,4 -5,5 -8,8 -2,2 -1,4 3,4 4,-1 11,-2 16,-4 3,-1 9,-4 11,-6 3,-1 4,-4 4,-4l0 -11 -19 6c0,0 -3,3 -7,7z"></path>
  <path class="fil20" d="M313 570l-37 -14c0,0 -6,6 -17,13 -6,4 -24,14 -30,18 -4,2 -5,8 -6,19 -3,20 -4,43 -4,43 0,0 4,5 13,5 7,0 12,-2 12,-2l1 -45 30 -17c0,0 -17,10 -19,19 -2,8 -3,13 -3,23 -1,20 -1,33 -1,33 0,0 1,6 10,6 7,0 13,-5 13,-5l2 -46c0,0 26,-18 33,-26 8,-9 3,-24 3,-24z"></path>
  <path class="fil31" d="M283 493c0,0 -11,9 -13,21 0,6 1,27 1,41 -5,4 -20,12 -20,12 0,0 12,4 17,12 5,-2 9,-5 9,-5 0,0 -1,2 -3,7 3,1 14,-2 25,3 10,4 18,2 18,2 0,0 2,-9 0,-17 -1,-7 -4,-16 -3,-20 2,-14 4,-36 4,-40 -1,-6 -15,-12 -15,-12 0,0 -10,-8 -20,-4z"></path>
  <path class="fil20" d="M289 492c0,0 -6,0 -12,10 -2,4 -3,6 -3,6l3 3 -4 2c0,0 -2,16 -1,23 2,7 9,20 9,20 0,0 5,-14 7,-18 2,-4 11,-14 11,-14l-5 -6 7 -2c0,0 9,-12 8,-15 -1,-7 -8,-8 -8,-8l-12 -1z"></path>
  <path class="fil0" d="M282 504c0,0 -3,8 -4,15 -2,7 2,30 2,30 0,0 4,-23 8,-29 6,-8 13,-15 13,-15 0,0 -15,-3 -19,-1z"></path>
  <path class="fil32" d="M284 505l0 6c0,0 -4,4 -5,8 -1,4 0,20 0,20l1 10 2 -7c0,0 2,-9 3,-15 1,-3 1,-5 1,-5 1,-3 1,-9 1,-9l4 -5 -4 -4 -3 1z"></path>
  <path class="fil33" d="M287 493l-1 9c0,0 1,2 5,5 3,-1 11,-9 11,-9l-2 -14 -13 9z"></path>
  <path class="fil18" d="M301 467c-4,-4 -14,-8 -21,2 -7,10 0,27 6,26 3,0 11,-3 15,-9 4,-6 3,-15 0,-19z"></path>
  <path class="fil0" d="M287 495l0 9 -6 3c0,0 -1,-10 6,-12z"></path>
  <path class="fil0" d="M301 493c0,0 -2,3 -6,7 -3,3 -8,4 -8,4l3 7c0,0 9,-4 12,-7 0,0 4,-7 -1,-11z"></path>
  <path class="fil20" d="M277 472c2,3 4,5 10,6 5,0 9,-2 9,-2l-1 7c0,0 1,0 2,-1 0,-2 2,-2 3,-1 1,1 1,5 1,5 0,0 5,-4 5,-11 0,-5 -4,-15 -12,-16 -9,-1 -15,4 -17,8 -1,2 0,4 0,5z"></path>
  <path class="fil2" d="M296 581l-1 0 -34 -19c-1,-1 -5,-1 -7,0l-22 13 -1 0 -1 0 0 2 0 0c0,1 1,2 1,2l34 19c2,1 5,1 7,0l23 -13c1,-1 1,-1 1,-2l0 0 0 -2z"></path>
  <path class="fil34" d="M265 596l-34 -19c-1,-1 -1,-3 1,-4l22 -12c2,-2 6,-2 7,-1l34 19c2,1 2,3 0,4l-23 13c-2,1 -5,1 -7,0z"></path>
  <polygon class="fil35" points="259,561 235,574 270,594 294,581 "></polygon>
  <polygon class="fil34" points="257,561 255,562 290,582 292,581 "></polygon>
  <polygon class="fil34" points="284,579 282,580 287,583 289,582 "></polygon>
  <polygon class="fil34" points="278,576 276,577 280,579 281,578 "></polygon>
  <polygon class="fil34" points="273,573 271,574 275,577 277,576 "></polygon>
  <polygon class="fil34" points="268,571 267,572 270,574 272,573 "></polygon>
  <polygon class="fil34" points="280,584 278,585 280,587 282,586 "></polygon>
  <polygon class="fil34" points="276,582 274,583 277,585 278,584 "></polygon>
  <polygon class="fil34" points="271,579 269,580 273,583 275,582 "></polygon>
  <polygon class="fil34" points="276,586 275,587 277,589 279,588 "></polygon>
  <polygon class="fil34" points="273,584 271,585 273,586 275,585 "></polygon>
  <polygon class="fil34" points="273,588 271,589 274,590 276,589 "></polygon>
  <polygon class="fil34" points="269,586 267,587 270,588 272,587 "></polygon>
  <polygon class="fil34" points="268,581 266,582 270,584 272,583 "></polygon>
  <polygon class="fil34" points="266,577 265,578 268,580 270,579 "></polygon>
  <polygon class="fil34" points="262,574 260,575 264,577 266,576 "></polygon>
  <polygon class="fil34" points="279,581 278,582 284,585 286,584 "></polygon>
  <polygon class="fil34" points="274,578 273,579 276,581 278,580 "></polygon>
  <polygon class="fil34" points="270,575 268,576 272,578 274,577 "></polygon>
  <polygon class="fil34" points="265,572 263,573 267,576 269,575 "></polygon>
  <path class="fil18" d="M280 566c0,0 -6,2 -9,4 -4,2 -14,11 -12,13 3,2 8,4 9,4 2,-1 5,-4 6,-5 1,-1 7,-4 9,-6 2,-3 -3,-10 -3,-10z"></path>
  <path class="fil3" d="M271 593l0 -28c0,-1 -1,-2 -2,-3l-33 -19c-1,0 -2,0 -3,1l-1 0 0 0c0,1 0,1 0,2l0 28c0,1 0,2 1,2l34 19 0 0 1 1 2 -1c1,-1 1,-1 1,-2z"></path>
  <path class="fil35" d="M269 566l1 28c0,2 -3,3 -5,2l-33 -19c-1,0 -2,-1 -2,-2l0 -28c0,-2 2,-4 4,-3l34 19c1,1 1,2 1,3z"></path>
  <polygon class="fil0" points="241,584 233,580 233,576 241,581 "></polygon>
  <polygon class="fil0" points="263,597 255,592 255,589 263,593 "></polygon>
  <path class="fil0" d="M252 571c0,2 -2,2 -4,1 -1,-1 -3,-3 -3,-5 0,-1 2,-2 3,-1 2,1 4,3 4,5z"></path>
  <path class="fil20" d="M324 539c3,-14 2,-27 -6,-32 -6,-4 -9,11 -11,23 0,3 -3,16 -3,19 -4,1 -26,14 -29,17 1,1 6,5 8,13 8,-2 23,-11 32,-15 7,-4 8,-18 9,-25z"></path>
  <path class="fil36" d="M731 572c0,0 -10,3 -17,7 -8,4 -11,9 -16,6 -5,-2 -8,-20 -8,-20l44 -7c0,0 2,11 -3,14z"></path>
  <path class="fil18" d="M729 553c0,0 11,9 10,18 -1,5 0,7 -1,14 -1,6 0,28 0,35 1,4 7,9 10,11 3,3 2,6 3,7 2,3 -6,5 -11,1 -5,-4 -12,-7 -13,-13 0,-8 -1,-20 -4,-30 -1,-7 -1,-14 -1,-20 0,-4 -15,-17 -15,-18 -2,-3 22,-5 22,-5z"></path>
  <path class="fil18" d="M714 568c3,2 5,8 4,13 -1,5 -1,9 -2,14 0,6 -2,32 -2,40 0,6 2,11 2,15 1,2 -1,4 -1,6 1,4 -8,3 -10,2 -3,-1 -3,-18 -1,-23 0,-6 -1,-16 -4,-27 -3,-11 1,-25 -1,-27 -5,-6 -14,-10 -15,-16 0,-7 7,-18 13,-15 3,1 9,10 17,18z"></path>
  <path class="fil20" d="M665 536c0,0 -7,16 -1,26 5,9 34,23 34,23 0,0 2,-11 9,-15 6,-4 28,-12 28,-12 0,0 -2,-4 -8,-8 -7,-5 -29,-19 -29,-19 0,0 -13,16 -33,5z"></path>
  <path class="fil18" d="M716 523c3,-1 5,-2 8,-3 -1,-2 -3,-6 -5,-10 -2,-5 -6,-10 -6,-11 -3,-3 -9,-12 -9,-12l-9 7c0,0 11,13 13,15 1,2 7,11 8,13 0,1 0,1 0,1z"></path>
  <path class="fil31" d="M748 631c0,0 6,3 8,6 3,4 0,8 -7,7 -4,0 -9,-4 -11,-6 -3,-2 -8,-4 -10,-6 -2,-2 -1,-6 -1,-6 0,0 1,2 4,4 3,2 7,5 8,5 5,2 8,3 10,1 1,-2 -1,-5 -1,-5z"></path>
  <path class="fil31" d="M716 648c0,0 1,4 -1,7 -2,2 -6,2 -9,-2 -2,-4 -2,-9 -3,-12 0,-3 1,-6 1,-6 0,0 -3,2 -2,5 1,4 0,9 0,12 1,7 2,11 7,13 4,2 10,1 10,-5 0,-7 -3,-12 -3,-12z"></path>
  <path class="fil19" d="M696 496c0,0 2,-1 4,-3 3,-2 4,-5 4,-5 0,0 -3,-12 -13,-16 -5,-2 -11,3 -11,3l16 21z"></path>
  <path class="fil0" d="M703 486l2 2c0,0 -3,7 -8,8 -4,1 -2,-3 -2,-3 0,0 3,1 8,-7z"></path>
  <path class="fil21" d="M655 493c1,-4 12,-12 12,-12 0,0 7,4 10,6 2,2 6,6 6,6l0 0c0,0 0,-6 -3,-12 -1,-2 0,-8 0,-8 0,0 1,0 2,-1 2,2 7,8 9,11 2,2 11,9 9,16 -1,3 -2,5 -3,8 -1,3 0,9 0,12 0,4 4,13 4,13 0,0 -8,11 -17,11 -11,0 -19,-7 -19,-7 0,0 1,-17 1,-23 0,0 -14,-7 -11,-20z"></path>
  <path class="fil19" d="M684 479c0,0 6,8 6,11 -2,1 -6,4 -6,4l-4 -15 4 0z"></path>
  <path class="fil18" d="M698 540c-7,-5 -14,-9 -21,-13 -2,-3 -3,-4 -5,-8 -1,-4 -4,-10 -4,-10l-12 4c0,0 5,11 7,14 2,3 4,7 7,10 4,2 8,5 24,10 0,-3 4,-7 4,-7z"></path>
  <path class="fil37" d="M692 476c1,1 2,2 3,3 1,-17 -1,-25 -1,-25l-10 17c0,0 -1,1 -1,1 3,0 7,2 9,4z"></path>
  <path class="fil38" d="M681 474c0,0 0,6 1,10 1,1 3,6 2,10 -2,-1 -6,-4 -8,-6 -3,-2 -10,-7 -10,-7l1 -19 14 12z"></path>
  <path class="fil18" d="M673 450c4,-3 15,-4 18,7 4,11 -6,25 -11,22 -3,-1 -10,-6 -12,-11 -2,-7 1,-15 5,-18z"></path>
  <path class="fil19" d="M666 477c0,0 5,3 9,7 5,6 9,10 9,10 0,0 -2,2 -9,2 -5,-5 -10,-8 -12,-12 0,-2 3,-7 3,-7z"></path>
  <path class="fil19" d="M658 517c-2,-3 -5,-6 -6,-7 -1,-5 -4,-13 4,-19 6,-5 12,7 13,11 2,5 1,8 1,11 -2,3 -8,6 -12,4z"></path>
  <path class="fil0" d="M670 512c0,1 1,3 1,3 0,0 -2,3 -7,4 -3,1 -5,1 -5,1l-2 -4c0,0 4,0 7,-1 3,-1 6,-3 6,-3z"></path>
  <path class="fil20" d="M692 451c-7,-13 -16,-6 -16,-6 0,0 -5,-3 -10,3 -3,4 -7,18 -3,25 1,3 5,8 14,10 -2,-3 -1,-11 1,-14 4,-6 4,-14 4,-14 0,0 7,1 10,8 2,-2 4,-7 0,-12z"></path>
  <path class="fil2" d="M733 508c0,0 -1,0 -2,0l-16 9c-2,1 -4,3 -5,5l-17 30c-1,1 -1,1 -1,1l0 0 2 1 1 -1 15 -9c2,-1 4,-3 5,-4l18 -30 0 0 0 0 2 -1 -2 -1 0 0z"></path>
  <path class="fil35" d="M733 509l-16 9c-2,1 -4,3 -5,5l-18 29c-1,2 0,3 2,2l16 -9c2,-1 4,-3 5,-4l17 -30c1,-2 1,-3 -1,-2z"></path>
  <path class="fil18" d="M726 525c-4,2 -7,7 -7,10 1,2 4,0 6,-2 1,-3 2,-5 1,-8z"></path>
  <path class="fil18" d="M693 537c0,0 3,1 5,0 3,-2 4,-2 4,-2 0,0 -1,2 1,3 2,1 2,1 5,0 2,0 4,0 2,4 -2,2 -6,5 -8,6 -3,1 -6,0 -10,-2 -6,-1 1,-9 1,-9z"></path>
  <path class="fil39" d="M403 110c-13,-13 -30,-20 -50,-20 -32,0 -59,21 -67,50 -1,6 -2,12 -2,18 0,15 4,28 12,39 12,18 33,30 57,30 33,0 60,-22 68,-52 2,-5 2,-11 2,-17 0,-19 -7,-36 -20,-48z"></path>
  <path class="fil40" d="M403 110c-1,2 -2,5 -3,6 -5,2 -8,4 -11,2 -5,-4 -11,-5 -13,-5 -4,0 -6,1 -9,3 -2,1 -4,1 -6,1 -1,0 -2,0 -3,1 -2,0 -5,2 -6,4 -3,4 -2,6 0,8 4,5 10,2 12,8 2,4 0,9 0,12 1,5 -1,10 -8,13 -2,0 -5,5 -7,5 -4,1 -7,-3 -9,-6 -2,-2 -5,-2 -7,-2 -6,0 -6,3 -9,8 -1,3 -3,5 -3,7 0,4 4,7 7,12 1,2 4,4 4,8 0,4 3,6 5,7 3,1 9,1 12,1 5,1 8,5 12,6 4,1 8,2 10,1 2,-1 1,-3 4,-5 4,-3 8,-5 12,-9 2,-2 4,-5 6,-7 4,-4 10,-5 15,-7 3,-2 9,-4 13,-7 2,-5 2,-11 2,-17 0,-19 -7,-36 -20,-48z"></path>
  <path class="fil40" d="M303 190c1,-2 3,-3 5,-4 2,-1 3,-2 4,-3 2,-3 3,-7 0,-10 -2,-2 -5,-5 -7,-6 -3,-2 -7,-2 -10,-4 -2,-2 -3,-4 -3,-7 0,-2 0,-4 -1,-5 -1,-2 -3,-3 -4,-5 -1,-2 -1,-4 -1,-6 -1,6 -2,12 -2,18 0,15 4,28 12,39 1,-1 2,-1 4,-2 2,-1 2,-3 3,-5z"></path>
  <path class="fil40" d="M305 135c0,-1 -3,-3 -4,-4 -1,-1 -2,0 -4,0 0,0 -1,0 -1,0 -1,-1 -1,-1 -2,0 -2,2 -2,4 -1,7 1,2 2,2 4,3 2,2 0,6 1,7 0,1 0,2 1,3 1,0 2,0 4,-1 1,-1 2,-1 3,-1 1,0 1,0 2,0 2,-1 3,-2 4,-5 0,-2 -1,-3 -3,-4 -2,-1 -3,-4 -4,-5z"></path>
  <path class="fil41" d="M305 207c0,0 0,0 0,0 -20,-18 -31,-51 -12,-83 11,-19 29,-30 48,-33 -26,4 -48,24 -55,49 -1,6 -2,12 -2,18 0,15 4,28 12,39 2,4 5,7 9,10zm-21 -49l0 0zm12 39l0 0zm86 -101c-3,-2 -6,-3 -10,-4l0 0 0 0 0 0 0 0c4,1 7,2 10,4l0 0zm0 0l0 0z"></path>
  <path class="fil42" d="M328 213c-8,0 -16,-2 -23,-6 -4,-3 -7,-6 -9,-10 1,-1 2,-1 4,-2 2,-1 2,-3 3,-5 1,-2 3,-3 5,-4 2,-1 3,-2 4,-3 1,-2 1,-3 2,-4 3,1 6,1 9,1 2,2 4,4 5,7 1,2 4,4 4,8 0,4 3,6 5,7 3,1 9,1 12,1 3,1 4,2 6,3 -9,5 -18,7 -27,7zm-31 -49c-1,0 -1,-1 -2,-1 -2,-2 -3,-4 -3,-7 0,-2 0,-4 -1,-5 -1,-2 -3,-3 -4,-5 -1,-2 -1,-4 -1,-6 -1,6 -2,12 -2,18l0 0c0,-6 1,-12 2,-18 7,-25 29,-45 55,-49 4,-1 8,-1 12,-1 7,0 13,1 19,2 4,1 7,2 10,4 7,6 11,13 14,22 -2,0 -3,1 -4,1 -1,0 -2,-1 -3,-1 -5,-4 -11,-5 -13,-5 -1,0 -1,0 -1,0 -3,0 -6,1 -8,3 0,0 0,0 0,0 -3,-7 -7,-12 -14,-16 -4,-2 -9,-3 -15,-3 -14,0 -29,9 -38,24 -2,3 -3,6 -4,9 -1,0 -1,0 -1,0 0,0 -1,0 -1,1 -2,2 -2,4 -1,7 0,0 0,1 0,1 -1,9 0,18 4,25zm61 -2c2,-2 3,-4 4,-6 1,-1 2,-3 2,-4 0,4 -2,7 -6,10z"></path>
  <path class="fil43" d="M355 206c-2,-1 -3,-2 -6,-3 -3,0 -9,0 -12,-1 -2,-1 -5,-3 -5,-7 0,-4 -3,-6 -4,-8 -1,-3 -3,-5 -5,-7 0,0 1,0 1,0 12,0 25,-6 34,-18 4,-3 6,-6 6,-10 6,-12 7,-26 3,-36 0,0 0,0 0,0 2,-2 5,-3 8,-3 0,0 0,0 1,0 2,0 8,1 13,5 1,0 2,1 3,1 1,0 2,-1 4,-1 5,17 2,38 -9,58 -8,13 -19,24 -32,30z"></path>
  <path class="fil43" d="M296 197c-8,-11 -12,-24 -12,-39l0 0c0,-6 1,-12 2,-18 0,2 0,4 1,6 1,2 3,3 4,5 1,1 1,3 1,5 0,3 1,5 3,7 1,0 1,1 2,1 3,5 7,10 12,13 1,0 3,1 5,2 -1,1 -1,2 -2,4 -1,1 -2,2 -4,3 -2,1 -4,2 -5,4 -1,2 -1,4 -3,5 -2,1 -3,1 -4,2l0 0z"></path>
  <path class="fil43" d="M293 139c0,0 0,-1 0,-1 -1,-3 -1,-5 1,-7 0,-1 1,-1 1,-1 0,0 0,0 1,0 -1,3 -2,6 -3,9z"></path>
  <path class="fil44" d="M323 180c-3,0 -6,0 -9,-1 0,-2 0,-4 -2,-6 -2,-2 -5,-5 -7,-6 -3,-1 -6,-2 -8,-3 -4,-7 -5,-16 -4,-25 1,1 2,1 4,2 2,2 0,6 1,7 0,1 0,2 1,3 0,0 1,0 1,0 1,0 2,-1 3,-1 1,-1 1,-1 2,-1 0,0 1,0 1,0 0,0 0,0 0,0 1,0 1,0 2,0 2,-1 2,-2 3,-3 1,1 2,2 3,2 3,2 6,3 9,3 7,0 16,-5 21,-14 7,-12 5,-26 -5,-31 -2,-1 -5,-2 -8,-2 -8,0 -17,5 -22,13 -3,6 -4,13 -3,19 0,0 -1,-1 -1,-1 0,-1 -3,-3 -4,-4 0,0 -1,0 -1,0 -1,0 -2,0 -3,0l0 0c0,0 -1,0 -1,0 0,-1 0,-1 0,-1 1,-3 2,-6 4,-9 9,-15 24,-24 38,-24 6,0 11,1 15,3 7,4 11,9 14,16 -2,1 -4,1 -6,1 0,0 0,0 0,0 0,0 0,0 -1,0 0,0 -1,0 -2,1 -2,0 -5,2 -6,4 -3,4 -2,6 0,8 4,5 10,2 12,8 2,4 0,9 0,12 0,1 0,1 0,2 0,1 -1,3 -2,4 -1,2 -2,4 -4,6 0,0 -1,0 -2,1 -2,0 -5,5 -7,5 -1,0 -1,0 -1,0 -4,0 -6,-3 -8,-6 -2,-2 -4,-2 -6,-2 -1,0 -1,0 -1,0 -6,0 -6,3 -9,8 -1,3 -3,5 -3,7 0,2 1,4 2,5z"></path>
  <path class="fil45" d="M324 180c0,0 -1,0 -1,0 -1,-1 -2,-3 -2,-5 0,-2 2,-4 3,-7 3,-5 3,-8 9,-8 0,0 0,0 1,0 2,0 4,0 6,2 2,3 4,6 8,6 0,0 0,0 1,0 2,0 5,-5 7,-5 1,-1 2,-1 2,-1 -9,12 -22,18 -34,18zm40 -28c0,-1 0,-1 0,-2 0,-3 2,-8 0,-12 -2,-6 -8,-3 -12,-8 -2,-2 -3,-4 0,-8 1,-2 4,-4 6,-4 1,-1 2,-1 2,-1 1,0 1,0 1,0 0,0 0,0 0,0 2,0 4,0 6,-1 4,10 3,24 -3,36z"></path>
  <path class="fil45" d="M314 179c-2,-1 -4,-2 -5,-2 -5,-3 -9,-8 -12,-13 2,1 5,2 8,3 2,1 5,4 7,6 2,2 2,4 2,6z"></path>
  <path class="fil45" d="M300 151c0,0 -1,0 -1,0 -1,-1 -1,-2 -1,-3 -1,-1 1,-5 -1,-7 -2,-1 -3,-1 -4,-2 1,-3 2,-6 3,-9 0,0 0,0 0,1 0,0 1,0 1,0l0 0c1,0 2,0 3,0 0,0 1,0 1,0 1,1 4,3 4,4 0,0 1,1 1,1 0,4 2,7 5,10 -1,1 -1,2 -3,3 -1,0 -1,0 -2,0 0,0 0,0 0,0 0,0 -1,0 -1,0 -1,0 -1,0 -2,1 -1,0 -2,1 -3,1z"></path>
  <path class="fil46" d="M323 151c-3,0 -6,-1 -9,-3 -1,0 -2,-1 -3,-2 0,0 0,-1 1,-2 0,-2 -1,-3 -3,-4 -1,-1 -3,-3 -3,-4 -1,-6 0,-13 3,-19 5,-8 14,-13 22,-13 3,0 6,1 8,2 10,5 12,19 5,31 -5,9 -14,14 -21,14z"></path>
  <path class="fil47" d="M311 146c-3,-3 -5,-6 -5,-10 0,1 2,3 3,4 2,1 3,2 3,4 -1,1 -1,2 -1,2z"></path>
  <path class="fil48" d="M738 468l0 -17c2,5 3,10 4,15l-4 2z"></path>
  <path class="fil49" d="M742 466c-1,-5 -2,-10 -4,-15l0 -4c2,6 4,12 4,18l0 1z"></path>
  <path class="fil48" d="M766 452c-5,-15 -15,-30 -28,-43l0 -46 88 -49 0 104 -41 23 -2 1 0 0 -17 10zm54 -81l-25 13 0 44 25 -13 0 -44zm-30 1l-45 25 0 5 45 -25 0 -5zm0 -10l-45 25 0 5 45 -25 0 -5zm0 -10l-45 25 0 5 45 -25 0 -5zm30 -29l-25 14 0 36 25 -13 0 -37zm-30 19l-45 25 0 5 45 -25 0 -5z"></path>
  <path class="fil50" d="M742 465c0,-6 -2,-12 -4,-18l0 -38c13,13 23,28 28,43l-24 13z"></path>
  <polygon class="fil4" points="790,433 745,458 745,410 790,385 "></polygon>
  <polygon class="fil51" points="795,373 795,337 820,323 820,360 "></polygon>
  <polygon class="fil52" points="795,428 795,384 820,371 820,415 "></polygon>
  <polygon class="fil52" points="745,372 745,367 790,342 790,347 "></polygon>
  <polygon class="fil52" points="745,382 745,377 790,352 790,357 "></polygon>
  <polygon class="fil52" points="745,392 745,387 790,362 790,367 "></polygon>
  <polygon class="fil52" points="745,402 745,397 790,372 790,377 "></polygon>
  <path class="fil53" d="M302 380c-2,-1 -4,-2 -7,-3 -1,-1 -3,-2 -4,-3 8,-4 17,-8 26,-12 0,5 -1,9 -3,11 -4,2 -8,4 -12,7z"></path>
  <path class="fil54" d="M302 380c0,0 0,0 0,0 4,-3 8,-5 12,-7 -2,3 -4,5 -7,6 0,-1 1,-2 1,-3 -2,1 -4,2 -6,4z"></path>
  <path class="fil54" d="M304 380c-1,0 -2,0 -2,0 2,-2 4,-3 6,-4 0,1 -1,2 -1,3 -1,1 -2,1 -3,1z"></path>
  <path class="fil55" d="M291 374c-1,-1 -2,-2 -3,-3 9,-4 19,-8 29,-12 0,1 0,2 0,2 0,1 0,1 0,1 -9,4 -18,8 -26,12z"></path>
  <path class="fil53" d="M282 364c-5,-8 -8,-18 -8,-27 0,-11 5,-18 13,-18 2,0 5,1 8,2 9,5 17,17 20,30 -4,1 -8,3 -12,4 0,0 0,0 0,-1 0,-6 -4,-14 -9,-17 -2,0 -3,-1 -4,-1 -3,0 -5,3 -5,8 0,6 3,12 7,16 -4,1 -7,2 -10,4z"></path>
  <path class="fil54" d="M282 364c0,0 0,0 0,0 3,-2 6,-3 10,-4 0,0 0,0 0,0 -3,1 -7,3 -10,4zm21 -9c0,0 0,0 0,0 4,-1 8,-3 12,-4 0,0 0,0 0,0 -4,1 -8,3 -12,4z"></path>
  <path class="fil54" d="M288 371c-2,-2 -4,-4 -6,-7 3,-1 7,-3 10,-4 0,0 1,1 2,1 1,1 2,1 3,1 3,0 5,-2 6,-7 4,-1 8,-3 12,-4 1,2 1,5 2,8 -10,4 -20,8 -29,12z"></path>
  <path class="fil56" d="M292 360c-4,-4 -7,-10 -7,-16 0,-5 2,-8 5,-8 1,0 2,1 4,1 5,3 9,11 9,17 0,1 0,1 0,1 -4,2 -8,3 -11,5z"></path>
  <path class="fil57" d="M292 360c0,0 0,0 0,0 3,-2 7,-3 11,-5 0,0 0,0 0,0 -4,2 -8,3 -11,5z"></path>
  <path class="fil57" d="M297 362c-1,0 -2,0 -3,-1 -1,0 -2,-1 -2,-1 3,-2 7,-3 11,-5 -1,5 -3,7 -6,7z"></path>
  <path class="fil58" d="M554 150c-5,0 -9,-5 -9,-13 0,-10 7,-22 15,-27 2,-1 4,-1 6,-1 5,0 8,4 8,12 0,10 -6,23 -14,27 -2,1 -4,2 -6,2zm10 -30c-1,0 -2,1 -3,1 -3,2 -6,7 -6,12 0,3 1,5 4,5 0,0 1,0 2,-1 3,-2 6,-7 6,-11 0,-4 -1,-6 -3,-6z"></path>
  <path class="fil59" d="M559 138c-3,0 -4,-2 -4,-5 0,-5 3,-10 6,-12 1,0 2,-1 3,-1 2,0 3,2 3,6 0,4 -3,9 -6,11 -1,1 -2,1 -2,1z"></path>
  <path class="fil60" d="M516 257c-3,-1 -6,-2 -9,-2l9 -6 0 8z"></path>
  <path class="fil48" d="M479 294l0 -23 28 -16c3,0 6,1 9,2l0 9 -7 4 0 7 -30 17z"></path>
  <path class="fil61" d="M534 263c-3,-1 -5,-2 -8,-3l8 -4 0 7z"></path>
  <path class="fil53" d="M509 285l0 -8 7 -4 0 -7 10 -6c3,1 5,2 8,3l0 9 -25 13z"></path>
  <polygon class="fil51" points="509,277 509,270 516,266 516,273 "></polygon>
  <path class="fil62" d="M329 285c-1,-15 -11,-30 -22,-35 -2,-1 -4,-1 -7,-1 -8,0 -15,8 -14,21 0,2 0,4 0,6 -4,-1 -8,-3 -11,-5l0 -55 67 39 0 28c-1,0 -2,1 -4,1 -3,0 -6,0 -9,1zm-51 -63l0 5 61 35 0 -5 -61 -35zm0 18l0 3 11 7 0 -3 -11 -7zm0 -7l0 3 16 9 0 -2 -16 -10z"></path>
  <path class="fil48" d="M342 334l-67 -38 0 -25c3,2 7,4 11,5 3,14 12,27 22,32 3,0 5,1 7,1 9,0 15,-8 15,-21 0,-1 0,-2 -1,-3 3,-1 6,-1 9,-1 2,0 3,-1 4,-1l0 51zm-20 -19l0 3 16 9 0 -2 -16 -10z"></path>
  <polygon class="fil63" points="339,262 278,227 278,222 339,257 "></polygon>
  <polygon class="fil64" points="294,245 278,236 278,233 294,243 "></polygon>
  <polygon class="fil52" points="338,327 322,318 322,315 338,325 "></polygon>
  <polygon class="fil65" points="289,250 278,243 278,240 289,247 "></polygon>
  <path class="fil66" d="M326 285c-3,0 -7,-1 -10,-1 0,0 0,-1 0,-1 0,-7 -4,-14 -10,-16 0,-1 -1,-1 -2,-1 -4,0 -7,4 -7,9 1,2 1,4 1,5 -4,-1 -8,-2 -12,-4 0,-2 0,-4 0,-6 -1,-13 6,-21 14,-21 3,0 5,0 7,1 11,5 21,20 22,35 -1,0 -2,0 -3,0z"></path>
  <path class="fil67" d="M315 309c-2,0 -4,-1 -7,-1 -10,-5 -19,-18 -22,-32 4,2 8,3 12,4 2,5 5,10 9,11 1,0 2,1 3,1 3,0 6,-3 6,-8 3,0 7,1 10,1 1,0 2,0 3,0 1,1 1,2 1,3 0,13 -6,21 -15,21z"></path>
  <path class="fil68" d="M316 284c-6,-1 -12,-2 -18,-4 0,-1 0,-3 -1,-5 0,-5 3,-9 7,-9 1,0 2,0 2,1 6,2 10,9 10,16 0,0 0,1 0,1z"></path>
  <path class="fil69" d="M310 292c-1,0 -2,-1 -3,-1 -4,-1 -7,-6 -9,-11 6,2 12,3 18,4 0,5 -3,8 -6,8z"></path>
  <path class="fil53" d="M169 511c-1,0 -3,0 -5,-1 -6,-4 -12,-15 -12,-23 0,-7 3,-11 8,-11 1,0 2,0 3,1l0 9c-1,0 -1,0 -1,0 -2,0 -3,2 -3,5 0,3 2,8 5,9 1,1 1,1 2,1 1,0 2,-1 3,-2l7 6c-1,4 -4,6 -7,6zm8 -8l-8 -6 0 0c0,-4 -2,-8 -4,-10l0 -9c6,3 12,14 12,22 0,1 0,2 0,3z"></path>
  <path class="fil48" d="M221 493l-20 -11c0,-1 0,-1 0,-2 0,-10 2,-21 6,-31l0 7 10 5 0 -12 -7 -4c0,-2 1,-3 2,-5l5 3 0 -11c1,-2 3,-4 4,-6l0 67zm-14 -31l0 13 10 5 0 -12 -10 -6z"></path>
  <path class="fil49" d="M201 480c0,0 0,0 0,-1 -1,-11 2,-22 6,-33l0 3c-4,10 -6,21 -6,31zm9 -35l-2 -1c1,-2 2,-3 3,-5l1 1c-1,2 -2,3 -2,5zm7 -13l0 -2 -1 0c2,-3 3,-5 5,-7l0 3c-1,2 -3,4 -4,6z"></path>
  <path class="fil48" d="M179 470l-78 -45 0 -103 120 68 0 13c-2,2 -5,4 -7,7l-7 -4 0 10c-6,7 -11,14 -15,21l0 -13c0,0 1,0 1,0 3,0 5,-2 5,-6 0,-5 -4,-11 -7,-13l-1 0c0,-1 -1,-1 -2,-1 -3,0 -5,2 -5,6 0,5 3,10 6,13l0 0 0 18c-3,6 -5,12 -7,18l-28 -16 0 -17 -24 -12 0 3 21 10 0 17 30 18c0,2 -1,5 -2,8zm-20 -61l0 28 24 14 0 -28 -20 -12 -6 -10 0 0 -27 -15 0 2 25 14 4 7 0 0zm-55 9l0 4 24 14 0 -5 -24 -13zm0 -10l0 5 24 14 0 -5 -24 -14zm0 -9l0 4 24 14 0 -5 -24 -13zm0 -10l0 5 24 14 0 -5 -24 -14zm54 0l23 13 0 -28 -24 -14 0 27 -3 2 -24 -13 0 2 24 13 4 -2zm-54 -9l0 4 24 14 0 -4 -24 -14zm0 -9l0 4 24 14 0 -5 -24 -13zm0 -10l0 5 24 13 0 -4 -24 -14zm0 -9l0 4 24 14 0 -5 -24 -13zm0 -22l0 12 24 14 0 -12 -24 -14z"></path>
  <path class="fil50" d="M201 482l-22 -12c1,-3 2,-6 2,-8l11 6 0 -31c4,-7 9,-14 15,-21l0 3 10 5 0 -12 -3 -2c2,-3 5,-5 7,-7l0 20c-2,2 -3,4 -5,7l-9 -5 0 12 4 2c-1,2 -2,3 -3,5l-1 0 0 2c-4,11 -7,22 -6,33 0,1 0,1 0,1 0,1 0,1 0,2zm-12 -18l-7 -5c2,-6 4,-12 7,-18l0 23z"></path>
  <path class="fil48" d="M191 424l0 0c-1,0 -1,-1 -1,-1 0,0 0,1 1,1l0 0z"></path>
  <polygon class="fil70" points="128,436 104,422 104,418 128,431 "></polygon>
  <polygon class="fil70" points="128,427 104,413 104,408 128,422 "></polygon>
  <polygon class="fil70" points="128,417 104,403 104,399 128,412 "></polygon>
  <polygon class="fil70" points="128,408 104,394 104,389 128,403 "></polygon>
  <polygon class="fil70" points="128,398 104,384 104,380 128,394 "></polygon>
  <polygon class="fil70" points="128,389 104,375 104,371 128,384 "></polygon>
  <polygon class="fil70" points="128,379 104,366 104,361 128,375 "></polygon>
  <polygon class="fil70" points="128,370 104,356 104,352 128,365 "></polygon>
  <polygon class="fil52" points="128,356 104,342 104,330 128,344 "></polygon>
  <polygon class="fil4" points="217,394 193,380 193,393 217,407 "></polygon>
  <path class="fil70" d="M207 416l0 -10 7 4c-3,2 -5,4 -7,6z"></path>
  <path class="fil71" d="M217 424l-10 -5 0 -3c2,-2 4,-4 7,-6l3 2 0 12z"></path>
  <path class="fil70" d="M217 443l-5 -3c2,-3 3,-5 5,-8l0 11z"></path>
  <path class="fil72" d="M212 440l-1 -1c1,-3 3,-6 5,-9l1 0 0 2c-2,3 -3,5 -5,8z"></path>
  <path class="fil71" d="M211 439l-4 -2 0 -12 9 5c-2,3 -4,6 -5,9z"></path>
  <path class="fil70" d="M217 461l-10 -5 0 -7c1,-1 2,-3 3,-4l7 4 0 12z"></path>
  <path class="fil72" d="M207 449l0 -3c1,-1 1,-1 1,-2l2 1c-1,1 -2,3 -3,4z"></path>
  <path class="fil71" d="M207 446l0 -2 1 0c0,1 0,1 -1,2z"></path>
  <polygon class="fil70" points="217,480 207,475 207,462 217,468 "></polygon>
  <polygon class="fil4" points="181,374 157,360 157,388 181,402 "></polygon>
  <polygon class="fil52" points="154,391 130,378 130,376 154,389 157,387 157,388 158,389 "></polygon>
  <path class="fil73" d="M158 389l-1 -1 0 -1 9 -6c0,-1 0,-1 0,-2 0,-2 1,-3 2,-3 0,0 1,0 1,0l0 0c2,1 4,4 4,7 0,2 -1,3 -2,3 -1,0 -1,0 -2,-1 -1,0 -2,-1 -2,-2l-9 6z"></path>
  <path class="fil51" d="M183 451l-24 -14 0 -28 0 0 8 15c0,1 0,2 0,3 0,4 2,8 4,9 1,1 2,1 2,1 2,0 3,-2 3,-4 0,-4 -2,-8 -5,-9l0 0c0,-1 -1,-1 -2,-1 0,0 0,0 0,0l-6 -12 20 12 0 28z"></path>
  <polygon class="fil70" points="163,411 159,409 155,402 130,388 130,386 157,401 157,401 "></polygon>
  <path class="fil74" d="M173 437c0,0 -1,0 -2,-1 -2,-1 -4,-5 -4,-9 0,-1 0,-2 0,-3l-8 -15 4 2 6 12c0,0 0,0 0,0 1,0 2,0 2,1l0 0c3,1 5,5 5,9 0,2 -1,4 -3,4zm-3 -10c0,0 -1,1 -1,2 0,1 1,3 2,4 1,0 1,0 1,0 1,0 1,-1 1,-2 0,-1 0,-3 -2,-4l0 0c0,0 0,0 -1,0z"></path>
  <path class="fil4" d="M169 379l0 0c-1,0 -1,0 -1,1 0,1 0,2 1,3 1,0 2,0 2,-1 0,-1 -1,-2 -2,-3z"></path>
  <path class="fil70" d="M193 424c0,0 -1,0 -1,0l0 0c0,0 -1,0 -1,0l0 0c-1,0 -1,-1 -1,-1 0,0 0,0 -1,0 -3,-3 -6,-8 -6,-13 0,-4 2,-6 5,-6 1,0 2,0 2,1l1 0c3,2 7,8 7,13 0,4 -2,6 -5,6zm-4 -16c-2,0 -3,2 -3,4 0,3 2,7 5,8 0,0 1,0 1,0 2,0 3,-1 3,-3 0,-3 -2,-7 -4,-8l0 0c-1,-1 -2,-1 -2,-1z"></path>
  <path class="fil75" d="M172 433c0,0 0,0 -1,0 -1,-1 -2,-3 -2,-4 0,-1 1,-2 1,-2 1,0 1,0 1,0l0 0c2,1 2,3 2,4 0,1 0,2 -1,2z"></path>
  <path class="fil76" d="M192 420c0,0 -1,0 -1,0 -3,-1 -5,-5 -5,-8 0,-2 1,-4 3,-4 0,0 1,0 2,1l0 0c2,1 4,5 4,8 0,2 -1,3 -3,3z"></path>
  <path class="fil52" d="M181 462l-30 -18 0 -17 -21 -10 0 -3 24 12 0 17 28 16c0,1 0,2 -1,3zm8 -21l0 -18 0 0c1,0 1,0 1,0 0,0 0,1 1,1l0 0c0,0 0,0 1,0l0 13c-1,2 -2,3 -3,4z"></path>
  <path class="fil77" d="M192 468l-11 -6c1,-1 1,-2 1,-3l7 5 0 -23c1,-1 2,-2 3,-4l0 31z"></path>
  <path class="fil76" d="M192 424c-1,0 -1,0 -1,0 0,0 1,0 1,0l0 0zm-2 -1c0,0 0,0 -1,0 1,0 1,0 1,0z"></path>
  <path class="fil53" d="M236 514l-5 -3c0,-1 1,-2 1,-3l3 3c0,1 0,2 1,3z"></path>
  <path class="fil55" d="M179 456l-2 -1c0,-1 0,-3 0,-4l1 1c0,1 0,3 1,4z"></path>
  <path class="fil54" d="M230 552l-48 -42c-1,-1 -1,-2 -1,-3l49 43 0 2 0 0z"></path>
  <path class="fil53" d="M184 485c0,0 0,0 0,0 -1,-1 -1,-1 -2,-1l0 -16 2 1 0 16z"></path>
  <polygon class="fil51" points="172,491 172,488 172,489 "></polygon>
  <path class="fil78" d="M176 505l-7 -6c-1,1 -2,2 -3,2 -1,0 -1,0 -2,-1 -3,-1 -5,-6 -5,-9 0,-3 1,-5 3,-5 0,0 0,0 1,0l0 -9c0,0 1,0 1,0 1,0 1,0 1,1l0 9c2,2 4,6 4,10l0 0 8 6c-1,1 -1,2 -1,2z"></path>
  <path class="fil53" d="M778 492c-3,0 -6,-3 -7,-7l8 -6c1,1 1,2 3,2 0,0 1,-1 2,-1 3,-2 5,-6 5,-10 0,-3 -1,-4 -3,-4 0,0 -1,0 -1,0l0 -9c1,0 2,-1 3,-1 5,0 8,4 8,11 0,9 -6,19 -13,23 -1,1 -3,2 -5,2zm-7 -9c0,0 0,0 0,0 0,-1 0,-2 0,-3 0,-1 0,-1 0,-1 1,-9 6,-17 12,-21l0 9c-3,2 -4,6 -4,9l0 0 -8 7z"></path>
  <path class="fil55" d="M771 483c0,0 0,0 0,0 0,0 0,0 0,0l0 0z"></path>
  <path class="fil54" d="M771 483c0,-1 0,-1 0,-2 0,-1 0,-2 0,-2 0,0 0,0 0,1 0,1 0,2 0,3 0,0 0,0 0,0l0 0z"></path>
  <path class="fil53" d="M727 523l3 -5 1 0c-1,2 -3,3 -4,5l0 0zm44 -38c0,0 0,-1 0,-2 0,1 0,2 0,2l0 0z"></path>
  <path class="fil55" d="M771 486c0,-1 0,-2 0,-3 0,0 0,0 0,0 0,1 0,2 0,2l0 1z"></path>
  <path class="fil54" d="M727 523c1,-2 3,-3 4,-5l40 -35c0,0 0,0 0,0 0,1 0,2 0,3l-44 37z"></path>
  <path class="fil53" d="M783 458l0 -16 2 -1 0 0 0 16c-1,0 -1,0 -2,1 0,0 0,0 0,0z"></path>
  <polygon class="fil51" points="783,442 783,442 785,441 "></polygon>
  <path class="fil78" d="M771 485c0,0 0,-1 0,-2 0,0 0,0 0,0 0,0 0,0 0,0l8 -7 0 0c0,-3 1,-7 4,-9l0 -9c0,0 0,0 0,0 1,-1 1,-1 2,-1l0 9c0,0 1,0 1,0 2,0 3,1 3,4 0,4 -2,8 -5,10 -1,0 -2,1 -2,1 -2,0 -2,-1 -3,-2l-8 6z"></path>
  <path class="fil79" d="M771 483c0,0 0,0 0,0 0,0 0,0 0,0l0 0c0,0 0,0 0,0 0,0 0,0 0,0z"></path>
  <path class="fil80" d="M771 483c0,0 0,0 0,0l0 0c0,0 0,0 0,0z"></path>
  <path class="fil81" d="M471 219l0 -100 64 -37 0 100 -31 18 0 0 -2 1 -31 18zm59 -55l-30 17 0 14 30 -18 0 -13zm0 -38l-30 18 0 29 30 -17 0 -30zm-43 14c-1,0 -2,0 -2,1 -4,1 -6,6 -7,10 0,4 2,6 5,6 0,0 1,0 1,0 4,-2 7,-6 7,-11 0,-3 -2,-6 -4,-6zm43 -49l-30 17 0 30 30 -17 0 -30z"></path>
  <polygon class="fil82" points="500,138 500,108 530,91 530,121 "></polygon>
  <polygon class="fil83" points="500,173 500,144 530,126 530,156 "></polygon>
  <polygon class="fil84" points="500,195 500,181 530,164 530,177 "></polygon>
  <path class="fil4" d="M491 123c0,5 -3,10 -7,11 -3,1 -6,-1 -6,-6 1,-4 3,-9 7,-10 3,-2 6,1 6,5z"></path>
  <path class="fil4" d="M491 146c0,5 -3,9 -7,11 -3,1 -6,-1 -6,-6 1,-4 3,-9 7,-10 3,-2 6,1 6,5z"></path>
  <path class="fil85" d="M484 153c-1,0 -2,-1 -2,-3 0,-2 1,-4 3,-5 0,0 0,0 1,0 1,0 2,1 2,3 0,2 -2,4 -3,5 -1,0 -1,0 -1,0z"></path>
  <path class="fil4" d="M491 169c0,5 -3,9 -7,11 -3,1 -6,-1 -6,-6 1,-4 3,-9 7,-10 3,-2 6,1 6,5z"></path>
  <path class="fil4" d="M491 192c0,5 -3,9 -7,11 -3,1 -6,-2 -6,-6 1,-4 3,-9 7,-11 3,-1 6,2 6,6z"></path>
  <g style="clip-path:url(#id0)">
   <image x="492" y="210" width="21.3164" height="27.7715" xlink:href="10164-topbg-b37eefed-9894-428e-9f60-5a5860880f6b_Images\10164-topbg-b37eefed-9894-428e-9f60-5a5860880f6b_ImgID1.png"></image>
  </g>
  <path class="fil86" d="M565 220c-2,0 -3,-2 -3,-4 0,0 0,-1 0,-1l2 0 0 0c0,1 1,2 2,2 0,0 0,0 1,0 1,-1 2,-3 2,-5 0,0 0,-1 0,-1 1,0 1,0 2,0 0,3 -2,7 -4,8 -1,1 -2,1 -2,1zm-2 -7c0,-1 1,-2 1,-3 1,0 2,0 3,1 0,0 0,0 0,0 -1,0 -2,1 -2,2l-2 0z"></path>
  <path class="fil87" d="M571 211c-1,0 -1,0 -2,0 -1,0 -1,-1 -1,-1 -1,0 -1,0 -1,1 -1,-1 -2,-1 -3,-1 1,-1 2,-2 3,-3 0,0 1,0 2,0 1,0 2,1 2,4 0,0 0,0 0,0z"></path>
  <path class="fil88" d="M510 225c0,-1 0,-2 1,-2l39 -8c0,1 0,2 1,2l-41 8z"></path>
  <path class="fil89" d="M551 217c-1,0 -1,-1 -1,-2l0 0c0,1 0,2 1,2l0 0z"></path>
  <path class="fil90" d="M551 217c-1,0 -1,-1 -1,-2l13 -2c-1,1 -1,1 -1,2l-11 2z"></path>
  <path class="fil91" d="M502 215l0 -14 2 -1 0 13c0,1 -1,1 -1,1 -1,0 -1,0 -1,1z"></path>
  <polygon class="fil92" points="502,201 502,201 504,200 "></polygon>
  <g style="clip-path:url(#id1)">
   <image x="496" y="212" width="15.7834" height="19.4858" xlink:href="10164-topbg-b37eefed-9894-428e-9f60-5a5860880f6b_Images\10164-topbg-b37eefed-9894-428e-9f60-5a5860880f6b_ImgID2.png"></image>
  </g>
  <path class="fil93" d="M566 217c-1,0 -2,-1 -2,-2l0 0 -2 0c0,-1 0,-1 1,-2l2 0c0,-1 1,-2 2,-2 0,0 0,0 0,0 0,0 1,0 2,0 0,0 0,1 0,1 0,2 -1,4 -2,5 -1,0 -1,0 -1,0z"></path>
  <path class="fil94" d="M569 211c-1,0 -2,0 -2,0 0,-1 0,-1 1,-1 0,0 0,1 1,1z"></path>
  <path class="fil95" d="M254 261c-12,-6 -24,-12 -36,-12 -2,0 -3,0 -5,0 -13,0 -24,3 -34,7l0 -87 75 43 0 49zm-34 -27l0 3 25 14 0 -3 -25 -14zm0 -8l0 4 25 14 0 -4 -25 -14zm-6 -10l0 3 31 17 0 -3 -31 -17zm-29 -34l0 9 60 34 0 -9 -60 -34z"></path>
  <path class="fil48" d="M254 354l-8 -5 0 0 -2 -1 -65 -36 0 -56c10,-4 21,-7 34,-7 2,0 3,0 5,0 12,0 24,6 36,12l0 93zm-34 -49l0 3 25 14 0 -3 -25 -14zm0 -8l0 4 25 14 0 -4 -25 -14zm-6 -10l0 3 31 17 0 -3 -31 -17zm6 -18l0 3 25 15 0 -4 -25 -14zm0 -7l0 3 25 14 0 -3 -25 -14zm-6 -11l0 4 31 17 0 -3 -31 -18z"></path>
  <polygon class="fil96" points="245,225 185,191 185,182 245,216 "></polygon>
  <polygon class="fil97" points="245,236 214,219 214,216 245,233 "></polygon>
  <polygon class="fil98" points="245,244 220,230 220,226 245,240 "></polygon>
  <polygon class="fil99" points="245,251 220,237 220,234 245,248 "></polygon>
  <polygon class="fil51" points="245,272 214,255 214,251 245,269 "></polygon>
  <polygon class="fil51" points="245,279 220,265 220,262 245,276 "></polygon>
  <polygon class="fil51" points="245,287 220,272 220,269 245,283 "></polygon>
  <polygon class="fil51" points="245,307 214,290 214,287 245,304 "></polygon>
  <polygon class="fil51" points="245,315 220,301 220,297 245,311 "></polygon>
  <polygon class="fil51" points="245,322 220,308 220,305 245,319 "></polygon>
  <polygon class="fil4" points="212,214 212,242 187,228 187,200 "></polygon>
  <polygon class="fil4" points="212,249 212,277 187,263 187,235 "></polygon>
  <polygon class="fil4" points="212,284 212,312 187,298 187,270 "></polygon>
  <polygon class="fil4" points="212,319 212,324 187,310 187,305 "></polygon>
  <path class="fil53" d="M239 389c-2,-4 -3,-8 -3,-11 0,-5 2,-8 6,-8 1,0 1,0 2,0l0 6c0,0 0,0 -1,0 -1,0 -3,2 -3,5 0,2 1,4 2,6 -1,0 -2,1 -3,2z"></path>
  <path class="fil55" d="M249 397c0,0 -1,0 -1,-1 2,-1 4,-3 7,-5 -1,4 -3,6 -6,6z"></path>
  <path class="fil54" d="M248 396c-1,0 -2,0 -2,0 -3,-2 -5,-4 -7,-7 1,-1 2,-2 3,-2 1,1 2,3 4,3 0,1 1,1 2,1 1,0 2,-1 3,-3l4 3c0,0 0,0 0,0 -3,2 -5,4 -7,5z"></path>
  <path class="fil53" d="M250 382c-1,-2 -3,-4 -4,-5l0 -6c3,2 5,5 7,9 -1,0 -2,1 -3,2z"></path>
  <path class="fil54" d="M250 382c0,0 0,0 0,0 1,-1 2,-2 3,-2 0,0 0,0 0,0 -1,0 -2,1 -3,2z"></path>
  <path class="fil54" d="M255 388l-4 -2c0,-1 -1,-3 -1,-4 1,-1 2,-2 3,-2 1,2 2,5 2,8z"></path>
  <path class="fil100" d="M350 448c0,0 -1,0 -2,0 -3,-2 -5,-6 -5,-9l2 1c1,2 2,4 3,5 1,0 1,0 1,0 1,0 2,-1 2,-2 0,-2 -1,-5 -3,-6 0,0 -1,0 -1,0 -1,0 -1,0 -1,1l-3 -1c0,-2 2,-3 3,-3 1,0 1,0 2,0 3,2 5,6 5,10 0,3 -1,4 -3,4z"></path>
  <path class="fil101" d="M315 423l-25 -13c1,0 2,-1 2,-1l23 12c0,1 0,2 0,2zm-44 -24l-13 -7c1,0 1,0 2,-1l12 7c0,0 -1,1 -1,1z"></path>
  <path class="fil102" d="M290 410l0 0c1,0 2,-1 2,-1l0 0c0,0 -1,1 -2,1z"></path>
  <path class="fil103" d="M271 399l0 0c0,0 1,-1 1,-1l0 0c0,0 -1,1 -1,1z"></path>
  <path class="fil104" d="M315 423l0 0c0,0 0,-1 0,-2l0 0c0,1 0,2 0,2z"></path>
  <path class="fil105" d="M331 432l-16 -9c0,0 0,-1 0,-2l16 9c0,1 0,2 0,2z"></path>
  <path class="fil106" d="M343 439l-11 -6c0,-1 0,-2 0,-3l11 7c0,0 0,0 0,1 0,0 0,1 0,1z"></path>
  <path class="fil107" d="M332 433l-1 -1c0,0 0,-1 0,-2l1 0c0,1 0,2 0,3z"></path>
  <path class="fil102" d="M290 410l-3 -2c1,0 1,-1 2,-1l3 2c0,0 -1,1 -2,1z"></path>
  <path class="fil103" d="M287 408l-16 -9c0,0 1,-1 1,-1l17 9c-1,0 -1,1 -2,1z"></path>
  <path class="fil102" d="M258 392l-3 -1c1,-1 1,-1 2,-1l3 1c-1,1 -1,1 -2,1z"></path>
  <path class="fil103" d="M255 391l0 0c0,-1 0,-2 0,-2 0,-1 0,-1 0,-1l2 2c-1,0 -1,0 -2,1z"></path>
  <path class="fil101" d="M246 371c0,0 0,0 0,0 -1,0 -1,-1 -2,-1l0 -22 2 1 0 22z"></path>
  <polygon class="fil52" points="246,349 244,348 "></polygon>
  <path class="fil108" d="M242 387c-1,-2 -2,-4 -2,-6 0,-3 2,-5 3,-5 1,0 1,0 1,0l0 -6c1,0 1,1 2,1 0,0 0,0 0,0l0 6c1,1 3,3 4,5 -2,0 -3,1 -4,2 0,0 0,0 0,0 -2,1 -3,2 -4,3z"></path>
  <path class="fil109" d="M246 384c0,0 0,0 0,0 1,-1 2,-2 4,-2 0,0 0,0 0,0 -2,0 -3,1 -4,2z"></path>
  <path class="fil109" d="M248 391c-1,0 -2,0 -2,-1 -2,0 -3,-2 -4,-3 1,-1 2,-2 4,-3 1,-1 2,-2 4,-2 0,1 1,3 1,4l4 2c0,0 0,0 0,1 0,0 0,1 0,2l-4 -3c-1,2 -2,3 -3,3z"></path>
  <path class="fil110" d="M349 445c0,0 0,0 -1,0 -1,-1 -2,-3 -3,-5l-2 -1c0,0 0,-1 0,-1 0,-1 0,-1 0,-1l3 1c0,-1 0,-1 1,-1 0,0 1,0 1,0 2,1 3,4 3,6 0,1 -1,2 -2,2z"></path>
  <path class="fil0" d="M223 174c0,1 -1,2 -2,2 -1,0 -2,-1 -2,-2 0,-1 1,-2 2,-2 1,0 2,1 2,2z"></path>
  <path class="fil0" d="M41 215c0,1 -1,2 -2,1 -2,0 -2,-1 -2,-2 0,-1 1,-2 2,-2 2,0 2,2 2,3z"></path>
  <path class="fil0" d="M145 169c-1,1 -2,2 -3,2 -1,0 -2,-2 -2,-3 0,-1 2,-2 3,-1 1,0 2,1 2,2z"></path>
  <path class="fil0" d="M300 43c0,1 -1,2 -3,2 -1,0 -2,-1 -2,-2 0,-1 1,-2 2,-2 2,0 3,1 3,2z"></path>
  <path class="fil0" d="M47 195c0,1 -1,2 -3,1 -1,0 -2,-1 -1,-2 0,-1 1,-2 2,-2 1,0 2,1 2,3z"></path>
  <path class="fil0" d="M597 272c0,1 -1,2 -3,2 -1,0 -2,-1 -2,-2 0,-1 1,-2 2,-2 2,0 3,1 3,2z"></path>
  <path class="fil0" d="M732 41c0,1 -1,2 -2,2 -2,0 -3,-1 -3,-2 0,-1 1,-2 3,-2 1,0 2,1 2,2z"></path>
  <path class="fil0" d="M443 207c0,1 -1,2 -2,2 -1,0 -2,-1 -2,-2 0,-2 1,-3 2,-3 1,0 2,1 2,3z"></path>
  <path class="fil0" d="M394 54c0,1 -1,2 -1,2 -1,0 -2,-1 -2,-2 0,0 1,-1 2,-1 0,0 1,1 1,1z"></path>
  <path class="fil0" d="M703 191c0,1 -1,2 -2,2 0,0 -1,-1 -1,-2 0,0 1,-1 1,-1 1,0 2,1 2,1z"></path>
  <path class="fil0" d="M774 93c0,0 -1,1 -2,1 0,0 -1,-1 -1,-1 0,-1 1,-2 1,-2 1,0 2,1 2,2z"></path>
  <path class="fil0" d="M821 172c0,0 -1,1 -1,1 -1,0 -2,-1 -2,-1 0,-1 1,-2 2,-2 0,0 1,1 1,2z"></path>
  <path class="fil0" d="M956 46c0,1 0,1 -1,1 -1,0 -1,0 -1,-1 0,-1 0,-2 1,-2 1,0 1,1 1,2z"></path>
  <path class="fil0" d="M952 151c0,1 -1,1 -1,1 -1,0 -2,0 -2,-1 0,-1 1,-1 2,-1 0,0 1,0 1,1z"></path>
  <path class="fil0" d="M1208 198c0,1 0,2 -1,2 -1,0 -1,-1 -1,-2 0,-1 0,-1 1,-1 1,0 1,0 1,1z"></path>
  <path class="fil0" d="M1373 39c0,0 -1,1 -1,1 -1,0 -2,-1 -2,-1 0,-1 1,-2 2,-2 0,0 1,1 1,2z"></path>
  <path class="fil0" d="M1350 294c0,1 0,2 -1,2 -1,0 -2,-1 -2,-2 0,0 1,-1 2,-1 1,0 1,1 1,1z"></path>
  <path class="fil0" d="M1363 160c0,1 -1,2 -1,2 -1,0 -2,-1 -2,-2 0,0 1,-1 2,-1 0,0 1,1 1,1z"></path>
  <path class="fil0" d="M1207 73c0,1 -1,2 -1,2 -1,0 -2,-1 -2,-2 0,-1 1,-1 2,-1 0,0 1,0 1,1z"></path>
  <path class="fil0" d="M1161 330c0,1 -1,1 -2,1 0,0 -1,0 -1,-1 0,-1 1,-2 1,-2 1,0 2,1 2,2z"></path>
  <path class="fil0" d="M954 344c0,0 -1,1 -2,1 -1,0 -1,-1 -1,-1 0,-1 0,-2 1,-2 1,0 2,1 2,2z"></path>
  <path class="fil0" d="M1176 169c0,1 0,1 -1,1 -1,0 -1,0 -1,-1 0,-1 0,-2 1,-2 1,0 1,1 1,2z"></path>
  <path class="fil0" d="M992 242c0,1 -1,1 -2,1 -1,0 -1,0 -1,-1 0,-1 0,-2 1,-2 1,0 2,1 2,2z"></path>
  <path class="fil0" d="M585 113c0,1 -1,2 -1,2 -1,0 -2,-1 -2,-2 0,0 1,-1 2,-1 0,0 1,1 1,1z"></path>
  <path class="fil0" d="M213 228c0,1 -1,2 -2,2 0,0 -1,-1 -1,-2 0,0 1,-1 1,-1 1,0 2,1 2,1z"></path>
  <path class="fil0" d="M104 252c0,0 -1,1 -2,1 -1,0 -1,-1 -1,-2 0,-1 1,-1 2,-1 0,0 1,1 1,2z"></path>
  <path class="fil0" d="M130 176c0,0 -1,1 -2,1 0,0 -1,-1 -1,-2 0,-1 1,-1 2,-1 1,0 1,1 1,2z"></path>
  <path class="fil0" d="M81 44c0,1 0,2 -1,2 -1,0 -2,-1 -2,-2 0,0 1,-1 2,-1 1,0 1,1 1,1z"></path>
  <path class="fil0" d="M513 29c0,1 -1,2 -2,2 -1,0 -2,-1 -2,-2 0,-1 1,-2 2,-2 1,0 2,1 2,2z"></path>
  <path class="fil0" d="M421 73c0,1 -1,2 -2,2 -2,0 -3,-1 -3,-2 0,-1 1,-2 3,-2 1,0 2,1 2,2z"></path>
  <path class="fil0" d="M608 93c0,1 -1,2 -3,2 -1,0 -2,-1 -2,-2 0,-2 1,-3 2,-3 2,0 3,1 3,3z"></path>
  <path class="fil0" d="M872 262c0,1 -1,2 -2,2 -2,0 -3,-1 -3,-2 0,-2 1,-3 3,-3 1,0 2,1 2,3z"></path>
  <path class="fil0" d="M927 71c0,1 -1,2 -2,2 -2,0 -3,-1 -3,-2 0,-1 1,-2 3,-2 1,0 2,1 2,2z"></path>
  <path class="fil0" d="M1131 359c0,1 -1,2 -2,2 -1,0 -2,-1 -2,-2 0,-1 1,-2 2,-2 1,0 2,1 2,2z"></path>
  <path class="fil0" d="M1093 31c0,1 -1,2 -3,2 -1,0 -2,-1 -2,-2 0,-1 1,-2 2,-2 2,0 3,1 3,2z"></path>
  <path class="fil0" d="M1271 53c0,1 -1,2 -3,2 -1,0 -2,-1 -2,-2 0,-1 1,-2 2,-2 2,0 3,1 3,2z"></path>
  <path class="fil0" d="M1246 389c0,1 -1,2 -3,2 -1,0 -2,-1 -2,-2 0,-1 1,-2 2,-2 2,0 3,1 3,2z"></path>
  <path class="fil0" d="M1266 287c0,1 -1,2 -2,2 -1,0 -2,-1 -2,-2 0,-2 1,-3 2,-3 1,0 2,1 2,3z"></path>
  <path class="fil0" d="M1337 259c0,2 -1,3 -2,3 -2,0 -3,-1 -3,-3 0,-1 1,-2 3,-2 1,0 2,1 2,2z"></path>
  <path class="fil0" d="M1040 269c0,1 -1,2 -2,2 -2,0 -3,-1 -3,-2 0,-1 1,-2 3,-2 1,0 2,1 2,2z"></path>
  <path class="fil0" d="M754 256c0,1 -1,2 -3,2 -1,0 -2,-1 -2,-2 0,-1 1,-2 2,-2 2,0 3,1 3,2z"></path>
  <path class="fil0" d="M730 145c0,1 -1,2 -3,2 -1,0 -2,-1 -2,-2 0,-1 1,-2 2,-2 2,0 3,1 3,2z"></path>
  <path class="fil0" d="M154 226c-3,14 -17,23 -31,21 -15,-3 -24,-17 -22,-31 3,-14 17,-24 31,-21 15,3 24,16 22,31z"></path>
  <path class="fil39" d="M135 233c0,0 -1,1 -1,1 0,0 -1,0 -1,0 0,0 0,0 0,-1 0,0 1,0 1,-1 0,0 1,0 1,-1l0 0c1,1 0,1 0,2zm-14 -18c0,0 0,0 -1,0l0 1 0 0c-1,-1 -1,-1 -2,-2 0,0 0,0 0,0 0,-1 1,-1 1,-1 0,1 1,1 1,1l1 0c0,0 0,0 0,1zm-6 6l0 0c0,0 -1,0 -1,-1l1 0 0 0 0 0 0 1zm-1 -2l0 0 0 -1 0 0c0,-1 1,0 1,0l0 0 0 0 0 1c0,0 0,0 0,1l0 0c-1,0 -1,-1 -1,-1zm30 2c0,0 -1,1 -1,2 0,0 0,1 -1,1l0 0c-1,0 0,-1 -1,-1 0,0 0,0 -1,0 0,1 0,2 0,2 0,1 1,1 0,1 0,0 -1,-1 -1,-1 0,0 -1,0 -1,-1 0,0 0,0 0,0l-1 0c0,0 -1,1 -1,1 -2,-1 -3,-1 -4,-1 0,0 0,0 -1,0 0,0 0,0 0,0l0 0 0 0c0,0 1,1 1,1l1 0c0,0 1,0 1,0 1,1 1,1 1,2 0,0 0,1 0,2 -1,1 -1,2 -2,3l-1 1c0,0 -1,0 -1,1 -1,0 -1,1 -2,1 0,0 -1,0 -1,0 -1,0 -1,-1 -1,-2 0,0 -1,-1 -1,-1 0,0 0,-1 1,-1 0,-1 -1,-1 -1,-1 0,-1 -1,-1 -1,-2 0,0 -1,0 -1,-1 -1,0 -1,0 -1,-1l1 -1c0,0 0,0 0,-1 0,-1 2,-2 3,-2 0,0 1,0 1,0 0,0 1,0 1,1l1 0c0,0 0,0 0,0l0 0 0 0c0,-1 -1,-1 -1,-1 -1,-1 -1,-1 -2,-1 -1,0 -1,0 -2,0 0,-1 -1,-1 0,-2 0,0 0,-1 0,-1 0,0 0,-1 0,-1 1,-1 1,-1 2,-2 0,0 1,0 1,0 1,0 1,0 2,0 1,-1 1,-1 2,-2 2,0 4,1 6,0 1,0 2,-1 3,-1 -2,-3 -5,-5 -8,-6 0,0 1,0 1,1 0,1 0,1 -1,1 0,1 0,2 -1,2 0,0 -1,0 -1,0 -1,0 -2,0 -2,1 -1,0 -2,0 -3,0 0,-1 0,-1 -1,-2 0,0 0,-1 0,-1 -1,0 -1,0 -2,0 0,1 -1,1 -1,2 0,1 0,2 -1,3 0,0 -1,0 -1,0 -2,0 -2,-1 -4,-1 0,0 -1,0 -1,1 -1,0 0,1 0,1 -1,1 -1,2 -1,2l-1 1c0,-1 0,-1 -1,-2 0,1 0,1 0,2l0 0c1,1 1,2 1,3 0,1 1,1 2,2 1,0 1,1 1,2 0,0 0,0 0,0 -1,1 -1,2 0,3 0,2 1,3 3,4 0,0 0,0 0,1l-1 0c0,0 -1,1 -1,0 2,3 5,4 8,5 9,1 17,-5 19,-13 0,-1 0,-2 0,-3z"></path>
  <path class="fil40" d="M132 213c-1,1 -1,1 -2,2 -1,0 -1,0 -2,0 0,0 -1,0 -1,0 -1,1 -1,1 -2,2 0,0 0,1 0,1 0,0 0,1 0,1 -1,1 0,1 0,2 1,0 1,0 2,0 1,0 1,0 2,1 0,0 1,0 1,1l0 0 0 0c0,0 0,0 0,0l-1 0c0,-1 -1,-1 -1,-1 0,0 -1,0 -1,0 -1,0 -3,1 -3,2 0,1 0,1 0,1l-1 1c0,1 0,1 1,1 0,1 1,1 1,1 0,1 1,1 1,2 0,0 1,0 1,1 -1,0 -1,1 -1,1 0,0 1,1 1,1 0,1 0,2 1,2 0,0 1,0 1,0 1,0 1,-1 2,-1 0,-1 1,-1 1,-1l1 -1c1,-1 1,-2 2,-3 0,-1 0,-2 0,-2 0,-1 0,-1 -1,-2 0,0 -1,0 -1,0l-1 0c0,0 -1,-1 -1,-1l0 0 0 0c0,0 0,0 0,0 1,0 1,0 1,0 1,0 2,0 4,1 0,0 1,-1 1,-1l1 0c0,0 0,0 0,0 0,1 1,1 1,1 0,0 1,1 1,1 1,0 0,0 0,-1 0,0 0,-1 0,-2 1,0 1,0 1,0 1,0 0,1 1,1l0 0c1,0 1,-1 1,-1 0,-1 1,-2 1,-2 0,-4 -1,-7 -3,-9 -1,0 -2,1 -3,1 -2,1 -4,0 -6,0z"></path>
  <path class="fil40" d="M135 231c0,1 -1,1 -1,1 0,1 -1,1 -1,1 0,1 0,1 0,1 0,0 1,0 1,0 0,0 1,-1 1,-1 0,-1 1,-1 0,-2l0 0z"></path>
  <path class="fil40" d="M119 232c0,-1 0,-1 0,-1 -2,-1 -3,-2 -3,-4 -1,-1 -1,-2 0,-3 0,0 0,0 0,0 0,-1 0,-2 -1,-2 -1,-1 -2,-1 -2,-2 0,-1 0,-2 -1,-3l0 0c0,0 0,0 0,1 -1,5 1,11 5,14 0,1 1,0 1,0l1 0z"></path>
  <path class="fil40" d="M113 217l1 -1c0,0 0,-1 1,-2 0,0 -1,-1 0,-1 0,-1 1,-1 1,-1 2,0 2,1 4,1 0,0 1,0 1,0 1,-1 1,-2 1,-3 0,-1 1,-1 1,-2 1,0 1,0 2,0 0,0 0,1 0,1 1,1 1,1 1,2 1,0 2,0 3,0 0,-1 1,-1 2,-1 0,0 1,0 1,0 1,0 1,-1 1,-2 1,0 1,0 1,-1 0,-1 -1,-1 -1,-1 -1,-1 -2,-1 -2,-1 -8,-1 -16,3 -19,10 1,1 1,1 1,2z"></path>
  <path class="fil40" d="M115 220c0,-1 0,-1 0,-1l0 -1 0 0 0 0c0,0 -1,-1 -1,0l0 0 0 1 0 0c0,0 0,1 1,1l0 0z"></path>
  <path class="fil40" d="M115 220l0 0 -1 0c0,1 1,1 1,1l0 0 0 -1 0 0z"></path>
  <path class="fil40" d="M120 214c0,0 -1,0 -1,-1 0,0 -1,0 -1,1 0,0 0,0 0,0 1,1 1,1 2,2l0 0 0 -1c1,0 1,0 1,0 0,-1 0,-1 0,-1l-1 0z"></path>
  <path class="fil111" d="M606 709c0,6 -38,11 -86,11 -47,0 -85,-5 -85,-11 0,-6 38,-11 85,-11 48,0 86,5 86,11z"></path>
  <path class="fil112" d="M547 696c-3,-10 -9,-55 -11,-72 0,-4 -40,-19 -40,-19 -24,-1 -36,8 -36,8l57 19c0,26 21,64 21,64l9 0z"></path>
  <path class="fil113" d="M499 637l-17 59 10 2c4,-14 28,-61 29,-67 0,-2 0,-4 -1,-5 -1,0 -28,-17 -36,-18 -11,-3 -26,-7 -26,-7 0,0 -9,10 -7,25 1,15 48,11 48,11z"></path>
  <path class="fil0" d="M476 535c0,0 -18,1 -19,6 -1,5 9,37 9,37l-10 25c0,0 27,7 40,2 1,0 3,-27 3,-27l5 -13 6 20 13 19 9 -7 -10 -17c0,0 -15,-35 -19,-39 -8,-7 -27,-6 -27,-6z"></path>
  <path class="fil114" d="M491 536l-2 -19 -14 0 0 18c-1,0 2,14 13,14 0,0 6,-2 3,-13z"></path>
  <path class="fil115" d="M463 568c1,6 3,10 3,10l-10 25c0,0 20,5 34,3 -1,-1 -17,-12 -18,-17 -2,-10 -9,-21 -9,-21z"></path>
  <path class="fil116" d="M503 498c-1,-5 -9,-6 -21,-5 -8,1 -10,8 -10,14l0 0c-3,1 -5,4 -5,7 0,1 1,2 2,4 1,1 3,2 5,3 0,0 1,0 1,0 4,7 10,16 19,15 12,-9 9,-38 9,-38z"></path>
  <path class="fil117" d="M476 511c0,0 -3,-7 3,-11 6,-5 6,2 13,3 6,0 12,0 11,4 4,-9 -1,-15 -7,-18 -7,-2 -16,-4 -23,2 -7,5 -6,19 -6,19 5,-2 6,-1 9,1z"></path>
  <path class="fil117" d="M473 491c0,0 -5,-15 -16,-11 -11,3 -6,24 -7,34 -1,9 -8,9 -10,5 -4,9 13,17 18,9 6,-8 3,-28 6,-30 4,-2 8,0 8,0l1 -7z"></path>
  <path class="fil0" d="M457 540c-4,2 -12,33 -12,38 0,5 39,30 39,30 0,0 2,-7 6,-8 -1,0 -29,-27 -29,-27l7 -22c0,0 0,-18 -11,-11z"></path>
  <polygon class="fil118" points="481,611 521,610 547,620 503,622 "></polygon>
  <polygon class="fil119" points="503,622 481,614 481,611 505,620 "></polygon>
  <polygon class="fil120" points="503,622 516,586 560,588 547,621 "></polygon>
  <path class="fil118" d="M530 602c-2,3 -1,5 1,6 1,1 4,0 5,-3 1,-2 1,-5 -1,-6 -1,-1 -4,0 -5,3z"></path>
  <path class="fil116" d="M490 600c0,0 16,13 14,14 -2,0 -9,0 -12,-2 -4,-2 -8,-4 -8,-4 0,0 1,-7 6,-8z"></path>
  <path class="fil117" d="M492 695c3,3 12,7 17,9 5,1 4,5 1,5 -8,0 -24,-1 -32,-1 -1,-4 1,-9 4,-12 0,-1 10,-1 10,-1z"></path>
  <path class="fil117" d="M549 695c3,3 13,7 17,9 6,1 5,5 1,5 -7,0 -24,-1 -31,-1 -2,-4 0,-9 3,-12 1,-1 10,-1 10,-1z"></path>
  <path class="fil121" d="M643 468c0,3 -3,5 -6,5 -3,0 -6,-2 -6,-5 0,-4 3,-6 6,-6 3,0 6,2 6,6z"></path>
  <path class="fil122" d="M662 468c0,3 -3,5 -6,5 -4,0 -6,-2 -6,-5 0,-4 2,-6 6,-6 3,0 6,2 6,6z"></path>
  <path class="fil123" d="M19 424c6,-15 24,-23 40,-17 15,6 23,24 17,40 -6,15 -24,23 -40,17 -15,-6 -23,-24 -17,-40z"></path>
  <path class="fil124" d="M64 315c19,7 28,28 21,46 -7,19 -28,28 -46,21 -19,-7 -28,-28 -21,-46 7,-19 28,-28 46,-21z"></path>
  <path class="fil120" d="M60 675c0,3 26,5 58,5 33,0 59,-2 59,-5 0,-4 -26,-6 -59,-6 -32,0 -58,2 -58,6z"></path>
  <path class="fil125" d="M121 664c0,0 -1,1 4,3 5,3 10,2 11,4 2,2 2,3 2,3l-28 0c0,0 0,-7 3,-11 0,1 8,1 8,1z"></path>
  <path class="fil125" d="M90 664c0,0 0,1 4,3 5,2 10,2 11,3 2,2 2,4 2,4l-27 0c0,0 0,-7 3,-11 0,1 7,1 7,1z"></path>
  <polygon class="fil126" points="152,513 152,513 "></polygon>
  <path class="fil116" d="M112 458c0,0 3,6 3,10 0,4 -1,9 -1,12 0,1 -1,1 -2,1l-4 -1 0 6 -11 -1 -2 -23c0,0 9,-11 17,-4z"></path>
  <path class="fil117" d="M111 471c0,0 0,-5 -4,-4 -3,1 1,6 1,6l-4 6c-2,0 -5,1 -8,-1 0,0 -3,-11 -3,-15 0,-3 3,-6 3,-6 0,0 9,-4 13,-4 5,0 6,5 6,5 0,0 1,4 0,5 -2,2 -4,8 -4,8z"></path>
  <path class="fil127" d="M97 482l0 3 12 0c0,0 -3,-3 -12,-3z"></path>
  <path class="fil116" d="M146 511c0,0 -1,-2 3,-4 0,-1 0,-4 1,-4 1,-1 1,3 1,3 0,0 3,-6 4,-4 1,1 -7,12 -7,13 -1,0 -2,-4 -2,-4z"></path>
  <path class="fil117" d="M116 548l8 66 -2 51 -10 -1c0,0 -2,-27 -3,-33 0,-7 2,-18 2,-18l-10 -40 -1 0 -1 40 -9 51 -8 0c0,0 0,-26 0,-32 1,-7 5,-20 5,-20l-4 -41c0,0 -4,-11 3,-23 1,0 30,0 30,0z"></path>
  <path class="fil128" d="M109 485c0,0 14,5 16,7 3,3 10,29 10,29l11 -11 3 8c0,0 -13,19 -17,20 -4,0 -13,-24 -13,-24 0,0 -1,13 -2,20 -2,8 -1,14 -1,14 -12,2 -23,2 -30,0l-4 -27c0,0 -4,1 -6,-1 -1,-1 6,-28 7,-30 2,-3 14,-5 14,-5l12 0z"></path>
  <path class="fil127" d="M95 503c0,0 1,0 1,0 0,12 0,23 2,34 0,1 -1,1 -1,0 -3,-11 -3,-23 -2,-34z"></path>
  <path class="fil127" d="M82 512c0,-1 1,-1 1,0 0,6 1,13 2,19 1,6 2,12 2,17 0,1 -1,1 -1,0 0,-6 -1,-13 -3,-20 -1,-5 -2,-11 -1,-16z"></path>
  <path class="fil127" d="M118 511c4,3 5,7 7,11 1,6 3,11 8,15 0,1 -1,2 -1,1 -8,-7 -8,-18 -14,-26 -1,0 0,-1 0,-1z"></path>
  <path class="fil125" d="M86 546c0,0 19,2 30,-2 0,0 0,4 0,4 0,0 -15,5 -31,1 0,0 1,-3 1,-3z"></path>
 </g>
</svg>
