<svg id="Layer_1" enable-background="new 0 0 256 256" height="512" viewBox="0 0 256 256" width="512" xmlns="http://www.w3.org/2000/svg"><g><g><path d="m193.806 161.989h-173.446c-6.826 0-12.36-5.534-12.36-12.36v-105.057c0-6.826 5.534-12.36 12.36-12.36h173.447c6.826 0 12.36 5.534 12.36 12.36v105.057c-.001 6.826-5.535 12.36-12.361 12.36z" fill="#a4c9ff"/></g><g><path d="m8 55.284h198.166v23.933h-198.166z" fill="#4671c6"/></g><g><path d="m193.807 163.989h-173.447c-7.918 0-14.36-6.441-14.36-14.359v-105.058c0-7.918 6.442-14.359 14.36-14.359h173.447c7.918 0 14.359 6.441 14.359 14.359v105.057c0 7.918-6.441 14.36-14.359 14.36zm-173.447-129.776c-5.713 0-10.36 4.647-10.36 10.359v105.057c0 5.712 4.647 10.359 10.36 10.359h173.447c5.712 0 10.359-4.647 10.359-10.359v-105.057c0-5.712-4.647-10.359-10.359-10.359z" fill="#3762cc"/></g><g><path d="m235.64 223.787h-173.446c-6.826 0-12.36-5.534-12.36-12.36v-105.056c0-6.826 5.534-12.36 12.36-12.36h173.446c6.826 0 12.36 5.534 12.36 12.36v105.057c0 6.826-5.534 12.359-12.36 12.359z" fill="#4671c6"/></g><g><path d="m235.64 225.787h-173.447c-7.918 0-14.359-6.441-14.359-14.359v-105.057c0-7.918 6.441-14.359 14.359-14.359h173.447c7.918 0 14.36 6.441 14.36 14.359v105.057c0 7.918-6.442 14.359-14.36 14.359zm-173.447-129.776c-5.712 0-10.359 4.647-10.359 10.359v105.057c0 5.712 4.647 10.359 10.359 10.359h173.447c5.712 0 10.36-4.647 10.36-10.359v-105.056c0-5.712-4.647-10.359-10.36-10.359h-173.447z" fill="#3762cc"/></g><g><path d="m61.205 147.301v-27c0-2.209 1.791-4 4-4h31c2.209 0 4 1.791 4 4v27c0 2.209-1.791 4-4 4h-31c-2.209 0-4-1.791-4-4z" fill="#ffea92"/></g><g><path d="m72.789 142.995h-11.584c-1.104 0-2-.896-2-2s.896-2 2-2h11.583c1.104 0 2 .896 2 2s-.895 2-1.999 2z" fill="#3762cc"/></g><g><path d="m100.205 142.995h-11.583c-1.104 0-2-.896-2-2s.896-2 2-2h11.583c1.104 0 2 .896 2 2s-.895 2-2 2z" fill="#3762cc"/></g><g><path d="m100.205 128.995h-11.583c-1.104 0-2-.896-2-2s.896-2 2-2h11.583c1.104 0 2 .896 2 2s-.895 2-2 2z" fill="#3762cc"/></g><g><path d="m72.789 128.995h-11.584c-1.104 0-2-.896-2-2s.896-2 2-2h11.583c1.104 0 2 .896 2 2s-.895 2-1.999 2z" fill="#3762cc"/></g><g><path d="m84.622 153.301h-7.833c-3.309 0-6-2.691-6-6v-27c0-3.309 2.691-6 6-6h7.833c3.309 0 6 2.691 6 6v27c0 3.308-2.691 6-6 6zm-7.833-35c-1.103 0-2 .897-2 2v27c0 1.103.897 2 2 2h7.833c1.103 0 2-.897 2-2v-27c0-1.103-.897-2-2-2z" fill="#3762cc"/></g><g><path d="m83.814 179.883h-15.819c-3.75 0-6.79-3.04-6.79-6.79v-.003c0-3.75 3.04-6.79 6.79-6.79h15.819c3.75 0 6.79 3.04 6.79 6.79v.003c0 3.75-3.04 6.79-6.79 6.79z" fill="#a4c9ff"/></g><g><path d="m123.012 179.883h-15.819c-3.75 0-6.79-3.04-6.79-6.79v-.003c0-3.75 3.04-6.79 6.79-6.79h15.819c3.75 0 6.79 3.04 6.79 6.79v.003c0 3.75-3.04 6.79-6.79 6.79z" fill="#a4c9ff"/></g><g><path d="m162.21 179.883h-15.819c-3.75 0-6.79-3.04-6.79-6.79v-.003c0-3.75 3.04-6.79 6.79-6.79h15.819c3.75 0 6.79 3.04 6.79 6.79v.003c0 3.75-3.04 6.79-6.79 6.79z" fill="#a4c9ff"/></g><g><circle cx="195.109" cy="188.801" fill="#f9a7a7" r="17.644"/></g><g><circle cx="218.985" cy="188.801" fill="#ffea92" r="17.644"/></g><g><ellipse cx="207.047" cy="188.801" fill="#f9cfcf" rx="5.706" ry="12.965"/></g><g><path d="m162.21 206.445h-94.215c-3.75 0-6.79-3.04-6.79-6.79v-.003c0-3.75 3.04-6.79 6.79-6.79h94.215c3.75 0 6.79 3.04 6.79 6.79v.003c0 3.75-3.04 6.79-6.79 6.79z" fill="#a4c9ff"/></g><g><path d="m228.799 131.967h-44.045c-4.324 0-7.83-3.506-7.83-7.83v-.007c0-4.324 3.506-7.83 7.83-7.83h44.045c4.324 0 7.83 3.506 7.83 7.83v.007c0 4.325-3.506 7.83-7.83 7.83z" fill="#e0ebfc"/></g><g><path d="m96.205 153.301h-31c-3.309 0-6-2.691-6-6v-27c0-3.309 2.691-6 6-6h31c3.309 0 6 2.691 6 6v27c0 3.308-2.691 6-6 6zm-31-35c-1.103 0-2 .897-2 2v27c0 1.103.897 2 2 2h31c1.103 0 2-.897 2-2v-27c0-1.103-.897-2-2-2z" fill="#3762cc"/></g></g></svg>