<?xml version="1.0" encoding="UTF-8"?>
<!DOCTYPE svg PUBLIC "-//W3C//DTD SVG 1.1//EN" "http://www.w3.org/Graphics/SVG/1.1/DTD/svg11.dtd">
<!-- Creator: CorelDRAW X8 -->
<svg xmlns="http://www.w3.org/2000/svg" xml:space="preserve" width="100px" height="100px" version="1.1" style="shape-rendering:geometricPrecision; text-rendering:geometricPrecision; image-rendering:optimizeQuality; fill-rule:evenodd; clip-rule:evenodd"
viewBox="0 0 8500 11000"
 xmlns:xlink="http://www.w3.org/1999/xlink">
 <defs>
  <style type="text/css">
   <![CDATA[
    .fil5 {fill:#009ADD}
    .fil6 {fill:#136DA0}
    .fil4 {fill:#1CAEE4}
    .fil1 {fill:#382B73}
    .fil8 {fill:#BCBEC0}
    .fil2 {fill:#D1D3D4}
    .fil9 {fill:#E43D91}
    .fil7 {fill:#E6E7E8}
    .fil10 {fill:#EF5A9D}
    .fil3 {fill:white}
    .fil0 {fill:url(#id0)}
   ]]>
  </style>
  <linearGradient id="id0" gradientUnits="userSpaceOnUse" x1="-0" y1="-310627" x2="8500" y2="-310627">
   <stop offset="0" style="stop-opacity:1; stop-color:#31D8FF"/>
   <stop offset="1" style="stop-opacity:1; stop-color:#FF80FF"/>
  </linearGradient>
 </defs>
 <g id="Layer_x0020_1">
  <metadata id="CorelCorpID_0Corel-Layer"/>
  <path class="fil0" d="M8500 5500c0,2347 -1903,4250 -4250,4250 -2347,0 -4250,-1903 -4250,-4250 0,-2347 1903,-4250 4250,-4250 2347,0 4250,1903 4250,4250zm0 0z"/>
  <path class="fil1" d="M6578 3138l-1041 0 0 -346c0,-15 -2,-30 -6,-44 -1,-2 -1,-5 -2,-7 -1,-4 -3,-7 -4,-11 -1,-2 -2,-5 -3,-7 -1,-1 -2,-2 -2,-3 -4,-7 -8,-14 -12,-20 -1,-2 -3,-4 -5,-6 -21,-28 -53,-48 -88,-56 -4,-1 -8,-2 -12,-3 -6,-1 -13,-1 -20,-1 -1,0 -3,0 -4,0 -50,0 -95,23 -124,60 -2,2 -3,4 -5,6 -2,3 -4,6 -6,10 -1,1 -1,2 -2,3 -1,2 -3,4 -4,7 0,1 -1,2 -1,3 -2,2 -3,5 -4,7 -8,19 -12,40 -12,62l0 346 -1922 0 0 -346c0,-15 -3,-30 -6,-44 -1,-2 -2,-5 -3,-7 -1,-4 -2,-7 -4,-11 -1,-2 -2,-5 -3,-7 -1,-1 -1,-2 -2,-3 -26,-51 -79,-86 -140,-86 -2,0 -3,0 -5,0 -2,0 -5,0 -8,0 -1,0 -2,0 -4,0 -2,1 -5,1 -8,1 -9,2 -18,4 -26,7 -3,1 -5,2 -7,2 -8,3 -14,7 -21,10 -2,2 -5,3 -7,4 -4,3 -8,6 -12,9 -3,3 -6,5 -9,8 -2,1 -3,3 -5,5 -2,2 -4,3 -6,5 0,1 -1,2 -2,3 -2,2 -3,4 -5,6 -2,3 -4,6 -7,9 -1,2 -2,4 -4,7 0,1 -1,2 -2,3 -1,2 -2,4 -3,7 -1,1 -1,2 -2,3 -1,2 -2,5 -3,7 -8,19 -13,40 -13,62l0 346 -1040 0c-93,0 -168,76 -168,169l0 5141c0,93 75,169 168,169l4636 0c93,0 168,-76 168,-169l0 -5141c0,-93 -75,-169 -168,-169l0 0zm0 0z"/>
  <path class="fil2" d="M6578 8313l-4636 0c-93,0 -168,-75 -168,-168l0 -4636c0,-93 75,-168 168,-168l4636 0c93,0 168,75 168,168l0 4636c0,93 -75,168 -168,168zm0 0z"/>
  <path class="fil3" d="M6578 8145l-4636 0c-93,0 -168,-76 -168,-169l0 -4635c0,-94 75,-169 168,-169l4636 0c93,0 168,75 168,169l0 4635c0,93 -75,169 -168,169zm0 0z"/>
  <path class="fil2" d="M6578 8018l-4636 0c-93,0 -168,-75 -168,-168l0 -4636c0,-93 75,-168 168,-168l4636 0c93,0 168,75 168,168l0 4636c0,93 -75,168 -168,168l0 0zm0 0z"/>
  <path class="fil3" d="M6578 7808l-4636 0c-93,0 -168,-76 -168,-169l0 -4636c0,-93 75,-168 168,-168l4636 0c93,0 168,75 168,168l0 4636c0,93 -75,169 -168,169zm0 0z"/>
  <path class="fil2" d="M1774 4078l4972 0 0 100 -4972 0 0 -100zm0 0z"/>
  <path class="fil4" d="M6578 2835l-4636 0c-93,0 -168,75 -168,168l0 1075 4972 0 0 -1075c0,-93 -75,-168 -168,-168l0 0zm0 0z"/>
  <path class="fil5" d="M1774 3788l4972 0 0 290 -4972 0 0 -290zm0 0z"/>
  <path class="fil6" d="M3393 3341c0,139 -113,252 -253,252 -139,0 -252,-113 -252,-252 0,-140 113,-253 252,-253 140,0 253,113 253,253zm0 0z"/>
  <path class="fil6" d="M5632 3341c0,139 -113,252 -253,252 -139,0 -253,-113 -253,-252 0,-140 114,-253 253,-253 140,0 253,113 253,253zm0 0z"/>
  <path class="fil7" d="M3140 2330c-87,0 -158,71 -158,158l0 850c0,87 71,158 158,158 88,0 159,-71 159,-158l0 -850c0,-87 -71,-158 -159,-158zm0 0z"/>
  <path class="fil3" d="M3140 2330c-87,0 -158,71 -158,158l0 259c0,-87 71,-158 158,-158 88,0 159,71 159,158l0 -259c0,-87 -71,-158 -159,-158zm0 0z"/>
  <path class="fil2" d="M3140 3243c-87,0 -158,-71 -158,-158l0 253c0,87 71,158 158,158 88,0 159,-71 159,-158l0 -253c0,87 -71,158 -159,158zm0 0z"/>
  <path class="fil7" d="M5379 2330c-87,0 -158,71 -158,158l0 850c0,87 71,158 158,158 88,0 158,-71 158,-158l0 -850c0,-87 -70,-158 -158,-158zm0 0z"/>
  <path class="fil3" d="M5379 2330c-87,0 -158,71 -158,158l0 259c0,-87 71,-158 158,-158 88,0 158,71 158,158l0 -259c0,-87 -70,-158 -158,-158zm0 0z"/>
  <path class="fil2" d="M5379 3243c-87,0 -158,-71 -158,-158l0 253c0,87 71,158 158,158 88,0 158,-71 158,-158l0 -253c0,87 -70,158 -158,158zm0 0z"/>
  <g id="_2101016001696">
   <path class="fil7" d="M2934 5338l-685 0c-45,0 -82,-37 -82,-83l0 -684c0,-45 37,-82 82,-82l685 0c45,0 82,37 82,82l0 684c0,46 -37,83 -82,83zm0 0z"/>
   <path class="fil7" d="M4031 5338l-684 0c-46,0 -82,-37 -82,-83l0 -684c0,-45 36,-82 82,-82l684 0c45,0 82,37 82,82l0 684c0,46 -37,83 -82,83zm0 0z"/>
   <path class="fil7" d="M5128 5338l-684 0c-45,0 -82,-37 -82,-83l0 -684c0,-45 37,-82 82,-82l684 0c46,0 82,37 82,82l0 684c0,46 -36,83 -82,83zm0 0z"/>
   <path class="fil7" d="M6226 5338l-685 0c-45,0 -82,-37 -82,-83l0 -684c0,-45 37,-82 82,-82l685 0c45,0 82,37 82,82l0 684c0,46 -37,83 -82,83zm0 0z"/>
   <path class="fil7" d="M2934 6404l-685 0c-45,0 -82,-37 -82,-82l0 -685c0,-45 37,-82 82,-82l685 0c45,0 82,37 82,82l0 685c0,45 -37,82 -82,82zm0 0z"/>
   <path class="fil7" d="M4031 6404l-684 0c-46,0 -82,-37 -82,-82l0 -685c0,-45 36,-82 82,-82l684 0c45,0 82,37 82,82l0 685c0,45 -37,82 -82,82zm0 0z"/>
   <path class="fil7" d="M6226 6404l-685 0c-45,0 -82,-37 -82,-82l0 -685c0,-45 37,-82 82,-82l685 0c45,0 82,37 82,82l0 685c0,45 -37,82 -82,82zm0 0z"/>
   <path class="fil7" d="M2934 7471l-685 0c-45,0 -82,-37 -82,-83l0 -684c0,-45 37,-82 82,-82l685 0c45,0 82,37 82,82l0 684c0,46 -37,83 -82,83zm0 0z"/>
   <path class="fil7" d="M4031 7471l-684 0c-46,0 -82,-37 -82,-83l0 -684c0,-45 36,-82 82,-82l684 0c45,0 82,37 82,82l0 684c0,46 -37,83 -82,83zm0 0z"/>
   <path class="fil7" d="M5128 7471l-684 0c-45,0 -82,-37 -82,-83l0 -684c0,-45 37,-82 82,-82l684 0c46,0 82,37 82,82l0 684c0,46 -36,83 -82,83zm0 0z"/>
   <path class="fil7" d="M6226 7471l-685 0c-45,0 -82,-37 -82,-83l0 -684c0,-45 37,-82 82,-82l685 0c45,0 82,37 82,82l0 684c0,46 -37,83 -82,83zm0 0z"/>
  </g>
  <path class="fil8" d="M5562 7261l-1552 0c-102,0 -185,-84 -185,-186l0 -1552c0,-102 83,-186 185,-186l1552 0c102,0 186,84 186,186l0 1552c0,102 -84,186 -186,186l0 0zm0 0z"/>
  <path class="fil9" d="M5562 7071l-1552 0c-102,0 -185,-83 -185,-186l0 -1551c0,-103 83,-186 185,-186l1552 0c102,0 186,84 186,186l0 1551c0,103 -84,186 -186,186zm0 0z"/>
  <path class="fil10" d="M5562 6941l-1552 0c-102,0 -185,-83 -185,-186l0 -1551c0,-103 83,-186 185,-186l1552 0c102,0 186,83 186,186l0 1551c0,103 -84,186 -186,186l0 0zm0 0z"/>
  <path class="fil9" d="M5434 5587c-76,-76 -199,-76 -274,0l-531 530 -217 -217c-75,-76 -198,-76 -273,0 -76,76 -76,198 0,274l353 354c38,38 88,57 137,57 50,0 99,-19 137,-57l668 -668c75,-75 75,-198 0,-273zm0 0z"/>
  <path class="fil3" d="M4629 6430c-49,0 -99,-19 -137,-57l-354 -354c-75,-76 -75,-198 0,-274 76,-76 199,-76 274,0l217 217 531 -530c75,-76 198,-76 274,0 75,75 75,198 0,273l-668 668c-38,38 -87,57 -137,57zm0 0z"/>
  <path class="fil2" d="M5434 5507l-668 667c-38,38 -87,57 -137,57 -49,0 -99,-19 -137,-57l-353 -353c-12,-12 -21,-25 -29,-38 -45,74 -36,172 29,236l353 354c38,38 88,57 137,57 50,0 99,-19 137,-57l668 -667c64,-65 73,-162 28,-237 -8,14 -17,27 -28,38zm0 0z"/>
 </g>
</svg>
