<?xml version="1.0" encoding="UTF-8"?>
<!DOCTYPE svg PUBLIC "-//W3C//DTD SVG 1.1//EN" "http://www.w3.org/Graphics/SVG/1.1/DTD/svg11.dtd">
<!-- Creator: CorelDRAW X8 -->
<svg xmlns="http://www.w3.org/2000/svg" xml:space="preserve" width="100px" height="100px" version="1.1" style="shape-rendering:geometricPrecision; text-rendering:geometricPrecision; image-rendering:optimizeQuality; fill-rule:evenodd; clip-rule:evenodd"
viewBox="0 0 8500 11000"
 xmlns:xlink="http://www.w3.org/1999/xlink">
 <defs>
  <style type="text/css">
    .fil5 {fill:#009ADD}
    .fil4 {fill:#1CAEE4}
    .fil1 {fill:#382B73}
    .fil6 {fill:#BCBEC0}
    .fil2 {fill:#D1D3D4}
    .fil9 {fill:#E43D91}
    .fil7 {fill:#E6E7E8}
    .fil10 {fill:#E7AD27}
    .fil8 {fill:#EF5A9D}
    .fil11 {fill:#FEDE3A}
    .fil3 {fill:white}
    .fil0 {fill:url(#id0)}
   </style>
  <linearGradient id="id0" gradientUnits="userSpaceOnUse" x1="-0" y1="-310627" x2="8500" y2="-310627">
   <stop offset="0" style="stop-opacity:1; stop-color:#31D8FF"></stop>
   <stop offset="1" style="stop-opacity:1; stop-color:#FF80FF"></stop>
  </linearGradient>
 </defs>
 <g id="Layer_x0020_1">
  <metadata id="CorelCorpID_0Corel-Layer"></metadata>
  <path class="fil0" d="M8500 5500c0,2347 -1903,4250 -4250,4250 -2347,0 -4250,-1903 -4250,-4250 0,-2347 1903,-4250 4250,-4250 2347,0 4250,1903 4250,4250zm0 0z"></path>
  <path class="fil1" d="M6990 3303l-5481 0c-135,0 -244,110 -244,245l0 3400c0,135 109,245 244,245l2165 0c-7,145 -31,289 -70,428 -7,21 -14,42 -20,63 -5,15 -10,31 -15,46 -8,22 -17,43 -25,65 -6,14 -11,28 -17,42 -10,23 -21,46 -32,70 -6,11 -11,23 -16,34 -18,34 -36,68 -55,102l-36 61 -610 0c-74,0 -139,41 -173,101 0,0 -1,0 -1,-1 -4,7 -7,14 -10,21 0,1 -1,1 -1,2 -4,10 -8,22 -10,33 -1,3 -2,6 -2,9 -2,11 -4,23 -4,36 0,13 2,27 4,40 3,13 7,26 12,38 30,72 102,122 185,122l2944 0c83,0 155,-50 185,-122 5,-12 9,-25 12,-38 2,-13 4,-27 4,-40 0,-13 -2,-25 -4,-36 0,-3 -1,-6 -2,-9 -2,-11 -5,-23 -10,-33 0,-1 -1,-1 -1,-2 -3,-7 -6,-14 -10,-21 0,1 0,1 -1,1 -34,-60 -98,-101 -173,-101l-610 0 -36 -61c-19,-34 -37,-68 -55,-102 -5,-11 -10,-23 -16,-34 -11,-24 -22,-47 -32,-70 -6,-14 -11,-28 -17,-42 -8,-22 -17,-43 -25,-65 -5,-15 -10,-31 -15,-46 -6,-21 -13,-42 -20,-63 -39,-139 -63,-283 -70,-428l2164 0c136,0 245,-110 245,-245l0 -3400c0,-135 -109,-245 -245,-245zm0 0z"></path>
  <path class="fil2" d="M6990 6907l-5481 0c-135,0 -244,-109 -244,-245l0 -3236c0,-136 109,-245 244,-245l5481 0c136,0 245,109 245,245l0 3236c0,136 -109,245 -245,245zm0 0z"></path>
  <path class="fil3" d="M6990 6744l-5481 0c-135,0 -244,-110 -244,-245l0 -3237c0,-135 109,-244 244,-244l5481 0c136,0 245,109 245,244l0 3237c0,135 -109,245 -245,245zm0 0z"></path>
  <path class="fil4" d="M6922 6486l-5344 0c-46,0 -82,-37 -82,-82l0 -3101c0,-45 36,-81 82,-81l5344 0c46,0 82,36 82,81l0 3101c0,45 -36,82 -82,82zm0 0z"></path>
  <path class="fil5" d="M6922 3222l-5344 0c-45,0 -82,36 -82,81l0 163c0,-45 37,-81 82,-81l5344 0c46,0 82,36 82,81l0 -163c0,-45 -36,-81 -82,-81zm0 0z"></path>
  <path class="fil6" d="M5112 7818l-1724 0 36 -61c151,-259 236,-550 250,-850l1152 0c14,300 99,591 250,850l36 61zm0 0z"></path>
  <path class="fil3" d="M5722 8220l-2944 0c-111,0 -201,-90 -201,-201 0,-111 90,-201 201,-201l2944 0c111,0 201,90 201,201 0,111 -90,201 -201,201zm0 0z"></path>
  <path class="fil2" d="M5722 8019l-2944 0c-74,0 -139,-40 -174,-100 -17,29 -27,64 -27,100 0,111 90,201 201,201l2944 0c111,0 201,-90 201,-201 0,-36 -10,-71 -27,-100 -35,60 -100,100 -174,100zm0 0z"></path>
  <path class="fil7" d="M3424 7757l-36 61 1724 0 -36 -61c-79,-137 -141,-282 -183,-433l-1286 0c-42,151 -104,297 -183,433l0 0zm0 0z"></path>
  <path class="fil5" d="M5772 4549l0 -668c0,-44 -35,-79 -79,-79l-2886 0c-44,0 -79,35 -79,79l0 668c0,43 35,79 79,79 -44,0 -79,35 -79,78l0 669c0,43 35,78 79,78 -44,0 -79,35 -79,79l0 668c0,44 35,79 79,79l2886 0c44,0 79,-35 79,-79l0 -668c0,-44 -35,-79 -79,-79 44,0 79,-35 79,-78l0 -669c0,-43 -35,-78 -79,-78 44,0 79,-35 79,-79l0 0zm0 0z"></path>
  <path class="fil7" d="M5693 4505l-2886 0c-44,0 -79,-35 -79,-78l0 -669c0,-43 35,-78 79,-78l2886 0c44,0 79,35 79,78l0 669c0,43 -35,78 -79,78l0 0zm0 0z"></path>
  <path class="fil3" d="M5693 5331l-2886 0c-44,0 -79,-35 -79,-79l0 -668c0,-44 35,-79 79,-79l2886 0c44,0 79,35 79,79l0 668c0,44 -35,79 -79,79l0 0zm0 0z"></path>
  <path class="fil7" d="M5693 6156l-2886 0c-44,0 -79,-35 -79,-78l0 -669c0,-43 35,-78 79,-78l2886 0c44,0 79,35 79,78l0 669c0,43 -35,78 -79,78l0 0zm0 0z"></path>
  <path class="fil7" d="M5264 5194c1,-2 2,-4 3,-6 1,-4 2,-7 3,-10 0,-2 1,-5 2,-8 0,-1 0,-3 0,-5 1,-7 1,-14 0,-21 0,-2 0,-3 0,-4 -1,-4 -1,-8 -3,-12 0,-1 0,-2 -1,-4 -4,-14 -12,-29 -24,-41l-101 -101 101 -101c5,-4 8,-9 12,-14 1,-1 2,-3 3,-5 2,-3 4,-7 5,-10 1,-2 2,-4 3,-7 1,-3 2,-6 3,-9 0,-3 1,-5 2,-8 0,-2 0,-3 0,-5 1,-7 1,-15 0,-22 0,-1 0,-2 0,-3 -1,-5 -2,-9 -3,-13 0,-1 0,-2 0,-3 -5,-15 -13,-29 -25,-41 -38,-38 -101,-38 -140,0l-101 101 -101 -101c-38,-38 -101,-38 -140,0 -8,9 -15,19 -19,29 -2,4 -4,8 -5,12 0,1 -1,2 -1,3 -1,4 -2,9 -3,13 0,1 0,2 0,3 -1,7 -1,15 0,22 0,1 0,3 1,5 0,3 1,5 2,8 0,3 1,6 2,9 1,3 2,5 3,7 2,4 4,7 6,10 1,2 2,4 3,5 3,5 7,10 11,14l101 102 -101 100c-8,9 -15,19 -19,29 -2,4 -4,8 -5,12 0,2 -1,3 -1,4 -1,4 -2,8 -3,12 0,1 0,2 0,4 -1,7 -1,14 0,21 0,2 0,4 1,5 0,3 1,6 2,8 0,3 1,6 2,10 1,2 2,4 3,6 2,4 4,7 6,10 1,2 2,4 3,5 3,5 7,10 11,15 39,38 102,38 140,0l101 -101 101 101c39,38 102,38 140,0 5,-5 9,-10 12,-15 1,-1 2,-3 3,-5 2,-3 4,-6 5,-10l0 0zm0 0z"></path>
  <path class="fil8" d="M5143 4906l101 -101c39,-38 39,-101 0,-140 -38,-39 -101,-39 -140,0l-101 101 -101 -101c-39,-39 -101,-39 -140,0 -39,39 -39,102 0,140l101 101 -101 101c-39,39 -39,102 0,140 39,39 101,39 140,0l101 -101 101 101c39,39 102,39 140,0 39,-38 39,-101 0,-140l-101 -101zm0 0z"></path>
  <path class="fil9" d="M4863 4906l41 -41 -142 -143c-9,-8 -15,-18 -20,-28 -17,36 -10,81 20,111l101 101zm0 0z"></path>
  <path class="fil9" d="M5244 4722l-142 143 41 41 101 -101c30,-30 37,-75 20,-111 -5,10 -11,20 -20,28l0 0zm0 0z"></path>
  <path class="fil9" d="M5244 5064c-38,39 -101,39 -140,0l-101 -101 -101 101c-39,39 -101,39 -140,0 -8,-8 -15,-18 -20,-28 -17,36 -10,81 20,111 39,39 101,39 140,0l101 -101 101 101c39,39 102,39 140,0 30,-30 37,-75 20,-111 -5,10 -11,20 -20,28zm0 0z"></path>
  <path class="fil2" d="M5350 3902c-38,-37 -98,-37 -135,0l-261 261 -107 -106c-37,-38 -97,-38 -135,0 -37,37 -37,97 0,134l175 174c18,19 43,28 67,28 24,0 49,-9 67,-28l329 -328c37,-37 37,-97 0,-135l0 0zm0 0z"></path>
  <path class="fil8" d="M4954 4317c-25,0 -49,-9 -67,-28l-175 -174c-37,-37 -37,-97 0,-135 38,-37 98,-37 135,0l107 107 261 -261c37,-37 97,-37 134,0 38,37 38,98 0,135l-328 328c-18,19 -43,28 -67,28zm0 0z"></path>
  <path class="fil9" d="M5350 3863l-329 329c-18,18 -43,27 -67,27 -24,0 -49,-9 -67,-27l-175 -175c-5,-5 -10,-11 -14,-18 -22,37 -17,85 14,116l175 174c18,19 42,28 67,28 24,0 49,-9 67,-28l329 -328c31,-32 36,-80 14,-116 -4,6 -9,13 -14,18zm0 0z"></path>
  <path class="fil2" d="M5350 5573c-38,-37 -98,-37 -135,0l-261 261 -107 -107c-37,-37 -97,-37 -135,0 -37,37 -37,98 0,135l175 174c18,19 43,28 67,28 24,0 49,-9 67,-28l329 -328c37,-38 37,-98 0,-135l0 0zm0 0z"></path>
  <path class="fil8" d="M4954 5988c-25,0 -49,-10 -67,-28l-175 -174c-37,-38 -37,-98 0,-135 38,-37 98,-37 135,0l107 107 261 -261c37,-37 97,-37 134,0 38,37 38,97 0,135l-328 328c-18,18 -43,28 -67,28l0 0zm0 0z"></path>
  <path class="fil9" d="M5350 5534l-329 328c-18,19 -43,28 -67,28 -24,0 -49,-9 -67,-28l-175 -174c-5,-6 -10,-12 -14,-18 -22,36 -17,84 14,116l175 174c18,18 42,28 67,28 24,0 49,-10 67,-28l329 -329c31,-31 36,-79 14,-116 -4,7 -9,13 -14,19zm0 0z"></path>
  <g id="_2101015972032">
   <path class="fil2" d="M4185 3682l131 0 0 2474 -131 0 0 -2474zm0 0z"></path>
   <path class="fil2" d="M3780 4038l-799 0c-43,0 -78,-36 -78,-79 0,-43 35,-78 78,-78l799 0c43,0 78,35 78,78 0,43 -35,79 -78,79zm0 0z"></path>
   <path class="fil2" d="M3954 4304l-973 0c-43,0 -78,-35 -78,-78 0,-43 35,-79 78,-79l973 0c43,0 79,36 79,79 0,43 -36,78 -79,78zm0 0z"></path>
  </g>
  <path class="fil7" d="M3780 4863l-799 0c-43,0 -78,-35 -78,-78 0,-44 35,-79 78,-79l799 0c43,0 78,35 78,79 0,43 -35,78 -78,78l0 0zm0 0z"></path>
  <path class="fil7" d="M3954 5130l-973 0c-43,0 -78,-35 -78,-79 0,-43 35,-78 78,-78l973 0c43,0 79,35 79,78 0,44 -36,79 -79,79zm0 0z"></path>
  <path class="fil2" d="M3780 5689l-799 0c-43,0 -78,-35 -78,-79 0,-43 35,-78 78,-78l799 0c43,0 78,35 78,78 0,44 -35,79 -78,79zm0 0z"></path>
  <path class="fil2" d="M3954 5956l-973 0c-43,0 -78,-35 -78,-79 0,-43 35,-78 78,-78l973 0c43,0 79,35 79,78 0,44 -36,79 -79,79zm0 0z"></path>
  <path class="fil10" d="M4893 3262c0,355 -288,643 -643,643 -355,0 -643,-288 -643,-643 0,-355 288,-642 643,-642 355,0 643,287 643,642zm0 0z"></path>
  <path class="fil11" d="M4893 3181c0,355 -288,642 -643,642 -355,0 -643,-287 -643,-642 0,-355 288,-643 643,-643 355,0 643,288 643,643zm0 0z"></path>
  <path class="fil4" d="M4250 3680c-275,0 -499,-224 -499,-499 0,-275 224,-499 499,-499 275,0 499,224 499,499 0,275 -224,499 -499,499zm0 -909c-226,0 -410,184 -410,410 0,226 184,410 410,410 226,0 410,-184 410,-410 0,-226 -184,-410 -410,-410zm0 0z"></path>
  <path class="fil5" d="M4704 3181c0,-251 -203,-455 -454,-455 -251,0 -454,204 -454,455 0,251 203,454 454,454 251,0 454,-203 454,-454zm-454 410c-226,0 -410,-184 -410,-410 0,-226 184,-410 410,-410 226,0 410,184 410,410 0,226 -184,410 -410,410zm0 0z"></path>
  <path class="fil4" d="M4250 3680c-162,0 -288,-219 -288,-499 0,-280 126,-499 288,-499 162,0 288,219 288,499 0,280 -126,499 -288,499zm0 -909c-94,0 -199,168 -199,410 0,241 105,410 199,410 94,0 199,-169 199,-410 0,-242 -105,-410 -199,-410zm0 0z"></path>
  <path class="fil5" d="M4493 3181c0,-251 -109,-455 -243,-455 -134,0 -243,204 -243,455 0,251 109,454 243,454 134,0 243,-203 243,-454zm-243 410c-94,0 -199,-169 -199,-410 0,-242 105,-410 199,-410 94,0 199,168 199,410 0,241 -105,410 -199,410zm0 0z"></path>
  <path class="fil4" d="M4205 2726l89 0 0 909 -89 0 0 -909zm0 0z"></path>
  <path class="fil4" d="M3796 3136l908 0 0 89 -908 0 0 -89zm0 0z"></path>
 </g>
</svg>
