<?xml version="1.0" encoding="UTF-8"?>
<!DOCTYPE svg PUBLIC "-//W3C//DTD SVG 1.1//EN" "http://www.w3.org/Graphics/SVG/1.1/DTD/svg11.dtd">
<!-- Creator: CorelDRAW X8 -->
<svg xmlns="http://www.w3.org/2000/svg" xml:space="preserve" width="100px" height="100px" version="1.1" style="shape-rendering:geometricPrecision; text-rendering:geometricPrecision; image-rendering:optimizeQuality; fill-rule:evenodd; clip-rule:evenodd"
viewBox="0 0 8500 11000"
 xmlns:xlink="http://www.w3.org/1999/xlink">
 <defs>
  <style type="text/css">
   <![CDATA[
    .fil13 {fill:#99AF17}
    .fil11 {fill:#A56021}
    .fil2 {fill:#BF6C0D}
    .fil9 {fill:#CCC033}
    .fil1 {fill:#E58D23}
    .fil8 {fill:#FCE575}
    .fil12 {fill:#FCF9DE}
    .fil10 {fill:#FF4B34}
    .fil3 {fill:#FFA730}
    .fil7 {fill:#FFB74B}
    .fil5 {fill:#FFD551}
    .fil4 {fill:#FFDF74}
    .fil6 {fill:#FFF4C1}
    .fil0 {fill:url(#id0)}
   ]]>
  </style>
  <linearGradient id="id0" gradientUnits="userSpaceOnUse" x1="-0" y1="-310627" x2="8500" y2="-310627">
   <stop offset="0" style="stop-opacity:1; stop-color:#31D8FF"/>
   <stop offset="1" style="stop-opacity:1; stop-color:#FF80FF"/>
  </linearGradient>
 </defs>
 <g id="Layer_x0020_1">
  <metadata id="CorelCorpID_0Corel-Layer"/>
  <path class="fil0" d="M8500 5500c0,2347 -1903,4250 -4250,4250 -2347,0 -4250,-1903 -4250,-4250 0,-2347 1903,-4250 4250,-4250 2347,0 4250,1903 4250,4250zm0 0z"/>
  <g id="qa.svg">
   <g>
    <g>
     <path class="fil1" d="M2734 8018l3136 0c-709,-263 -577,-1577 -577,-1577l-1982 0 1982 0 -1982 0c0,0 132,1314 -577,1577l3136 0 -3136 0z"/>
    </g>
    <g>
     <path class="fil2" d="M3870 7208l1459 0c-74,-390 -36,-767 -36,-767l-1982 0c0,0 132,1314 -577,1577l1091 0c85,-405 45,-810 45,-810z"/>
    </g>
    <g>
     <path class="fil3" d="M5365 7919c-20,0 -40,-8 -55,-23 -197,-190 -290,-464 -294,-475 -14,-42 8,-87 50,-101 41,-14 86,9 100,50 2,4 87,250 254,412 32,30 33,81 2,112 -15,16 -36,25 -57,25z"/>
    </g>
    <g>
     <path class="fil3" d="M6237 8326l-3870 0c-59,0 -106,-48 -106,-106l0 -96c0,-59 47,-106 106,-106l3870 0c58,0 106,47 106,106l0 96c0,58 -48,106 -106,106z"/>
    </g>
    <g>
     <path class="fil1" d="M3099 8214l0 -84c0,-62 50,-112 111,-112l-837 0c-62,0 -112,50 -112,112l0 84c0,62 50,112 112,112l837 0c-61,0 -111,-50 -111,-112z"/>
    </g>
    <g>
     <path class="fil3" d="M7026 2651l-5448 0c-116,0 -209,94 -209,210l0 3368 0 192 0 267c0,193 156,349 349,349l5168 0c193,0 349,-156 349,-349l0 -267 0 -192 0 -3368c0,-116 -93,-210 -209,-210z"/>
    </g>
    <g>
     <circle class="fil4" cx="4302" cy="6633" r="260"/>
    </g>
    <g>
     <circle class="fil1" cx="2555" cy="6633" r="209"/>
    </g>
    <g>
     <path class="fil5" d="M4214 6633c0,-113 73,-209 174,-245 -27,-9 -56,-15 -86,-15 -143,0 -260,116 -260,260 0,143 117,260 260,260 30,0 59,-6 86,-15 -101,-36 -174,-132 -174,-245z"/>
    </g>
    <g>
     <path class="fil1" d="M2031 6688l0 -267 0 -192 0 -3368c0,-116 93,-210 209,-210l-662 0c-116,0 -209,94 -209,210l0 3368 0 192 0 267c0,193 156,349 349,349l662 0c-193,0 -349,-156 -349,-349z"/>
    </g>
    <g>
     <path class="fil6" d="M1578 6212l0 -3219c0,-73 59,-132 132,-132l5183 0c74,0 133,59 133,132l0 3219 -5448 0z"/>
    </g>
    <g>
     <path class="fil7" d="M5556 4398l-3375 0c-132,0 -239,-107 -239,-239l0 -744c0,-132 107,-238 239,-238l3375 0c132,0 239,106 239,238l0 744c0,132 -107,239 -239,239z"/>
    </g>
    <g>
     <path class="fil8" d="M2031 2861l-321 0c-73,0 -132,59 -132,132l0 3219 453 0 0 -3351 0 0z"/>
    </g>
    <g>
     <path class="fil7" d="M6559 5904l-3376 0c-131,0 -238,-106 -238,-238l0 -744c0,-132 107,-239 238,-239l3376 0c132,0 239,107 239,239l0 744c-1,132 -107,238 -239,238z"/>
    </g>
    <g>
     <path class="fil9" d="M3021 4398l-840 0c-132,0 -239,-107 -239,-239l0 -744c0,-132 107,-238 239,-238l840 0c132,0 238,106 238,238l0 744c0,132 -106,239 -238,239z"/>
    </g>
    <g>
     <path class="fil10" d="M4024 5904l-841 0c-131,0 -238,-106 -238,-238l0 -744c0,-132 107,-239 238,-239l841 0c132,0 238,107 238,239l0 744c0,132 -106,238 -238,238z"/>
    </g>
    <g>
     <g>
      <path class="fil6" d="M2816 4096l46 48c34,36 8,94 -40,94l0 0c-16,0 -31,-6 -41,-18l-91 -98c-13,-14 -33,-20 -52,-16 -24,4 -49,6 -75,6 -208,0 -376,-155 -376,-377 0,-220 168,-376 376,-376 210,0 376,156 376,376 0,117 -46,215 -120,282 -23,20 -24,56 -3,79zm-253 -89c146,0 252,-106 252,-272 0,-166 -106,-270 -252,-270 -146,0 -252,104 -252,270 0,166 106,272 252,272z"/>
     </g>
    </g>
    <g>
     <g>
      <path class="fil6" d="M3718 5501l-229 0c-24,0 -45,15 -53,37l-26 76c-8,22 -29,37 -53,37l-7 0c-39,0 -66,-38 -53,-74l224 -626c8,-22 29,-37 52,-37l62 0c23,0 44,15 52,37l224 626c13,36 -14,74 -52,74l-9 0c-24,0 -45,-15 -53,-37l-26 -76c-8,-22 -29,-37 -53,-37zm-167 -291l-41 118c-13,36 14,74 52,74l83 0c39,0 66,-38 53,-74l-42 -118c-17,-50 -87,-50 -105,0z"/>
     </g>
    </g>
    <g>
     <g>
      <path class="fil11" d="M5488 3906l-1943 0c-63,0 -115,-53 -115,-119 0,-66 52,-119 115,-119l1943 0c63,0 115,53 115,119 0,66 -52,119 -115,119z"/>
     </g>
    </g>
    <g>
     <g>
      <path class="fil11" d="M6547 5241l-1943 0c-63,0 -115,-53 -115,-119 0,-66 52,-119 115,-119l1943 0c63,0 115,53 115,119 0,66 -52,119 -115,119z"/>
     </g>
    </g>
    <g>
     <path class="fil11" d="M5825 5678l-1217 0c-65,0 -119,-54 -119,-119l0 0c0,-66 54,-119 119,-119l1217 0c65,0 119,53 119,119l0 0c0,65 -54,119 -119,119z"/>
    </g>
    <g>
     <path class="fil12" d="M6745 3758c-44,0 -80,-36 -80,-80l0 -268c0,-44 36,-79 80,-79 44,0 79,35 79,79l0 268c0,44 -35,80 -79,80z"/>
    </g>
    <g>
     <path class="fil12" d="M6745 5616c-44,0 -80,-36 -80,-79l0 -1521c0,-44 36,-80 80,-80 44,0 79,36 79,80l0 1521c0,43 -35,79 -79,79z"/>
    </g>
    <g>
     <path class="fil13" d="M2031 3230c-54,43 -89,110 -89,185l0 744c0,75 35,142 89,186l0 -1115z"/>
    </g>
   </g>
  </g>
 </g>
</svg>
