<?xml version="1.0" encoding="UTF-8"?>
<!DOCTYPE svg PUBLIC "-//W3C//DTD SVG 1.1//EN" "http://www.w3.org/Graphics/SVG/1.1/DTD/svg11.dtd">
<!-- Creator: CorelDRAW X8 -->
<svg xmlns="http://www.w3.org/2000/svg" xml:space="preserve" width="100px" height="100px" version="1.1" style="shape-rendering:geometricPrecision; text-rendering:geometricPrecision; image-rendering:optimizeQuality; fill-rule:evenodd; clip-rule:evenodd"
viewBox="0 0 8500 11000"
 xmlns:xlink="http://www.w3.org/1999/xlink">
 <defs>
  <style type="text/css">
    .fil7 {fill:#40596B}
    .fil1 {fill:#54C0EB}
    .fil4 {fill:#CDD6E0}
    .fil8 {fill:#F1543F}
    .fil2 {fill:#F2F2F2}
    .fil3 {fill:#FF7058}
    .fil5 {fill:#FFD15C}
    .fil6 {fill:#334A5E;fill-opacity:0.200000}
    .fil0 {fill:url(#id0)}
   </style>
  <linearGradient id="id0" gradientUnits="userSpaceOnUse" x1="-0" y1="-310627" x2="8500" y2="-310627">
   <stop offset="0" style="stop-opacity:1; stop-color:#31D8FF"></stop>
   <stop offset="1" style="stop-opacity:1; stop-color:#FF80FF"></stop>
  </linearGradient>
 </defs>
 <g id="Layer_x0020_1">
  <metadata id="CorelCorpID_0Corel-Layer"></metadata>
  <path class="fil0" d="M8500 5500c0,2347 -1903,4250 -4250,4250 -2347,0 -4250,-1903 -4250,-4250 0,-2347 1903,-4250 4250,-4250 2347,0 4250,1903 4250,4250zm0 0z"></path>
  <g id="target.svg">
   <circle class="fil1" cx="4343" cy="5552" r="2864"></circle>
   <path class="fil2" d="M4343 7700c-1181,0 -2148,-967 -2148,-2148 0,-1182 967,-2148 2148,-2148 1182,0 2148,966 2148,2148 0,1181 -966,2148 -2148,2148z"></path>
   <path class="fil3" d="M4343 6984c-787,0 -1432,-645 -1432,-1432 0,-788 645,-1432 1432,-1432 788,0 1432,644 1432,1432 0,787 -644,1432 -1432,1432z"></path>
   <path class="fil4" d="M4343 6268c-394,0 -716,-323 -716,-716 0,-394 322,-716 716,-716 394,0 716,322 716,716 0,393 -322,716 -716,716z"></path>
   <path class="fil5" d="M4343 6268c-394,0 -716,-323 -716,-716 0,-394 322,-716 716,-716 394,0 716,322 716,716 0,393 -322,716 -716,716z"></path>
   <path class="fil6" d="M7183 5910c-47,358 -155,692 -322,1002l-155 -60 -203 -429 -2148 -776c-95,-36 -143,-143 -107,-239 36,-95 143,-143 238,-107l2148 776 430 -203 119 36z"></path>
   <path class="fil7" d="M6300 3845l-1754 1754c-72,72 -191,72 -262,0l0 0c-72,-71 -72,-191 0,-262l1766 -1743c71,-71 191,-71 262,0l0 0c60,72 60,179 -12,251z"></path>
   <polygon class="fil3" points="6467,3427 5906,3988 5906,3248 6467,2687 "></polygon>
   <polygon class="fil8" points="6646,3988 7207,3427 6467,3427 5906,3988 "></polygon>
   <g>
   </g>
   <g>
   </g>
   <g>
   </g>
   <g>
   </g>
   <g>
   </g>
   <g>
   </g>
   <g>
   </g>
   <g>
   </g>
   <g>
   </g>
   <g>
   </g>
   <g>
   </g>
   <g>
   </g>
   <g>
   </g>
   <g>
   </g>
   <g>
   </g>
  </g>
 </g>
</svg>
